<?xml version="1.0" encoding="utf-8"?>
<!-- Generator: Adobe Illustrator 25.0.0, SVG Export Plug-In . SVG Version: 6.00 Build 0)  -->
<svg version="1.1" id="OBJECTS" xmlns="http://www.w3.org/2000/svg" xmlns:xlink="http://www.w3.org/1999/xlink" x="0px" y="0px"
	 viewBox="0 0 500 500" style="enable-background:new 0 0 500 500;" xml:space="preserve">
<style type="text/css">
	.st0{fill:#FFFFFF;}
	.st1{clip-path:url(#SVGID_2_);fill:#F6F2F4;}
	.st2{fill:#E9C9AF;}
	.st3{fill:#C0917E;}
	.st4{fill:#E1B69A;}
	.st5{fill:#38323C;}
	.st6{fill:#1E1924;}
	.st7{fill:#FAF8F3;}
	.st8{fill:none;stroke:#856D7A;stroke-miterlimit:10;}
	.st9{fill:#34313C;}
	.st10{fill:none;stroke:#FFFFFF;stroke-miterlimit:10;}
	.st11{fill:#684E53;}
	.st12{fill:#958972;}
	.st13{fill:#382134;}
	.st14{fill:none;stroke:#382134;stroke-miterlimit:10;}
	.st15{fill:#6E6253;}
	.st16{fill:#EFBFA9;}
	.st17{fill:#904C23;}
	.st18{fill:#D79076;}
	.st19{fill:#212121;}
	.st20{fill:#B74B45;}
	.st21{fill:#D7D0D1;}
	.st22{fill:#ECE6E4;}
	.st23{fill:none;stroke:#514D3E;stroke-miterlimit:10;}
	.st24{fill:none;stroke:#E89076;stroke-miterlimit:10;}
	.st25{fill:#37313C;}
	.st26{fill:#302933;}
	.st27{fill:#E6BF8A;}
	.st28{fill:#DCA55A;}
	.st29{fill:none;stroke:#232321;stroke-width:4;stroke-miterlimit:10;}
	.st30{fill:#585C5E;}
	.st31{fill:none;stroke:#A26B63;stroke-miterlimit:10;}
	.st32{fill:#CA9178;}
	.st33{fill:#F2EBDD;}
	.st34{fill:#C5B2A3;}
	.st35{fill:none;stroke:#C5B2A3;stroke-miterlimit:10;}
	.st36{fill:#375785;}
	.st37{fill:#2C4E71;}
	.st38{fill:#B96F4E;}
	.st39{fill:#784231;}
	.st40{fill:none;stroke:#B96F4E;stroke-miterlimit:10;}
	.st41{fill:#7A7A5E;}
	.st42{fill:#C78D8E;}
	.st43{fill:#AE6B6C;}
	.st44{fill:#A96962;}
	.st45{fill:none;stroke:#FCF7ED;stroke-miterlimit:10;}
	.st46{fill:#85574E;}
	.st47{fill:#F6E6C7;}
	.st48{fill:none;stroke:#DCA55A;stroke-miterlimit:10;}
	.st49{fill:none;stroke:#9E554D;stroke-miterlimit:10;}
	.st50{fill:#704667;}
	.st51{fill:#683C57;}
	.st52{fill:#291D1F;}
	.st53{fill:#904C44;}
	.st54{clip-path:url(#SVGID_4_);fill:#A35958;}
	.st55{fill:#B03933;}
	.st56{fill:none;stroke:#5F304D;stroke-miterlimit:10;}
</style>
<g>
	<path class="st0" d="M50,387.2c-9.2-54.9-18-127.7-0.2-179.8c10.1-29.7,28.3-55,46.3-79.5c17.2-23.3,35-46.9,58.5-61.6
		c32.7-20.5,71.9-21.3,109.3-21.6c39.2-0.3,82.2,0.8,112.1,29.4c18.8,17.9,51.1,66.2,59.4,92.3c25.4,79.8,27.8,150.4,17.9,234.5
		L50,387.2z"/>
	<g>
		<defs>
			<path id="SVGID_1_" d="M50,387.2c-9.2-54.9-18-127.7-0.2-179.8c10.1-29.7,28.3-55,46.3-79.5c17.2-23.3,35-46.9,58.5-61.6
				c32.7-20.5,71.9-21.3,109.3-21.6c39.2-0.3,82.2,0.8,112.1,29.4c18.8,17.9,51.1,66.2,59.4,92.3c25.4,79.8,27.8,150.4,17.9,234.5
				L50,387.2z"/>
		</defs>
		<clipPath id="SVGID_2_">
			<use xlink:href="#SVGID_1_"  style="overflow:visible;"/>
		</clipPath>
		<path class="st1" d="M409.6,31.3c7.7,37.2,6.2,77.1,4.7,115.2c-3.7,94.8-7.5,189.5-11.2,284.3l11.7-0.1
			c8.5-122,10.1-277.2,4.6-399.5H409.6z"/>
		<path class="st1" d="M193.8,419.4c0.8-128.8,0.9-259.2,0.5-388l-10.8,0.1c-7.3,109.8-11.6,265.9-6.4,375.6L193.8,419.4z"/>
		<path class="st1" d="M319.6,418.8c2.7-128.8,5.1-259,7.3-387.7l-5.2,0.4c-5.5,109.8-20,263.8-19.5,373.3L319.6,418.8z"/>
		<path class="st1" d="M116.9,418.8c2.7-128.8,5.1-259,7.3-387.7l-5.2,0.4c-5.5,109.8-20,263.8-19.5,373.3L116.9,418.8z"/>
		<path class="st1" d="M49,426.4C65.1,300.1,70.1,158.5,63.8,31.3h10.6c-1,126.8,3.4,261.5,13.1,387.9L49,426.4z"/>
		<path class="st1" d="M346.6,426.4c16.1-126.3,21.1-267.9,14.8-395.1H372c-1,126.8,3.4,261.5,13.1,387.9L346.6,426.4z"/>
		<path class="st1" d="M222.4,426.4c16.1-126.3,21.1-267.9,14.8-395.1h10.6c-1,126.8,3.4,261.5,13.1,387.9L222.4,426.4z"/>
	</g>
	<path class="st2" d="M404.2,390.6c12.7,0.7,25.7,1.6,37.4,5.1c11.7,3.5,21.9,10.2,23.6,18.2c2.1,10.2-9.4,19.1-21.4,25.7
		c-51.5,28.1-126.7,37.5-192.9,24.3c-29.5-5.9-57.6-16-88.2-17.9c-19.3-1.2-38.4,1-57.6,1.6c-19.2,0.6-39.7-0.7-55.8-7.9
		c-13.4-6-22.5-15.9-23.8-26.2c-1.5-11.3,5.1-25.1,24.7-26.3c24.4-1.5,49.9-1.2,74.5-1.7c59.3-1.3,118.8-1,178.2,0.7
		C336.6,387.2,370.4,388.6,404.2,390.6z"/>
	<path class="st3" d="M341.7,450.7c1.1-1-0.7-2.5-2.1-2.8c-4.7-1.2-9.4-2.4-14.1-3.6c-4.8-1.2-12.7,1.9-5.9,6.2
		C324,453.3,336.5,450.8,341.7,450.7z"/>
	<path class="st3" d="M161.6,400.9c0.5-2.3,2.6-3.7,4.6-5c1.5-1,3.1-2,4.6-3c2.1-1.4,4.6-2.8,7-2.1c2.4,0.7,3.7,3.2,5.8,4.5
		c1.9,1.2,4.3,1.2,6.5,1.7s4.5,1.8,4.9,4L161.6,400.9z"/>
</g>
<g>
	<ellipse class="st4" cx="246.1" cy="417.2" rx="201.5" ry="10.7"/>
	<g>
		<g>
			<path class="st5" d="M113.3,215.3l-16.9,4.3c-11.1,2.8-20.3,10.8-24.5,21.5c-5.1,13.1-9.5,31.7-3,49.8
				c9.2,25.6,66.7,3.7,66.7,3.7l-1.6-69L113.3,215.3z"/>
			<path class="st6" d="M123.3,271.6c-8.2,18.4-40.7,25.7-55.1,16.9l-0.5-1.5c0,0,0,0,0,0c-0.1-1.4-0.2-3.7-0.2-6.6
				c0-0.7,0-1.4,0-2.2c0.1-16.4,2.9-47.2,23.6-51.5l0.8,35.4l25.7-2L123.3,271.6z"/>
			<path class="st6" d="M113.3,215.3l-9.2,3.5c-12.8,4.9-21.8,16.6-23.1,30.3c-1.1,12-1.5,26.9,1.1,39.6c5.4,26.7,53.5,5.9,53.5,5.9
				l-1.6-69L113.3,215.3z"/>
		</g>
		<g>
			<g>
				<polygon class="st7" points="111.8,397.1 133.4,400.8 141,371.8 119.1,370.3 				"/>
				<line class="st8" x1="114.3" y1="388.2" x2="136.7" y2="389.7"/>
				<g>
					<path class="st9" d="M105.3,414.3l49.3,6.3l0.1-4.5c0-1.5-0.2-2.8-0.6-4.1c-0.9-2.7-2.8-5-5.4-6.4l-1.2-0.6
						c-1.2-0.6-2.2-1.4-3.1-2.2c-0.8-0.7-1.5-1.6-2-2.5c-1.2-1.9-2-4.2-2.1-6.7l-27.7-3.6l-4.8,16L105.3,414.3z"/>
					<line class="st10" x1="131.3" y1="395.3" x2="141.1" y2="396.6"/>
					<line class="st10" x1="132.8" y1="399" x2="142.5" y2="400.2"/>
					<g>
						<path class="st10" d="M118.4,403.9c-0.2,0.6,0.1,1.2,0.8,1.3c0.7,0.1,1.4-0.4,1.6-1c0.2-0.6-0.1-1.2-0.8-1.3
							C119.4,402.8,118.6,403.2,118.4,403.9z"/>
						<path class="st10" d="M124.3,404.6c-0.2,0.6,0.1,1.2,0.8,1.3c0.7,0.1,1.4-0.4,1.6-1c0.2-0.6-0.1-1.2-0.8-1.3
							C125.3,403.5,124.5,404,124.3,404.6z"/>
					</g>
					<path class="st7" d="M105.3,414.3l49.3,6.3l0.1-4.5c0-1.5-0.2-2.8-0.6-4.1l-46.3-6L105.3,414.3z"/>
					<line class="st8" x1="137.8" y1="414.2" x2="106.8" y2="410.2"/>
					<path class="st7" d="M127,417l27.7,3.6l0.1-4.5c0-1.5-0.2-2.8-0.6-4.1c-0.9-2.7-2.8-5-5.4-6.4l-1.2-0.6
						c-1.2-0.6-2.2-1.4-3.1-2.2C137.1,404.9,130.4,410.1,127,417z"/>
					<path class="st9" d="M140.4,393.7l1.4-2.3c1-1.6,0.3-3.4-1.5-3.6l-2.5-0.3c-2-0.3-4.1,0.5-5.8,1.9l-3.2,2.8L140.4,393.7z"/>
				</g>
			</g>
			<g>
				<g>
					<polygon class="st7" points="45.7,365.3 59.6,382.3 84.3,365.2 68.8,349.8 					"/>
					<line class="st8" x1="53.4" y1="360.1" x2="69.3" y2="376"/>
					<g>
						<path class="st9" d="M29.5,374l33.2,37.1l3-3.3c1-1.1,1.7-2.3,2.3-3.5c1.1-2.6,1.2-5.6,0.1-8.4l-0.5-1.3
							c-0.5-1.2-0.8-2.5-0.9-3.7c-0.1-1.1-0.1-2.1,0.1-3.2c0.3-2.3,1.3-4.5,2.8-6.4l-18.6-20.8l-14.1,8.9L29.5,374z"/>
						<line class="st10" x1="61.6" y1="376.7" x2="68.2" y2="384.1"/>
						<line class="st10" x1="60.3" y1="380.4" x2="66.9" y2="387.7"/>
						<g>
							<path class="st10" d="M46.2,374.7c-0.6,0.3-0.7,1-0.3,1.5c0.4,0.5,1.3,0.6,1.9,0.3c0.6-0.3,0.7-1,0.3-1.5
								C47.7,374.5,46.8,374.4,46.2,374.7z"/>
							<path class="st10" d="M50.2,379.2c-0.6,0.3-0.7,1-0.3,1.5c0.4,0.5,1.3,0.6,1.9,0.3c0.6-0.3,0.7-1,0.3-1.5
								C51.6,379,50.8,378.8,50.2,379.2z"/>
						</g>
						<path class="st7" d="M29.5,374l33.2,37.1l3-3.3c1-1.1,1.7-2.3,2.3-3.5l-31.1-34.8L29.5,374z"/>
						<line class="st8" x1="54.2" y1="395.2" x2="33.3" y2="371.9"/>
						<path class="st7" d="M44.1,390.3l18.6,20.8l3-3.3c1-1.1,1.7-2.3,2.3-3.5c1.1-2.6,1.2-5.6,0.1-8.4l-0.5-1.3
							c-0.5-1.2-0.8-2.5-0.9-3.7C59.8,387.7,51.2,387.3,44.1,390.3z"/>
						<path class="st9" d="M69.6,381.4l2.6-0.8c1.8-0.6,2.4-2.4,1.2-3.7l-1.7-1.9c-1.3-1.5-3.4-2.3-5.6-2.3l-4.3,0.1L69.6,381.4z"/>
					</g>
				</g>
			</g>
			<path class="st11" d="M117.5,279.1c0,0-4.1,53.8-3.7,64.2c0.2,5.8-33.5,35-33.5,35l-25.4-21.3L91.3,332l2.1-45.3L117.5,279.1z"/>
			<path class="st12" d="M138.6,299.4c16.4-4.9,11.3-18.4-1.1-20.3l-6,8.5L138.6,299.4z"/>
			<path class="st12" d="M100.2,295.6l-7,7.7c-6.8-1.9-10.9-7.2-10.1-12c0.4-2.6,2.3-5,5.8-6.6c1.5-0.7,3.4-1.3,5.6-1.7l2.5,5.5
				l2.7,5.8L100.2,295.6z"/>
			<path class="st11" d="M131.4,273.3c0,0,19.9,55.4,21,62.1c1.2,6.7-7.4,50.3-7.4,50.3l-30-2.9l11.7-47.3l-16.2-58.7L131.4,273.3z"
				/>
			<polygon class="st11" points="135,281 138.3,304.4 93.2,309.5 93.4,286.7 			"/>
			<polygon class="st13" points="138.6,293.7 92.7,302.8 93.1,292.7 136.5,287.8 			"/>
			<path class="st14" d="M120.3,287.6l0.5,14.1c0,0-4-1.5-4.9-5.3"/>
			<polygon class="st13" points="118.7,306.6 125.3,305.9 133.6,335 124.4,383.7 115,382.8 126.7,335.5 			"/>
			<polyline class="st14" points="98,299.1 96.6,336.8 91.6,336.9 93.8,341.3 90.1,341.3 59.2,360.5 			"/>
			<polyline class="st14" points="125.3,305.9 133.6,335 124.4,383.7 			"/>
		</g>
		<polygon class="st12" points="168,231.9 168,231.9 168,231.9 159.8,234.5 131.8,243.7 127.8,216.3 149.9,212.1 160.6,210.1 
			165.5,224.7 		"/>
		<g>
			<polygon class="st12" points="143,291.6 99.6,294.4 88.7,295.1 88.8,290.2 88.9,284.7 89.1,274.6 90.2,223.8 107,215.3 
				130.2,214.8 138.6,265.2 141,279.6 			"/>
		</g>
		<path class="st15" d="M141,279.6l-44,8.9l-8.2,1.7l-5.7,1.2c0.4-2.6,2.3-5,5.8-6.6l0.2-10.1l49.5-9.5L141,279.6z"/>
		<path class="st5" d="M134.1,253.9c3.7-5.3,11.4-20.2-2.3-38.4c-0.8-1-1.9-1.6-3.2-1.7l-6.4-0.3c-0.5,0-0.9,0.5-0.6,1
			c2.2,4.5,7.8,18.5,5.7,36.7c-0.2,1.9,1,3.7,2.8,4.1l0,0C131.6,255.8,133.2,255.2,134.1,253.9z"/>
		<g>
			<path class="st16" d="M110.3,229.3L110.3,229.3c3.6-1.2,5.9-4.7,5.6-8.5l-0.8-9.8l-15.9,5.7l0.3,5.2
				C99.7,227.4,105.1,231.1,110.3,229.3z"/>
			<polygon class="st17" points="87.4,209 99.2,216.7 100.2,208.2 			"/>
			<path class="st18" d="M115.7,219.5c-6.7,7.6-16.3,2.4-16.3,2.4l-0.7-9.7l17.1-6.7L115.7,219.5z"/>
		</g>
		<g>
			
				<ellipse transform="matrix(0.573 -0.8195 0.8195 0.573 -101.7383 177.7413)" class="st17" cx="119.7" cy="186.5" rx="9.7" ry="9.7"/>
			
				<ellipse transform="matrix(3.045455e-02 -0.9995 0.9995 3.045455e-02 -70.9192 279.9484)" class="st17" cx="108.8" cy="176.5" rx="9.7" ry="9.7"/>
			<path class="st17" d="M106.2,180.3c0.5,5.3-3.4,10.1-8.7,10.6c-5.3,0.5-10.1-3.4-10.6-8.7s3.4-10.1,8.7-10.6
				C101,171.1,105.7,175,106.2,180.3z"/>
			<path class="st17" d="M85,188.3c-2.9,10.4-1,16.6,5.7,20.1l5.3-7.1L91,186L85,188.3z"/>
			<path class="st17" d="M116,181.6c6,6.1,7.6,14.8,7.6,14.8l-5.8,1.5l-5.8-13.6L116,181.6z"/>
			<path class="st16" d="M90.6,192.1l2.5,6.9l1.1,3.2l3,8.5c1.6,4.6,5.5,8,10.3,9l1.5,0.3c10.1,2.2,19.3-6.5,17.6-16.7
				c-0.4-2.7-1.2-5.5-2.3-8.3c-2.8-6.7-8.8-11.5-15.5-13l0,0l-1.2-0.2l-0.1,0c-0.6-0.1-1.2-0.2-1.8-0.2c-1.4-0.1-2.9-0.1-4.3,0.1
				l-4.6,0.6C92,182.8,89,187.6,90.6,192.1z"/>
			<path d="M123.2,199.4c0.3,1.8-0.3,3.4-1.5,3.6c-1.1,0.2-2.3-1-2.7-2.8c-0.3-1.8,0.3-3.4,1.5-3.6
				C121.6,196.4,122.8,197.6,123.2,199.4z"/>
			<g>
				<path class="st16" d="M116.7,199.3c1.6,2.9,3.7,3.4,5.2,3.3c0.9-0.1,1.8,0.6,1.9,1.5l0,0c0.2,1.2-0.3,2.5-1.3,3.2l-3.6,2.5
					c-2.1,0.9-4.5-0.1-5.2-2.3l-2.5-7.3L116.7,199.3z"/>
				<g>
					<path class="st18" d="M120.3,209l-0.3-0.4l2.4-1.6c0.9-0.6,1.4-1.8,1.2-2.9c-0.1-0.8-0.9-1.4-1.7-1.3c-1.6,0.1-3.8-0.4-5.4-3.4
						l0.4-0.2c1.5,2.8,3.5,3.2,5,3.1c1.1-0.1,2,0.6,2.2,1.7c0.2,1.3-0.3,2.7-1.4,3.4L120.3,209z"/>
				</g>
			</g>
			<path d="M111.1,202.5c0.3,1.8-0.3,3.4-1.5,3.6c-1.1,0.2-2.3-1-2.7-2.8c-0.3-1.8,0.3-3.4,1.5-3.6
				C109.5,199.5,110.7,200.8,111.1,202.5z"/>
			<path class="st17" d="M105.9,195.5c-4.1,2.2-5.5,0.1-2.6-2C106.4,191.1,110.9,192.7,105.9,195.5z"/>
			<path class="st17" d="M117.9,192.3c-3.4-0.2-2.6-2.4,0.1-2.7C121,189.3,122.1,192.6,117.9,192.3z"/>
			<path class="st17" d="M99.5,181.9c4.3,8-0.2,21.7-14.3,22.2C78.2,192.7,76.4,180.5,99.5,181.9z"/>
			<path class="st16" d="M98.8,204.9c0.4,4-2.5,7.5-6.5,7.9c-4,0.4-7.5-2.5-7.9-6.5c-0.4-4,2.5-7.5,6.5-7.9
				C94.9,198,98.4,200.9,98.8,204.9z"/>
			<polygon class="st17" points="95.3,189.9 97.1,206.1 95.8,207.2 89.2,192.1 			"/>
			<path class="st17" d="M95.5,184c11.7,3.3,21.6-1.3,21.6-1.3S112.4,174.1,95.5,184z"/>
			<path class="st17" d="M82,187.6c-0.5-5.7-6.6-2.4-1.9,0.9c-7.7-0.3-1,8.6,2.1,4.9"/>
			<g>
				<path class="st19" d="M107.2,212.2c0.2,0.4,0.5,0.8,0.7,1.2c0.7,1,1.4,1.9,2.1,2.5c3.9,3.7,8.2,2.3,10.3-1.3
					c0.8-1.4,1.3-3.1,1.4-4.9c0,0-0.6,0-1.6,0C117.5,209.9,111.7,210.2,107.2,212.2z"/>
				<path class="st7" d="M107.2,212.2c0.2,0.4,0.5,0.8,0.7,1.2l10-1.1c0.7-0.1,1.3-0.5,1.6-1.2l0.6-1.3
					C117.5,209.9,111.7,210.2,107.2,212.2z"/>
				<path class="st20" d="M110,216c3.9,3.7,8.2,2.3,10.3-1.3C117.5,213.6,114,213.4,110,216z"/>
			</g>
		</g>
		<g>
			<path class="st12" d="M94.6,222.3l0.8,35.4l0.5,20.8c0,0-6,1.3-12,2.6c-1.1,0.2-2.2,0.5-3.2,0.7c-4.9,1.1-9.1,2.1-9.4,2.2l0,0
				c0,0-0.3-3.1-0.3-8.1c0-0.7,0-1.4,0-2.2C71,257.4,73.8,226.7,94.6,222.3z"/>
		</g>
		<g>
			
				<rect x="104.2" y="236.5" transform="matrix(0.9822 -0.1877 0.1877 0.9822 -46.1922 27.3358)" class="st21" width="33.9" height="42"/>
			
				<rect x="109.3" y="236" transform="matrix(0.9822 -0.1877 0.1877 0.9822 -46.0588 27.7943)" class="st22" width="28.9" height="42"/>
			
				<rect x="112.6" y="243.7" transform="matrix(0.9822 -0.1877 0.1877 0.9822 -44.2756 27.387)" class="st7" width="19.7" height="7.5"/>
		</g>
		<line class="st23" x1="94.8" y1="230.6" x2="95.4" y2="257.8"/>
		<path class="st5" d="M96.5,266.8c0,0,8.5-23.6,3.3-46.8c-0.4-1.9-2.3-3.1-4.2-2.6l-4.2,0.9c-1.8,0.4-3,2.2-2.7,4.1L96.5,266.8z"/>
		<g>
			<path class="st12" d="M128.6,263.8c5,7.1-1.2,14-11.1,7L128.6,263.8z"/>
			<path class="st12" d="M112.7,260.6c-2.2-8.4,6.1-12.6,12.8-2.6L112.7,260.6z"/>
			<path class="st16" d="M126.8,267.2l13-9.3l-0.6-9.8l1-1.1c0.4-0.5,0.7-1.2,0.6-1.9l0,0c-0.1-1.8-2-3-3.7-2.2l-9.7,4.2l0.9-4.4
				c0.2-1.2-0.5-2.3-1.6-2.6l0,0c-1-0.3-2.1,0.2-2.6,1.1l-2.9,5.3c-1.4,2.6-1.6,5.7-0.5,8.5l0.4,0.9l-1.7,1.8L126.8,267.2z"/>
			<path class="st12" d="M126.8,267.2c-10.2,14.1-28.2,17.3-41,17.7c-1.4,0-2.8,0-4.1,0c-6.3-0.1-10.5-0.8-10.5-0.8l0,0l2.2-7.6
				l0.6-2l4.4-15.4l17-1.3l25.7-2L126.8,267.2z"/>
			<polyline class="st23" points="81.7,258.7 112.3,256.5 114,264.7 			"/>
		</g>
		<path class="st12" d="M168.7,170.9c-8.9-1.2-11.8,7.5-3.1,10.5L168.7,170.9z"/>
		<path class="st12" d="M177.1,171.1c9.1-0.1,8.5,11.5,0.7,11.1L177.1,171.1z"/>
		<g>
			<path class="st16" d="M156.8,215.1l9.6-35.8l11.2-0.2c0,0,1.3,14-3.6,38.7L156.8,215.1z"/>
			<g>
				<path class="st16" d="M166.4,179.2c0,0,1.2-8.5-0.8-15.7l15.5-2.1l-3.6,17.7L166.4,179.2z"/>
				<path class="st16" d="M166.7,176c-1.3-7.2-5.2-11.4-5.2-11.4l-1.6-6.9c-0.2-0.9,0.3-1.9,1.2-2.1l0,0c0.9-0.2,1.8,0.2,2.1,1
					l1.5,3.2l6.2,6.3L166.7,176z"/>
				<path class="st16" d="M166.4,167.3l0.5-15.5l4-5.7c0.6-0.9,1.8-1,2.6-0.3l0,0c0.6,0.5,0.7,1.4,0.4,2.1l-2.3,4.4l1.6,13.9
					L166.4,167.3z"/>
				<path class="st16" d="M171.5,168.6l0.5-15.5l4-5.7c0.6-0.9,1.8-1,2.6-0.3l0,0c0.6,0.5,0.7,1.4,0.4,2.1l-2.3,4.4l1.6,13.9
					L171.5,168.6z"/>
				<path class="st16" d="M172.4,171.4l2.6-15.3l4.7-5.1c0.7-0.8,2-0.7,2.6,0.1h0c0.5,0.6,0.6,1.5,0.1,2.2l-2.9,4l-0.1,7.1
					C179.3,168.2,176.2,171.3,172.4,171.4L172.4,171.4z"/>
				<path class="st16" d="M169.9,173.7l6.5-14.1l5.9-3.7c0.9-0.6,2.1-0.2,2.5,0.8l0,0c0.3,0.7,0.1,1.6-0.5,2.1l-3.9,3.1l-3.9,13.4
					L169.9,173.7z"/>
			</g>
			<path class="st24" d="M166.6,161.5c0,0,9.3,3.1,8.1,11"/>
		</g>
		<path class="st12" d="M174.2,221.4c-2.9,6.8-5.9,10.2-6.2,10.5c0,0,0,0,0,0l-5.2-4.9l-13.7-13l0.8-1.8l16.1-37.5l12.7,0.3
			C182,196.9,178.1,212.2,174.2,221.4z"/>
		<line class="st23" x1="171" y1="182.3" x2="163.5" y2="180.4"/>
		<line class="st23" x1="149.9" y1="212.1" x2="156.7" y2="219.2"/>
		<path class="st25" d="M174.2,221.4c-2.9,6.8-5.9,10.2-6.2,10.5l0,0l0,0l-8.1,2.7c0.1-3.2,1.3-5.7,3-7.6c0.8-0.9,1.7-1.7,2.7-2.3
			C168.3,222.8,171.7,221.9,174.2,221.4z"/>
		<path class="st26" d="M85.8,284.9c-1.4,0-2.8,0-4.1,0c-6.3-0.1-10.8-0.4-10.8-0.4c0,0,0-3.6,0-8.5c0-0.7,0-1.4,0-2.2
			c1,0.1,2,0.3,3.1,0.6c3.6,1.2,7.5,3.9,9.9,6.7C84.8,282.4,85.5,283.7,85.8,284.9z"/>
	</g>
	<g>
		<path class="st27" d="M373.8,213.9l28.3,10.1c0,0,18.2,32.8,5.1,61.1c-10.3,22.1-59.9-2.1-59.9-2.1l7.1-61.5L373.8,213.9z"/>
		<path class="st28" d="M373.8,213.9l25,12.2c0,0,3.8,32.5-3.2,55.9c-7,23.4-48.3,0.9-48.3,0.9l7.1-61.5L373.8,213.9z"/>
		<path class="st29" d="M344.4,224.1c-9.5,10.9-11.8,25.5,0.4,31.8"/>
		<g>
			<g>
				<polygon class="st30" points="373.6,394.6 352.4,399.7 343.1,371.5 364.7,368.6 				"/>
				<line class="st31" x1="370.6" y1="386" x2="348.5" y2="388.9"/>
				<g>
					<path class="st12" d="M381.1,411.2l-48.4,9.4l-0.4-4.4c-0.1-1.4,0-2.8,0.3-4.1c0.7-2.7,2.4-5.1,4.9-6.6l1.1-0.7
						c1.1-0.7,2.1-1.5,2.9-2.4c0.7-0.8,1.3-1.6,1.8-2.6c1.1-2,1.7-4.3,1.6-6.7l27.2-5.3l5.8,15.5L381.1,411.2z"/>
					<line class="st10" x1="354.2" y1="394.1" x2="344.6" y2="396"/>
					<line class="st10" x1="353" y1="397.8" x2="343.4" y2="399.7"/>
					<g>
						<path class="st10" d="M367.5,401.8c0.3,0.6,0,1.2-0.7,1.4c-0.7,0.1-1.4-0.3-1.7-0.9c-0.3-0.6,0-1.2,0.7-1.4
							C366.5,400.8,367.2,401.2,367.5,401.8z"/>
						<path class="st10" d="M361.7,402.9c0.3,0.6,0,1.2-0.7,1.4c-0.7,0.1-1.4-0.3-1.7-0.9c-0.3-0.6,0-1.2,0.7-1.4
							C360.7,401.9,361.4,402.3,361.7,402.9z"/>
					</g>
					<path class="st7" d="M381.1,411.2l-48.4,9.4l-0.4-4.4c-0.1-1.4,0-2.8,0.3-4.1l45.4-8.8L381.1,411.2z"/>
					<line class="st31" x1="349" y1="413.2" x2="379.4" y2="407.3"/>
					<path class="st7" d="M359.9,415.3l-27.1,5.3l-0.4-4.4c-0.1-1.4,0-2.8,0.3-4.1c0.7-2.7,2.4-5.1,4.9-6.6l1.1-0.7
						c1.1-0.7,2.1-1.5,2.9-2.4C349,403.9,356,408.7,359.9,415.3z"/>
					<path class="st12" d="M345.1,393.1l-1.6-2.2c-1.1-1.5-0.5-3.3,1.3-3.7l2.4-0.5c1.9-0.4,4.1,0.2,5.8,1.5l3.3,2.6L345.1,393.1z"
						/>
				</g>
				<g>
					<g>
						<polygon class="st30" points="436.9,359 424.3,376.7 398.8,361.4 413.2,345.2 						"/>
						<line class="st31" x1="429" y1="354.4" x2="414.3" y2="371.1"/>
						<g>
							<path class="st12" d="M453.4,366.6L423,405.4l-3.2-3.1c-1-1-1.9-2.1-2.4-3.3c-1.3-2.5-1.5-5.4-0.6-8.3l0.4-1.3
								c0.4-1.2,0.6-2.5,0.6-3.7c0-1.1-0.1-2.1-0.3-3.1c-0.5-2.2-1.5-4.3-3.2-6.2l17.1-21.8l14.5,7.9L453.4,366.6z"/>
							<line class="st10" x1="421.9" y1="371.4" x2="415.9" y2="379"/>
							<line class="st10" x1="423.4" y1="374.9" x2="417.4" y2="382.6"/>
							<g>
								<path class="st10" d="M437,368.4c0.6,0.3,0.8,1,0.4,1.5c-0.4,0.5-1.2,0.7-1.9,0.4c-0.6-0.3-0.8-1-0.4-1.5
									C435.5,368.3,436.4,368.1,437,368.4z"/>
								<path class="st10" d="M433.4,373c0.6,0.3,0.8,1,0.4,1.5c-0.4,0.5-1.2,0.7-1.9,0.4c-0.6-0.3-0.8-1-0.4-1.5
									C431.9,372.9,432.7,372.7,433.4,373z"/>
							</g>
							<path class="st7" d="M453.4,366.6L423,405.4l-3.2-3.1c-1-1-1.9-2.1-2.4-3.3l28.6-36.4L453.4,366.6z"/>
							<line class="st31" x1="430.5" y1="389.1" x2="449.6" y2="364.8"/>
							<path class="st7" d="M440.1,383.6L423,405.4l-3.2-3.1c-1-1-1.9-2.1-2.4-3.3c-1.3-2.5-1.5-5.4-0.6-8.3l0.4-1.3
								c0.4-1.2,0.6-2.5,0.6-3.7C424.4,382.1,432.9,381.2,440.1,383.6z"/>
							<path class="st12" d="M414.3,376.5l-2.6-0.6c-1.8-0.5-2.6-2.2-1.5-3.6l1.5-1.9c1.2-1.5,3.2-2.5,5.4-2.6l4.2-0.2L414.3,376.5z
								"/>
						</g>
					</g>
				</g>
				<g>
					<path class="st32" d="M359.9,200.1l-17.4-34.1l-11.3,2.2c0,0,1.7,14.4,11.9,38.3L359.9,200.1z"/>
					<g>
						<path class="st32" d="M342.5,166.1c0,0-3-8.3-2.6-16.1l-16.1,1.2l7.4,17.1L342.5,166.1z"/>
						<path class="st32" d="M341.5,162.8c-0.3-7.6,2.8-12.6,2.8-12.6l0.1-7.3c0-1-0.7-1.8-1.7-1.9l0,0c-0.9-0.1-1.7,0.5-1.9,1.4
							l-0.8,3.5l-4.9,7.7L341.5,162.8z"/>
						<path class="st32" d="M340,154l-3.8-15.5l-5.2-4.9c-0.8-0.7-2.1-0.6-2.7,0.3l0,0c-0.5,0.7-0.4,1.6,0.1,2.2l3.3,3.9l1.4,14.3
							L340,154z"/>
						<path class="st32" d="M335.1,156.4l-3.8-15.5L326,136c-0.8-0.7-2.1-0.6-2.7,0.3l0,0c-0.5,0.7-0.4,1.6,0.1,2.2l3.3,3.9
							l1.4,14.3L335.1,156.4z"/>
						<path class="st32" d="M334.8,159.4l-5.9-14.9l-5.9-4.1c-0.9-0.6-2.1-0.3-2.7,0.6l0,0c-0.4,0.7-0.2,1.6,0.4,2.2l3.8,3.4
							l1.7,7.2C327.2,157.7,330.9,160.2,334.8,159.4L334.8,159.4z"/>
						<path class="st32" d="M337.9,161.2l-9.6-12.8l-6.7-2.4c-1-0.4-2.2,0.2-2.4,1.3l0,0c-0.2,0.8,0.2,1.6,0.9,2l4.6,2.3l6.8,12.7
							L337.9,161.2z"/>
					</g>
				</g>
				<g>
					<path class="st32" d="M403.1,216.6l35-15.6l7.4,8.8c0,0-10.4,10.1-33.4,22.3L403.1,216.6z"/>
					<g>
						<path class="st32" d="M438.1,201c0,0,7.6-4.6,12.1-10.9l11.8,11.1l-16.5,8.6L438.1,201z"/>
						<path class="st32" d="M440.8,199.1c5-5.7,5.8-11.5,5.8-11.5l4.5-5.7c0.6-0.8,1.7-0.9,2.5-0.4l0,0c0.8,0.5,1,1.5,0.6,2.3
							l-1.6,3.2l-1.1,9L440.8,199.1z"/>
						<path class="st32" d="M447.6,193.2l12.7-9.7l7.1-0.5c1.1-0.1,2,0.8,1.9,1.9l0,0c0,0.8-0.7,1.5-1.5,1.7l-5,1l-10.1,10.3
							L447.6,193.2z"/>
						<path class="st32" d="M449.9,198.2l12.7-9.7l7.1-0.5c1.1-0.1,2,0.8,1.9,1.9l0,0c0,0.8-0.7,1.5-1.5,1.7l-5,1l-10.1,10.3
							L449.9,198.2z"/>
						<path class="st32" d="M448.2,200.7l13.9-7.9l7.1,0.5c1.1,0.1,1.9,1.1,1.7,2.2v0c-0.2,0.8-0.9,1.4-1.7,1.5l-5.1,0.3l-5.8,4.5
							C455.2,204.2,450.8,203.7,448.2,200.7L448.2,200.7z"/>
						<path class="st32" d="M444.7,200.1l15.5-3.9l6.8,2.3c1,0.4,1.5,1.5,1,2.5l0,0c-0.4,0.7-1.2,1.1-2,1l-5-1.1l-13.3,5.6
							L444.7,200.1z"/>
					</g>
					<path class="st32" d="M452.4,189.6c0,0,3.6,9.4-3.5,13.7"/>
				</g>
				<path class="st33" d="M360.5,278.3c0,0,7.4,53,7.7,63.2c0.2,5.7,35.3,32.5,35.3,32.5l23.8-22.7L389.8,329l-5-44.6L360.5,278.3z"
					/>
				<path class="st33" d="M346.4,273.5c0,0-16.1,56-16.8,62.7c-0.7,6.7,10.5,49.3,10.5,49.3l29.5-4.8l-14.5-46l12.3-59.1
					L346.4,273.5z"/>
				<polygon class="st33" points="343.3,281.4 341.6,304.7 386.4,306.9 384.8,284.4 				"/>
				<polygon class="st34" points="341,292.6 387,304.5 384.8,284.4 343.5,283.8 				"/>
				<path class="st35" d="M358.3,286.9l0.4,14c0,0,3.9-1.7,4.5-5.5"/>
				<polygon class="st34" points="361,305.7 354.5,305.4 348.1,334.7 360.3,382.2 369.5,380.7 355,334.7 				"/>
				<polyline class="st35" points="381,296.9 384.8,334.1 389.8,333.9 387.8,338.3 391.5,338.2 423.3,355.1 				"/>
				<polyline class="st35" points="354.5,305.4 348.1,334.7 360.3,382.2 				"/>
				<polygon class="st7" points="390,296.9 338.7,289.3 346.8,235.6 355.9,221.6 380.9,227 387.2,228.4 388.2,248 388.7,258.6 				
					"/>
				<polygon class="st33" points="348.1,260.1 351.5,242.8 378.5,245 376.2,265.5 				"/>
				<polygon class="st36" points="376.3,227.3 366.8,230 365.6,230.3 346.8,235.6 327.8,167.2 341.5,162.8 355.3,188.8 371.6,218.7 
									"/>
				<path class="st37" d="M371.6,218.7l-5.1,12.1c-28.6-7.9-16.2-33.3-11.2-41.9L371.6,218.7z"/>
				<path class="st27" d="M334.7,235.8c0.5-5.1,3.6-18.8,22.1-22.6c1-0.2,2,0,2.8,0.7l4.1,3.3c0.3,0.3,0.3,0.8-0.1,0.9
					c-3.7,1.6-17.4,7.1-23.6,19.3c-0.7,1.4-2.4,1.9-3.8,1.2l0,0C335.2,238.1,334.6,237,334.7,235.8z"/>
				<polygon class="st36" points="447.6,212.4 390.6,257.1 388.7,258.6 384.8,249.8 378.4,235.1 375.9,229.5 380.9,227 381.7,226.7 
					394.1,220.9 440.8,199.1 				"/>
				<path class="st37" d="M394.1,221.1c-1.8,4.5-6.5,18.4-3.5,36l-1.9,1.5l-3.8-8.8l-6.4-14.7c0.7-2.7,1.7-5.5,3.3-8.4l12.4-5.8
					C394.1,221,394.1,221.1,394.1,221.1z"/>
			</g>
			<g>
				<path class="st36" d="M362.5,227.4l1.1,4.4c1,4.4,4.7,7.6,9.1,8.1l0,0c5.8,0.7,11.1-3.5,11.9-9.3l0.4-2.8L362.5,227.4z"/>
				<path class="st32" d="M382.2,228c0,1.4-0.3,2.7-0.9,3.8c-1.7,3.3-5.5,5.3-9.5,4.2c-3.2-0.9-5.5-3.5-5.9-6.7c0-0.1,0-0.3,0-0.4
					l0-0.3c0-0.2,0-0.5,0-0.7l0.2-9.8l16.1,4.7L382.2,228z"/>
				<path class="st38" d="M382.2,228c0,1.4-0.3,2.7-0.9,3.8c-3.3,1.4-9.9,3-15.4-2.4c0,0,0,0,0,0l0-0.4l0-0.3c0-0.2,0-0.5,0-0.7
					l0.2-9.8l16.1,1.9L382.2,228z"/>
			</g>
		</g>
		<path class="st26" d="M395,203.3c14.9,10.9,23.1,28.1-7.9,15.3L395,203.3z"/>
		<g>
			<path class="st39" d="M382.3,216.8c11.9,5.6,18-8.9,17.5-16.6c-1-16.7-16.4-20.6-36.5-8.9L382.3,216.8z"/>
			<path class="st39" d="M364.3,187.7c-6.6,0.5-2.2,5.9-2.2,5.9l10.1-5.3L364.3,187.7z"/>
			<path class="st32" d="M391.9,198.6l-1.2,3.1l-0.4,1l-1.2,3.2l-1.3,3.4l-3.5,9c-1.9,4.9-6.2,8.4-11.3,9.4
				c-1.1,0.2-2.1,0.3-3.2,0.3c-10.7,0-19.1-10.2-16.3-21.1c0.5-2,1.2-4.1,2.1-6.2c2-4.6,5.5-8.3,9.7-10.7c0.5-0.3,0.9-0.5,1.4-0.8
				c1.9-1,3.9-1.7,6-2.1h0l1.3-0.2l0.1,0c0.6-0.1,1.3-0.1,1.9-0.2c1.5-0.1,3.1,0,4.7,0.2l5,0.7C390.7,188.5,393.8,193.8,391.9,198.6
				z"/>
			<path class="st38" d="M391.9,198.6l-2.5,5.4c-6.3-4.7-13.5-11.2-22.8-14.6c1.9-1,3.9-1.7,6-2.1h0l1.3-0.2l0.1,0
				c0.6-0.1,1.3-0.1,1.9-0.2c1.5-0.1,3.1,0,4.7,0.2l5,0.7C390.7,188.5,393.8,193.8,391.9,198.6z"/>
			<circle class="st32" cx="387.9" cy="214.4" r="8.1"/>
			<path d="M359.2,205.4c-0.4,1.8-1.6,3-2.7,2.7c-1.1-0.2-1.8-1.9-1.4-3.6c0.4-1.8,1.6-3,2.7-2.7C359,202,359.6,203.6,359.2,205.4z"
				/>
			<path class="st32" d="M361.1,202.8c-1.7,4.1-4.6,5-6.5,5c-1.3,0-2.3,1-2.4,2.3l0,0c-0.1,1.7,0.7,3.3,2.2,4.1l5.2,2.8
				c2.9,1,6-0.8,6.7-3.8l2.4-10.1L361.1,202.8z"/>
			<path d="M370.2,208.5c-0.4,1.8-1.6,3-2.7,2.7c-1.1-0.2-1.8-1.9-1.4-3.6c0.4-1.8,1.6-3,2.7-2.7C370,205.1,370.6,206.7,370.2,208.5
				z"/>
			<path class="st40" d="M361.1,202.8c-1.7,4.1-4.6,5-6.5,5c-1.3,0-2.3,1-2.4,2.3l0,0c-0.1,1.7,0.7,3.3,2.2,4.1l3.4,1.9"/>
			<path class="st39" d="M371.4,200c4.3,1.8,5.4-0.4,2.4-2.3C370.5,195.7,366.1,197.8,371.4,200z"/>
			<path class="st39" d="M359.1,198c3.3-0.5,2.4-2.6-0.4-2.7C355.7,195.3,355,198.7,359.1,198z"/>
			<path class="st39" d="M384.1,213.2c-5.9-0.8-8-11-5-20.9c0,0-4.5-3.1-10.1-4c0,0,13.3-7.6,23.1-0.9
				C402,194.2,384.1,213.2,384.1,213.2z"/>
			<path class="st19" d="M376.5,218.3c-0.2,0.5-0.5,0.9-0.8,1.4c-0.7,1.1-1.4,2.1-2.2,2.8c-4.1,4.1-8.7,2.7-11.2-1
				c-0.9-1.5-1.6-3.3-1.7-5.2c0,0,0.6,0,1.7-0.1C365.3,216,371.6,216.2,376.5,218.3z"/>
			<path class="st7" d="M376.5,218.3c-0.2,0.5-0.5,0.9-0.8,1.4l-10.9-0.8c-0.8-0.1-1.5-0.5-1.8-1.2l-0.7-1.4
				C365.3,216,371.6,216.2,376.5,218.3z"/>
			<path class="st20" d="M373.6,222.4c-4.1,4.1-8.7,2.7-11.2-1C365.4,220.1,369.2,219.8,373.6,222.4z"/>
		</g>
		<g>
			<path class="st29" d="M381.1,250.3c0,0,5.8,18.8,11.9,27.5"/>
			<path class="st27" d="M380.2,256.5c-3.3-4.1-10.4-15.9-0.1-31.5c0.6-0.9,1.5-1.4,2.5-1.5l5.2-0.6c0.4,0,0.7,0.4,0.6,0.8
				c-1.5,3.8-5.4,15.5-2.7,30.3c0.3,1.5-0.6,3-2.1,3.5l0,0C382.3,257.9,381,257.5,380.2,256.5z"/>
			<polygon class="st27" points="396.1,291.1 387.9,276.5 398.1,274 			"/>
		</g>
		<path class="st41" d="M400.3,205.3c-0.1,0.7-0.2,1.4-0.4,2.1c0,0-19.1-17.8-35.6-19.7c0.2-0.7,0.5-1.3,0.8-1.9
			C372.7,171.4,404.5,178.9,400.3,205.3z"/>
		<path class="st41" d="M400.3,205.3c-4.2-3.7-20.5-17.3-35.1-19.5C372.7,171.4,404.5,178.9,400.3,205.3z"/>
		<path class="st39" d="M365.5,185.2l13.2,2.8c6.3-3,1.8-6.9-2.2-5.3c4.1-8.3-7.1-12-7.1-4.7c-5.8-4.2-8.1,1.5-2.7,3.9
			C361.3,180.5,362.4,184.2,365.5,185.2z"/>
		<polygon class="st34" points="378.7,188 376.8,191.6 364.3,187.7 365.3,185.1 		"/>
	</g>
	<g>
		<g>
			<path class="st42" d="M276.1,221.7l16.6,5.3c10.9,3.5,19.6,12,23.1,22.9c4.4,13.3,7.5,32.2,0,49.9c-10.7,25-66.8-0.3-66.8-0.3
				l5.8-68.8L276.1,221.7z"/>
			<path class="st43" d="M257.8,272.1c7.1,18.9,39.1,28.1,54,20.2l0.5-1.5c0,0,0,0,0,0c0.2-1.4,0.4-3.7,0.6-6.5
				c0.1-0.7,0.1-1.4,0.1-2.2c0.9-16.4-0.1-47.3-20.5-52.8l-2.9,35.3l-25.6-3.5L257.8,272.1z"/>
			<path class="st43" d="M276.1,221.7l9,4c12.5,5.6,20.8,17.9,21.2,31.6c0.4,12.1-0.1,26.9-3.5,39.5c-6.9,26.3-53.8,2.7-53.8,2.7
				l5.8-68.8L276.1,221.7z"/>
		</g>
		<g>
			<g>
				<path class="st44" d="M231,342.2l10.8-52.9h18.4l-11.8,57.4l-7.5,57h-18.4l6.9-52.4C229.9,348.3,230.4,345.2,231,342.2z"/>
				<g>
					<g>
						<polygon class="st7" points="242.8,403.7 222,403.7 225.3,376.5 245.9,378.1 						"/>
						<g>
							<g>
								<line class="st45" x1="227.2" y1="378.2" x2="223.7" y2="403.2"/>
								<line class="st45" x1="234.2" y1="378.5" x2="230.7" y2="403.5"/>
								<line class="st45" x1="241.1" y1="378.8" x2="237.6" y2="403.7"/>
							</g>
							<g>
								<line class="st45" x1="230.3" y1="378.2" x2="226.7" y2="403.2"/>
								<line class="st45" x1="237.2" y1="378.5" x2="233.7" y2="403.5"/>
								<line class="st45" x1="244.2" y1="378.8" x2="240.7" y2="403.7"/>
							</g>
						</g>
						<g>
							<path class="st46" d="M244.4,420.6h-47.1l1.2-4.2c0.4-1.4,1-2.6,1.8-3.8c1.6-2.4,4-4.3,6.9-5.3l1.3-0.4
								c1.3-0.4,2.4-1,3.5-1.7c0.9-0.6,1.8-1.3,2.6-2.1c1.7-1.7,3.1-3.7,3.9-6H245l-0.4,15.6L244.4,420.6z"/>
							<line class="st10" x1="226.3" y1="399.7" x2="217" y2="399.7"/>
							<line class="st10" x1="223.9" y1="402.9" x2="214.6" y2="402.9"/>
							<g>
								<path class="st10" d="M235.5,409.3c0,0.6-0.5,1.1-1.1,1.1c-0.6,0-1.2-0.5-1.2-1.1c0-0.6,0.5-1.1,1.1-1.1
									C235,408.1,235.5,408.6,235.5,409.3z"/>
								<path class="st10" d="M229.9,409.3c0,0.6-0.5,1.1-1.1,1.1c-0.6,0-1.2-0.5-1.2-1.1c0-0.6,0.5-1.1,1.1-1.1
									C229.4,408.1,229.9,408.6,229.9,409.3z"/>
							</g>
							<path class="st7" d="M244.4,420.6h-47.1l1.2-4.2c0.4-1.4,1-2.6,1.8-3.8h44.2L244.4,420.6z"/>
							<line class="st35" x1="244.6" y1="416.6" x2="215" y2="416.6"/>
							<path class="st7" d="M223.7,420.6h-26.4l1.2-4.2c0.4-1.4,1-2.6,1.8-3.8c1.6-2.4,4-4.3,6.9-5.3l1.3-0.4c1.3-0.4,2.4-1,3.5-1.7
								C218.1,407.9,222.7,413.7,223.7,420.6z"/>
							<path class="st46" d="M218.5,397l-0.6-2.3c-0.4-1.7,0.8-3.2,2.5-3.2h2.4c1.9,0,3.6,0.9,4.7,2.5l2.1,3.1H218.5z"/>
						</g>
					</g>
				</g>
				<polygon class="st47" points="223.7,389.5 244.3,390.7 245.6,380.1 224.4,383.3 				"/>
			</g>
			<g>
				<path class="st44" d="M268.5,298.9l18.4-0.8l-2.4,43.7l9.4,61.9l-18.4,0.8l-8.8-57.6c-0.4-2.9-0.6-5.8-0.4-8.6L268.5,298.9z"/>
				<g>
					<polygon class="st7" points="295,403.7 274.2,404.6 270.7,376.4 291.4,377.6 					"/>
					<g>
						<g>
							<line class="st45" x1="272.9" y1="380.6" x2="276.3" y2="405.5"/>
							<line class="st45" x1="279.6" y1="378.9" x2="283.1" y2="403.9"/>
							<line class="st45" x1="286.4" y1="377.3" x2="289.9" y2="402.2"/>
						</g>
						<g>
							<line class="st45" x1="276.4" y1="379.7" x2="279.8" y2="404.7"/>
							<line class="st45" x1="283.1" y1="378.1" x2="286.5" y2="403"/>
							<line class="st45" x1="289.3" y1="376.4" x2="292.8" y2="401.4"/>
						</g>
					</g>
					<line class="st35" x1="271.4" y1="382.1" x2="292.1" y2="382.9"/>
					<g>
						<path class="st46" d="M299,420.6h-47.1l0.4-4.2c0.1-1.4,0.5-2.6,1-3.8c1.2-2.4,3.2-4.3,5.8-5.3l1.2-0.4c1.2-0.4,2.2-1,3.2-1.7
							c0.8-0.6,1.6-1.3,2.2-2.1c1.4-1.7,2.3-3.7,2.8-6H295l2.6,15.6L299,420.6z"/>
						<line class="st10" x1="276.9" y1="399.7" x2="267.6" y2="399.7"/>
						<line class="st10" x1="275.1" y1="402.9" x2="265.8" y2="402.9"/>
						<g>
							<path class="st10" d="M288,409.3c0.1,0.6-0.3,1.1-0.9,1.1c-0.6,0-1.3-0.5-1.4-1.1c-0.1-0.6,0.3-1.1,0.9-1.1
								C287.2,408.1,287.8,408.6,288,409.3z"/>
							<path class="st10" d="M282.4,409.3c0.1,0.6-0.3,1.1-0.9,1.1c-0.6,0-1.3-0.5-1.4-1.1c-0.1-0.6,0.3-1.1,0.9-1.1
								C281.6,408.1,282.2,408.6,282.4,409.3z"/>
						</g>
						<path class="st7" d="M299,420.6h-47.1l0.4-4.2c0.1-1.4,0.5-2.6,1-3.8h44.2L299,420.6z"/>
						<line class="st35" x1="268.5" y1="416.6" x2="298.2" y2="416.6"/>
						<path class="st7" d="M278.4,420.6h-26.4l0.4-4.2c0.1-1.4,0.5-2.6,1-3.8c1.2-2.4,3.2-4.3,5.8-5.3l1.2-0.4
							c1.2-0.4,2.2-1,3.2-1.7C270.3,407.9,276,413.7,278.4,420.6z"/>
						<path class="st46" d="M268.5,397l-1.1-2.3c-0.7-1.7,0.2-3.2,1.8-3.2h2.4c1.9,0,3.8,0.9,5.2,2.5l2.7,3.1H268.5z"/>
					</g>
				</g>
			</g>
			<polygon class="st27" points="289.8,282.8 284,298.8 278.7,313.1 265.1,311.8 258,311.1 242.3,309.5 243.2,295.6 244.3,280.1 
				244.9,271.5 272.7,278.5 			"/>
			<polygon class="st47" points="272.4,389.7 292.9,388.9 291.7,379.6 271.6,383.8 			"/>
			<path class="st27" d="M297.2,384.1l-27.7,1.5c0,0-5.6-37-5.3-42.8c0.2-5,0.6-18,0.9-31c0.1-4.8,0.2-9.6,0.4-14.1
				c0.2-7.4,0.3-13.8,0.4-17.2c0-1.8,0.1-2.8,0.1-2.8l5.4,1.1l18.5,4l-0.4,14.7l-1.2,44.9L297.2,384.1z"/>
			<polyline class="st48" points="281.7,285.7 283.6,341.6 280.3,344.5 284.1,346.6 291.2,384.4 			"/>
			<path class="st27" d="M266,277.7l-0.7,2.9l-3.8,15.8l-3.5,14.6l-7.5,31.3l-1.6,42.7l-26.7-0.5c0,0,4-36.1,4.3-41.9
				c0.3-6.1,5.6-26.3,10.4-43.7c2.1-7.7,4.2-14.8,5.7-19.9c1.4-4.8,2.3-7.7,2.3-7.7L266,277.7z"/>
			<path class="st48" d="M257.7,283.9c0,0.4-3,17.9-3,17.9s4,0.3,4.5-3.7"/>
			<path class="st28" d="M289.8,282.8l-0.4,14.7c-1.8,0.6-3.7,1-5.5,1.4c-7,1.2-13.5,0.2-18.5-1.1c-1.5-0.4-2.8-0.8-4-1.3
				c-3.8-1.4-6.2-2.8-6.2-2.8l-12.1,1.9l-3.1,0.5l0-0.1l-2.3,2.6c-0.2,0.3-0.6,0.4-0.9,0.5c2.1-7.7,4.2-14.8,5.7-19.9l1,0.3
				c0,0,0.2,0.2,0.7,0.6c0.4,0.3,1,0.8,1.8,1.3c1.6,1,4,2.2,7,2.9l12.2-3.6l0.6-0.2l5.4-1.6l1.3-0.4L289.8,282.8z"/>
			<g>
				<path class="st44" d="M271.2,224.8l-50.6-13.5l-3.1,13.7c0,0,19,15.3,42.3,20.3L271.2,224.8z"/>
				<g>
					<path class="st44" d="M234.4,216.1L214,185l-8.8,4.7c0,0,3.5,14.9,12.3,35.3L234.4,216.1z"/>
					<g>
						<path class="st44" d="M214.8,187.8c0,0-2.6-7.1-2.2-13.7l-13.8,1l6.3,14.6L214.8,187.8z"/>
						<path class="st44" d="M214,185c-0.2-6.5,2.4-10.8,2.4-10.8l0.1-6.2c0-0.8-0.6-1.5-1.5-1.6l0,0c-0.8-0.1-1.5,0.5-1.7,1.2
							l-0.7,3l-4.2,6.6L214,185z"/>
						<path class="st44" d="M212.7,177.5l-3.3-13.3l-4.5-4.2c-0.7-0.6-1.8-0.5-2.3,0.2l0,0c-0.4,0.6-0.4,1.4,0.1,1.9l2.8,3.4
							l1.2,12.3L212.7,177.5z"/>
						<path class="st44" d="M208.5,179.6l-3.3-13.3l-4.5-4.2c-0.7-0.6-1.8-0.5-2.3,0.2l0,0c-0.4,0.6-0.4,1.4,0.1,1.9l2.8,3.4
							l1.2,12.3L208.5,179.6z"/>
						<path class="st44" d="M208.2,182.1l-5-12.7l-5-3.5c-0.8-0.5-1.8-0.3-2.3,0.5l0,0c-0.3,0.6-0.2,1.4,0.3,1.9l3.3,2.9l1.4,6.1
							C201.7,180.7,204.9,182.8,208.2,182.1L208.2,182.1z"/>
						<path class="st44" d="M210.9,183.6l-8.2-11l-5.7-2.1c-0.9-0.3-1.8,0.2-2,1.1l0,0c-0.2,0.7,0.2,1.4,0.8,1.7l3.9,2l5.8,10.8
							L210.9,183.6z"/>
					</g>
					<g>
						<path class="st49" d="M211.4,172.5c-7.1,3.8-5.2,10.3-5.2,10.3"/>
					</g>
				</g>
			</g>
			<path class="st50" d="M274.1,223.3l-39.7-9.1L214,185l-8.8,4.7c-2.3,54,32.3,59.6,61.3,57.7L274.1,223.3z"/>
			<path class="st50" d="M267.5,224.2l6.6-0.9l8.2,1.4c10.6,1.8,18.5,10.6,19,21.3c1,20.1-15.8,43.7-15.8,43.7l-35.2-4.9l-2.2-40.9
				C249.4,233.7,257.3,225.6,267.5,224.2z"/>
			<path class="st51" d="M291.8,228.6c-5,8.4-7.8,17.9-8.1,27.7l-0.3,10.3l-0.7,24L245.4,280l4.2-26.8l0.6-4.5
				c1.2-9.1,4.2-17.8,9-25.6l0.7-1.2l1.4-2.4l3.3,2.1l-0.7,1.3c-0.5,0.8-0.9,1.7-1.3,2.6c-2.8,5.7-4.6,11.8-5.6,18.1
				c-0.5,3.2,1.5,6.2,4.7,7.1l9.2,2.4c3.6,1,7.2-1.4,7.9-5.1c1.1-6.1,3.1-12.1,6-17.6l2-3.8L291.8,228.6z"/>
			<path class="st29" d="M242.8,227.9c-7.7,12.2-7.7,27.1,5.4,31.3"/>
			<path class="st27" d="M289.2,227.1c-5,8.4-7.8,17.9-8.1,27.7l-0.3,10.3l-0.7,24l-37.2-10.5l4.2-26.8l0.6-4.5
				c1.2-9.1,4.2-17.8,9-25.6l0.7-1.2l1.4-2.4l3.3,2.1l-0.7,1.4c-0.5,0.8-0.9,1.7-1.3,2.6c-2.8,5.7-4.6,11.8-5.6,18.1
				c-0.5,3.2,1.5,6.2,4.7,7.1l9.2,2.4c3.6,1,7.2-1.4,7.9-5.1c1.1-6.1,3.1-12.1,6-17.6l2-3.8L289.2,227.1z"/>
			<polyline class="st48" points="274.8,264.7 248.9,258.8 245.4,280 271.2,285.7 274.1,270 			"/>
			<path class="st7" d="M253.2,251.4c-0.1,1.6-1.1,2.9-2.2,2.8c-1.2,0-2-1.4-2-3c0.1-1.6,1.1-2.9,2.2-2.8
				C252.4,248.4,253.3,249.8,253.2,251.4z"/>
			<path class="st7" d="M278.1,257.8c-0.1,1.6-1.1,2.9-2.2,2.8c-1.2,0-2-1.4-2-3c0.1-1.6,1.1-2.9,2.2-2.8
				C277.2,254.9,278.1,256.2,278.1,257.8z"/>
			<g>
				<path class="st51" d="M271.3,222.1l-4.8,5.1c-2.8-0.7-5-1.8-6.5-3.2c0.4-0.9,0.8-1.7,1.3-2.6l0.7-1.4l-3.3-2.1l-1.4,2.4
					c-0.4-1.2-0.5-2.4-0.2-3.3L271.3,222.1z"/>
				<path class="st28" d="M262,220.1l-0.7,1.4c-0.5,0.8-0.9,1.7-1.3,2.6c-1.3-1.2-2.2-2.4-2.7-3.7l1.4-2.4L262,220.1z"/>
			</g>
			<g>
				<path class="st42" d="M235.1,241c-0.3-5.2,0.7-19.1,18.3-25.8c1-0.4,2-0.3,2.9,0.2l4.5,2.6c0.4,0.2,0.4,0.7,0,1
					c-3.4,2.1-16.1,9.7-20.3,22.8c-0.5,1.5-2.1,2.3-3.6,1.8l0,0C235.9,243.1,235.2,242.1,235.1,241z"/>
			</g>
			<g>
				<path class="st52" d="M305.5,205.1c3.5-9.1-10.3-9.9-11.9-3.7C292.1,207.5,301.5,215.6,305.5,205.1z"/>
				<path class="st52" d="M276.4,168.4c-9.7,1.4-3.6,13.8,2.6,12.2C285.1,179,287.6,166.8,276.4,168.4z"/>
				<path class="st27" d="M273.2,179.5c0.9-3.9,7.5-4,9.2,0.8L273.2,179.5z"/>
				<path class="st52" d="M300.1,179.3c-6.4-7.4-13.5,4.4-8.9,8.7S307.4,187.8,300.1,179.3z"/>
				<path class="st27" d="M289.2,183.3c3.4-2.2,8.1,2.5,5.9,7.1L289.2,183.3z"/>
				<path class="st27" d="M296.3,197.8c3.7,1.6,2.6,8.1-2.5,8.9L296.3,197.8z"/>
				<path class="st52" d="M285.9,213.2c9.9-2.9,14.9-18.2,5.9-28.2c-9.3-10.3-33.9-9.2-35.3,14.1L285.9,213.2z"/>
				<g>
					<g>
						<path class="st44" d="M272.8,233.6L272.8,233.6c-3.5-0.7-6.1-3.7-6.3-7.3L266,217l15.6,3.4l0.4,4.9
							C282.5,230.5,277.9,234.6,272.8,233.6z"/>
						<path class="st53" d="M266.5,227.2c7.9,4.6,15.5-1.9,15.5-1.9l-0.6-9.2l-16.9-4.1L266.5,227.2z"/>
						<path class="st44" d="M288.7,204.5l-2.7,8.8c-0.1,0.3-0.2,0.6-0.3,0.8c-0.6,1.6-1.5,3.1-2.5,4.4l0,0c-0.5,0.7-1.1,1.3-1.7,1.9
							c-0.5,0.4-1,0.8-1.5,1.2c-0.2,0.1-0.4,0.3-0.6,0.4c-3.4,2.3-7.7,3.2-11.9,2.3c-0.6-0.1-1.2-0.3-1.7-0.4
							c-4.8-1.5-8.4-5-10.1-9.3c-0.1-0.2-0.2-0.4-0.2-0.6c-0.2-0.6-0.4-1.2-0.5-1.8c-0.2-0.8-0.3-1.7-0.4-2.5
							c-0.1-1.7,0-3.4,0.5-5.1c0.1-0.3,0.2-0.6,0.2-0.8l2.7-8.8c0.2-0.5,0.4-1,0.6-1.5c0.3-0.6,0.6-1.2,0.9-1.8c0,0,0,0,0,0
							c1.4-2.5,3.5-4.5,5.9-5.9c0.2-0.1,0.4-0.2,0.5-0.3c2.2-1.1,4.6-1.8,7.1-1.8c1.7-0.1,3.3,0.2,5,0.7c0.1,0,0.2,0,0.2,0.1
							c2.9,0.9,5.3,2.5,7.2,4.6c2.2,2.4,3.6,5.4,4,8.6C289.6,199.7,289.4,202.1,288.7,204.5z"/>
						<path class="st44" d="M293.2,213.5c0,3.5-2.8,6.4-6.4,6.4c-3.5,0-6.4-2.8-6.4-6.4c0-3.5,2.8-6.4,6.4-6.4
							C290.4,207.2,293.2,210,293.2,213.5z"/>
						<g>
							<defs>
								<path id="SVGID_3_" d="M288.7,204.5l-2.7,8.8c-0.1,0.3-0.2,0.6-0.3,0.8c-0.6,1.6-1.5,3.1-2.5,4.4l0,0
									c-0.5,0.7-1.1,1.3-1.8,1.9c-0.5,0.4-1,0.8-1.5,1.2c-0.2,0.1-0.4,0.3-0.5,0.4c-3.4,2.2-7.7,3.2-11.9,2.3
									c-0.6-0.1-1.2-0.3-1.7-0.4c-4.8-1.5-8.4-5-10.1-9.3c-0.1-0.2-0.2-0.4-0.2-0.6c-0.2-0.6-0.4-1.2-0.5-1.8
									c-0.2-0.8-0.3-1.7-0.4-2.5c-0.1-1.7,0-3.4,0.5-5.1c0.1-0.3,0.2-0.6,0.2-0.8l2.7-8.8c0.2-0.5,0.4-1,0.6-1.5
									c0.3-0.6,0.6-1.2,0.9-1.8c1.4-2.5,3.5-4.5,5.9-5.9c0.2-0.1,0.4-0.2,0.5-0.3c2.2-1.1,4.6-1.8,7.1-1.8
									c1.7-0.1,3.5,0.2,5.2,0.7c2.9,0.9,5.3,2.5,7.2,4.6c2.2,2.4,3.6,5.4,4,8.6C289.6,199.7,289.4,202.1,288.7,204.5z"/>
							</defs>
							<clipPath id="SVGID_4_">
								<use xlink:href="#SVGID_3_"  style="overflow:visible;"/>
							</clipPath>
							
								<ellipse transform="matrix(0.1052 -0.9945 0.9945 0.1052 38.6518 472.8238)" class="st54" cx="282.1" cy="214.9" rx="7.4" ry="7.4"/>
							<path class="st54" d="M261.7,210.7c-1.2,3.9-5.4,6.1-9.3,4.9c-3.9-1.2-6.1-5.4-4.9-9.3c1.2-3.9,5.4-6.1,9.3-4.9
								C260.7,202.7,262.9,206.8,261.7,210.7z"/>
						</g>
						<path class="st19" d="M277.5,216.3c-0.3,0.4-0.6,0.9-0.9,1.2c-0.8,1-1.7,1.9-2.5,2.5c-4.6,3.6-9,1.6-11-2.4
							c-0.7-1.6-1.1-3.4-1-5.4c0,0,0.6,0,1.7,0.2C266.7,212.7,272.9,213.6,277.5,216.3z"/>
						<path class="st52" d="M261.9,195.9c3.8,1,4.5-1,1.7-2.2C260.6,192.4,257.1,194.7,261.9,195.9z"/>
						<path class="st52" d="M279.7,201.7c3.3,2.2,4.6,0.5,2.4-1.5C279.6,198,275.6,199,279.7,201.7z"/>
						<g>
							<path class="st53" d="M267.6,211.8l-0.9-0.1c-1.8-0.2-3.3-1.4-3.7-3.2c-0.4-1.8,0.3-3.6,1.9-4.5c1.8-1.1,3.9-2.4,6.1-5
								l0.8,0.6c-2.2,2.8-4.6,4.2-6.3,5.3c-1.4,0.9-1.7,2.4-1.4,3.4c0.3,1.1,1.1,2.3,2.8,2.5l0.9,0.1L267.6,211.8z"/>
						</g>
						<path class="st7" d="M277.5,216.3c-0.3,0.4-0.6,0.9-0.9,1.2l-10.7-2.2c-0.8-0.2-1.4-0.7-1.6-1.4l-0.5-1.5
							C266.7,212.7,272.9,213.6,277.5,216.3z"/>
						<path class="st55" d="M274.1,220c-4.6,3.6-9,1.6-11-2.4C266.3,216.7,270.1,216.9,274.1,220z"/>
					</g>
				</g>
				<path d="M278.3,207.9c-0.6,1.7-1.9,2.8-3,2.4c-1.1-0.4-1.6-2-1-3.7c0.6-1.7,1.9-2.8,3-2.4C278.4,204.5,278.9,206.1,278.3,207.9z
					"/>
				<path d="M263.4,203.7c-0.5,1.6-1.7,2.6-2.7,2.2c-1-0.3-1.4-1.9-0.9-3.4c0.5-1.6,1.7-2.6,2.7-2.2
					C263.5,200.6,263.9,202.1,263.4,203.7z"/>
				<path class="st52" d="M294,201.8l-7.8,10.6c0,0-1.8-7.8-0.1-14.2L294,201.8z"/>
				<path class="st52" d="M290.3,202.5l-32.7-11.7c-1.6-10.6,12.2-12.4,21.9-6.7C290.9,190.7,295.1,192.9,290.3,202.5z"/>
				<polygon class="st44" points="266.5,194.7 271.1,187.4 269.1,196.1 				"/>
			</g>
			<path class="st42" d="M289.8,272.3c0,0-11.1-22.5-8.6-46.1c0.2-1.9,2-3.3,3.9-3.1l4.3,0.4c1.9,0.2,3.3,1.8,3.2,3.7L289.8,272.3z"
				/>
			<g>
				<g>
					<path class="st44" d="M289.1,271.9l-30.9,6.9l-0.5,9.5c0,0,11.9,1.6,33.1-1.7L289.1,271.9z"/>
					<g>
						<path class="st44" d="M258.2,278.9c0,0-7.3,0.7-13.4-1.2l-2.4,13.2l15.2-2.4L258.2,278.9z"/>
						<path class="st44" d="M255.4,279c-6.1-1.3-9.5-4.8-9.5-4.8l-5.8-1.6c-0.8-0.2-1.6,0.2-1.8,1l0,0c-0.2,0.7,0.1,1.5,0.7,1.9
							l2.7,1.4l5.2,5.5L255.4,279z"/>
						<path class="st44" d="M248,278.4l-13.2-0.1l-5,3.2c-0.8,0.5-0.9,1.5-0.3,2.2l0,0c0.4,0.5,1.2,0.7,1.8,0.4l3.8-1.8l11.8,1.9
							L248,278.4z"/>
						<path class="st44" d="M249,282.8l-13.2-0.1l-5,3.2c-0.8,0.5-0.9,1.5-0.3,2.2l0,0c0.4,0.5,1.2,0.7,1.8,0.4l3.8-1.8l11.8,1.9
							L249,282.8z"/>
						<path class="st44" d="M251.3,283.7l-13.1,1.7l-4.5,3.8c-0.7,0.6-0.7,1.6,0,2.3v0c0.5,0.5,1.3,0.5,1.8,0.1l3.5-2.3l6.1,0.1
							C248.4,289.4,251.1,286.9,251.3,283.7L251.3,283.7z"/>
						<path class="st44" d="M253.4,281.6l-12.2,5l-3.3,4.9c-0.5,0.7-0.2,1.8,0.6,2.2l0,0c0.6,0.3,1.4,0.2,1.8-0.3l2.8-3.2l11.6-2.9
							L253.4,281.6z"/>
					</g>
				</g>
				<path class="st50" d="M304.6,285.1c-22,18.2-46.9,3.3-46.9,3.3l-2.2-9.4l37.9-11.2L304.6,285.1z"/>
			</g>
			<g>
				<path class="st50" d="M292.5,229.1l-8.8,48.4c0.9,0.5,19,6.6,20.8,7.5l0,0C309.7,271.6,311,235.6,292.5,229.1z"/>
			</g>
			<polyline class="st56" points="292.6,271.9 285,270.2 255.4,279 			"/>
			<line class="st56" x1="285" y1="270.2" x2="290.5" y2="243"/>
			<line class="st56" x1="234.4" y1="214.2" x2="227.4" y2="218.8"/>
			<polygon class="st28" points="242.8,385 244.5,341.7 251.9,310.5 258,311.1 250.6,342.4 248.9,385.1 			"/>
			<line class="st10" x1="259.3" y1="277.1" x2="263.4" y2="291"/>
			<line class="st10" x1="261.8" y1="276.3" x2="266" y2="292"/>
			<line class="st10" x1="204.7" y1="194.8" x2="217.2" y2="189.3"/>
			<line class="st10" x1="205" y1="197.2" x2="218.4" y2="191.3"/>
		</g>
	</g>
</g>
</svg>
