<?xml version="1.0" encoding="utf-8"?>
<!-- Generator: Adobe Illustrator 25.0.0, SVG Export Plug-In . SVG Version: 6.00 Build 0)  -->
<svg version="1.1" id="Illustration" xmlns="http://www.w3.org/2000/svg" xmlns:xlink="http://www.w3.org/1999/xlink" x="0px"
	 y="0px" viewBox="0 0 3710 3710" style="enable-background:new 0 0 3710 3710;" xml:space="preserve">
<style type="text/css">
	.st0{fill:url(#SVGID_1_);}
	.st1{fill:#91B3FA;}
	.st2{fill:#FFFFFF;}
	.st3{fill:#BDD0FB;}
	.st4{fill:url(#SVGID_2_);}
	.st5{fill:url(#SVGID_3_);}
	.st6{fill:url(#SVGID_4_);}
	.st7{fill:url(#SVGID_5_);}
	.st8{fill:url(#SVGID_6_);}
	.st9{opacity:0.54;fill:#FFFFFF;}
	.st10{opacity:0.6;}
	.st11{fill:url(#SVGID_7_);}
	.st12{opacity:0.85;}
	.st13{fill:url(#SVGID_8_);}
	.st14{fill:url(#SVGID_9_);}
	.st15{fill:url(#SVGID_10_);}
	.st16{fill:url(#SVGID_11_);}
	.st17{fill:url(#SVGID_12_);}
	.st18{fill:url(#SVGID_13_);}
	.st19{fill:url(#SVGID_14_);}
	.st20{fill:url(#SVGID_15_);}
	.st21{fill:url(#SVGID_16_);}
	.st22{fill:url(#SVGID_17_);}
	.st23{fill:url(#SVGID_18_);}
	.st24{fill:url(#SVGID_19_);}
	.st25{fill:url(#SVGID_20_);}
	.st26{fill:url(#SVGID_21_);}
	.st27{fill:url(#SVGID_22_);}
	.st28{fill:url(#SVGID_23_);}
	.st29{fill:url(#SVGID_24_);}
	.st30{fill:url(#SVGID_25_);}
	.st31{fill:url(#SVGID_26_);}
	.st32{fill:url(#SVGID_27_);}
	.st33{fill:url(#SVGID_28_);}
</style>
<g>
	<linearGradient id="SVGID_1_" gradientUnits="userSpaceOnUse" x1="3592.3555" y1="3415.5647" x2="1484.2072" y2="1524.4297">
		<stop  offset="0" style="stop-color:#DAE3FE"/>
		<stop  offset="1" style="stop-color:#E9EFFD"/>
	</linearGradient>
	<path class="st0" d="M2889.9,2761c-71,73.2-85.9,83.8-134.6,116.3c-474.6,316.9-1161.4,240.3-1329.2,209.1
		c-270.6-50.4-403.6-68.2-599.8-245.5c-446-403-424.3-1243.6-83.5-1764.3c40.4-61.7,374.8-540.8,918.5-611.9
		c13.3-1.7,643.2-84.9,1068.3,271.2c60.8,51,158.8,142.9,249.5,283.1C3311,1531.7,3312.1,2325.8,2889.9,2761z"/>
	<g>
		<path class="st1" d="M993.8,527.7c0.5-9.7,15-12.1,21-3.5c61.1,87.1,197.1,334.5,53.4,658.2c-180.3,406.1-122.2,589.6-21.9,720
			c0,0-161.9-94-227-282C659.3,1158.9,985.8,700,993.8,527.7z"/>
		<path class="st2" d="M1016.7,677.1c-3.5,49.9-8.1,99.7-14.7,149.1c-6.4,49.5-14.5,98.6-24.3,147.3
			c-10.1,48.7-21.2,97.1-34.6,144.9c-13.2,47.9-28.8,95-44.6,142.3c-15.5,47.3-31.5,94.9-41.8,144.5
			c-10.4,49.4-14.1,101.2-6.9,152.8c1.8,12.9,3.9,25.8,6.8,38.5c2.6,12.8,5.9,25.5,9.5,38.1c7.2,25.3,16.3,50.4,27.4,74.9
			c22.4,49,52.9,95.4,89.1,137.7c3.8,4.4,10.8,5.6,15.5,2.6c4.7-3,5.5-8.9,1.9-13.3l0,0c-8.5-10.5-16.8-21-24.7-31.8
			c-4-5.4-7.7-10.8-11.6-16.3c-3.6-5.5-7.5-11-10.9-16.6c-14.1-22.3-26.6-45.3-37.1-68.8c-21.2-47-34.9-96.5-41.8-145.8
			c-3.2-24.7-4.3-49.3-3.3-73.9c1.1-24.5,4.3-48.9,9.1-73c9.6-48.2,24.9-95.5,40.1-142.9c15-47.5,29.8-95.3,42.2-143.8
			c6.3-24.2,12.1-48.5,17.4-73c2.7-12.2,5.2-24.5,7.6-36.7c2.3-12.3,4.6-24.6,6.7-36.9c8.5-49.3,15.2-99,20.2-148.9
			c4.7-49.9,7.8-100.1,8.7-150.4c0-1.4-1.3-2.7-2.9-2.8C1018.1,674.7,1016.8,675.7,1016.7,677.1z"/>
	</g>
	<g>
		<g>
			<path class="st3" d="M911.2,1599.2c-12.7,7.6-29-0.3-31.2-14.9c-12-80.6-25.3-311.7,164.5-519.4c160.3-175.4,230.6-285.7,259-338
				c6-11.1,22.6-8,24.4,4.5C1347.1,868.9,1371,1325.1,911.2,1599.2z"/>
			<path class="st2" d="M895.6,1586.6c-0.4,0-0.7-0.1-1.1-0.2c-3-0.9-4.8-4.1-3.9-7.2c1-3.5,106.7-348.6,318.6-602.6
				c2-2.4,5.7-2.8,8.1-0.7c2.4,2,2.8,5.7,0.7,8.1c-210.4,252.1-315.4,595.1-316.4,598.5C900.9,1585.2,898.3,1586.9,895.6,1586.6z"/>
		</g>
	</g>
	<g>
		<linearGradient id="SVGID_2_" gradientUnits="userSpaceOnUse" x1="1924.6615" y1="2582.6189" x2="1904.5851" y2="3874.2512">
			<stop  offset="0" style="stop-color:#09005D"/>
			<stop  offset="1" style="stop-color:#1A0F91"/>
		</linearGradient>
		<polygon class="st4" points="1655.9,2613.4 1601.5,3100.5 2231.7,3100.5 2149.6,2613.4 		"/>
		<linearGradient id="SVGID_3_" gradientUnits="userSpaceOnUse" x1="1880.9087" y1="1169.3856" x2="1827.3693" y2="2788.9409">
			<stop  offset="0" style="stop-color:#09005D"/>
			<stop  offset="1" style="stop-color:#1A0F91"/>
		</linearGradient>
		<path class="st5" d="M484.5,1424.4v1215.7c0,100,79.7,181.8,179.7,184.4c444,11.4,1997,39.2,2419.7,33
			c72.6-1.1,131.5-59.2,133.6-131.8c8.2-282.4,21.4-961.5-27.6-1276.8c-10.3-66.4-66.4-116-133.5-118.2
			c-372-11.9-2018.3-49.7-2440.8-40.2C542.7,1292,484.5,1351.5,484.5,1424.4z"/>
		<linearGradient id="SVGID_4_" gradientUnits="userSpaceOnUse" x1="2009.7902" y1="964.9586" x2="1609.3623" y2="3506.7976">
			<stop  offset="0" style="stop-color:#FDF53F"/>
			<stop  offset="1" style="stop-color:#D93C65"/>
		</linearGradient>
		<path class="st6" d="M560.8,1418.5v1155c0,58.4,46.9,106,105.3,106.8l2357,29.1c57.9,0.9,105.3-45.7,105.5-103.6l3.9-1144.6
			c0.2-41.4-32.8-75.3-74.2-76.3l-2413.1-48.8C599,1335,560.8,1372.2,560.8,1418.5z"/>
		<path class="st1" d="M3146.4,2756.5C3146.3,2756.5,3146.3,2756.5,3146.4,2756.5l-2585.6-44.1c-1.7,0-3.1-1.4-3-3.1
			c0-1.7,1.4-2.9,3.1-3l2585.5,44.1c1.7,0,3.1,1.4,3,3.1C3149.4,2755.2,3148,2756.5,3146.4,2756.5z"/>
		<linearGradient id="SVGID_5_" gradientUnits="userSpaceOnUse" x1="1952.7957" y1="1326.7489" x2="1552.3677" y2="3868.5881">
			<stop  offset="0" style="stop-color:#FF928E"/>
			<stop  offset="1" style="stop-color:#FE7062"/>
		</linearGradient>
		<path class="st7" d="M560.8,1418.5v1155c0,58.4,46.9,106,105.3,106.8l2357,29.1c57.9,0.9,105.3-45.7,105.5-103.6l3.9-1144.6
			c0.2-41.4-32.8-75.3-74.2-76.3l-2413.1-48.8C599,1335,560.8,1372.2,560.8,1418.5z"/>
		<g>
			<path class="st1" d="M1879.1,2810.3c-16.5,0-30-13.4-30-30c0-16.5,13.4-30,30-30c16.5,0,30,13.4,30,30
				C1909.1,2796.9,1895.6,2810.3,1879.1,2810.3z M1879.1,2756.5c-13.1,0-23.8,10.7-23.8,23.8c0,13.1,10.7,23.8,23.8,23.8
				c13.1,0,23.8-10.7,23.8-23.8C1902.9,2767.2,1892.2,2756.5,1879.1,2756.5z"/>
		</g>
		<linearGradient id="SVGID_6_" gradientUnits="userSpaceOnUse" x1="1936.8619" y1="2398.762" x2="1903.4009" y2="3241.9988">
			<stop  offset="0" style="stop-color:#09005D"/>
			<stop  offset="1" style="stop-color:#1A0F91"/>
		</linearGradient>
		<path class="st8" d="M2367.4,3200.2h-922.3c-25.1,0-43.9-17.8-39-37l11.8-46.8c3.6-14.1,19-24.4,37.4-25l889.1-27.7
			c19.2-0.6,36.2,9.6,40.4,24.2l21.3,74.5C2411.8,3181.8,2392.9,3200.2,2367.4,3200.2z"/>
		<path class="st1" d="M1941.6,3104.1c-1.7,0-3-1.3-3.1-3c0-1.7,1.3-3.1,3-3.1l38.1-0.6c1.7,0,3.1,1.3,3.1,3c0,1.7-1.3,3.1-3,3.1
			L1941.6,3104.1L1941.6,3104.1z"/>
		<path class="st1" d="M1440.3,3174.4c-0.2,0-0.3,0-0.5,0c-1.7-0.3-2.8-1.8-2.6-3.5l5.4-34c2.9-18.3,18.5-31.8,37.1-32.1l404.1-5.9
			c1.7,0.1,3.1,1.3,3.1,3c0,1.7-1.3,3.1-3,3.1l-404.1,5.9c-15.6,0.2-28.6,11.5-31.1,26.9l-5.4,34
			C1443.1,3173.4,1441.8,3174.4,1440.3,3174.4z"/>
	</g>
	<g>
		<path class="st9" d="M2568.3,2204.3h354.5c48.4,0,87,17.9,84.6,39.3l0.1,347.3c-2.2,20-34.7,52.7-79.9,52.7h-359.3
			c-46.8,0-84.7-16.8-84.7-37.5v-364.3C2483.6,2221.1,2521.5,2204.3,2568.3,2204.3z"/>
		<path class="st9" d="M1513.9,1530.6l1396.4,19.6c53.8,0.8,96.2,41.7,93.5,90.4l0.1,429.8c-2.5,45.9-67.7,82.7-118.4,82.7H1512.4
			c-52.5,0-95.1-38.6-95.1-86.2v-450C1417.3,1568.6,1460.8,1529.8,1513.9,1530.6z"/>
		<path class="st9" d="M1978.4,2204.3h380.5c30.7,0,55.7,17,55.7,38v369.5c0,21-24.9,38-55.7,38h-380.5c-30.7,0-55.7-17-55.7-38
			v-369.5C1922.7,2221.3,1947.6,2204.3,1978.4,2204.3z"/>
		<path class="st9" d="M791,1532h488.7c39.5,0,71.5,23.5,71.5,52.6v510.8c0,29-32,52.5-71.5,52.5H791c-39.5,0-71.5-23.5-71.5-52.5
			v-510.8C719.5,1555.5,751.5,1532,791,1532z"/>
		<path class="st9" d="M803.5,2200.1h602.3c48.7,0,88.1,17.2,88.1,38.4v373.4c0,21.2-39.4,38.4-88.1,38.4H803.5
			c-48.7,0-88.1-17.2-88.1-38.4v-373.4C715.4,2217.3,754.9,2200.1,803.5,2200.1z"/>
		<g class="st10">
			<path class="st2" d="M1168.4,2497.2c-1,7.4-1.7,14.9-2.3,22.4c-0.1,1.8,0.2,4.2,1.9,4.4c1,0.1,1.9-0.8,2.6-1.6
				c3-3.4,6.2-7.8,4.7-12.1c-0.5-1.6-1.7-3-2.1-4.6c-0.7-2.5,0.4-5.1,0.1-7.7c-0.3-2.6-3.3-5.1-5-3.2L1168.4,2497.2z"/>
			<path class="st2" d="M977.2,2252.2c-11.7-6.2-19-7-31.6-5.6c-11.9,1.3-19.9,7.3-28,15.8c-1.9,1.9-3.7,4-6.1,5.2
				c-10.1,4.6-22.8,3.7-33.1,8.3c-12.2,5.5-15.7,22.5-26.9,30c-6.5,4.3-14.6,4.9-21.7,8c-10.5,4.6-15.4,14.2-21.3,23.5
				c-3.7,5.7-17.2,15.5-16.4,22.2c0.1,1.2,0.7,2.4,1.3,3.4c3.7,6,9.3,6.6,15.2,8.4c7.8,2.3,12.4,5.7,19.3,10.6
				c7.2,5.1,16.9,9.5,17.5,18.4c0.3,4.2-1.7,8.1-2.6,12.1c-4.3,18.2,11.6,34.6,27,44.5c15.4,9.9,33.7,19.6,38.6,37.7
				c0.4,1.6,0.8,3.4,2,4.6c4.5,4.4,7.9-5.6,9.2-8.8c0.9-2.1,0.1-4.5-1.3-6.3c-1.4-1.7-3.2-3-4.9-4.4c-5.7-4.8-9.4-12-10-19.5
				c-0.1-1-0.1-2,0.4-2.8c2.7-4.1,9.3-5.7,12.6-10.6c4.7-7,5.7-13.7,6.5-22c2.9-30.6,30.8-19.8,48.3-33.4c3.3-2.5,5.7-6.5,6.3-10.6
				c0.3-2.2,0-4.5-1-6.6c-1.7-3.5-5.2-5.7-8.9-6.8c-3.7-1-7.5-0.9-11.3-0.9c-3.5,0.1-7,0.1-10.6,0.2c-1,0-2.1,0.1-3.1,0.5
				c-1.3,0.6-2.3,1.9-3,3.2c-2.4,4.3-3.5,9.2-3.3,14.1c-4.6,1.6-9.1-2.8-11.7-7.1c-2.9-5-5-10.5-6.2-16.3c-0.4-2.2-0.7-4.7,0.4-6.6
				c0.6-1.1,1.6-1.9,2.6-2.6c3.9-2.9,8.5-5.2,13.3-5.7c8.2-0.9,16.3,3.2,23,8.2c6.5,4.8,17.1,10.5,24.4,3.6c3.8-3.6,3.8-10,1.2-14.5
				c-4.3-7.3-15.1-11.2-22.2-14.9c-3.3-1.7-5.4-5.3-6.4-9c-0.9-3.7-0.9-7.6-0.8-11.5c9.8-4,21.3-3.2,30.5,2.1
				c1.3,0.8,2.7,1.8,2.9,3.3c0.2,1.6-1,2.9-2,4.1c-8.5,11.1-0.9,20,9.1,26.3c0.2-28.1,0.3-56.3,0.3-84.4
				C988.8,2257.7,982.9,2255.2,977.2,2252.2z"/>
			<path class="st2" d="M1065.7,2276c-1.4-1.8-4.1-1.4-6.3-1.4c-7.2,0-12.8-6.2-19.7-8.2c-3.6-1.1-7.4-0.9-11.2-1
				c-11.4-0.2-22.8-2.1-33.7-5.7c0,28.1-0.1,56.4-0.3,84.4c6.2,3.9,13.3,6.7,18.1,8.4c5,1.8,9.8,4.7,15.1,3.6c5-1,9.4-6.6,14.6-8
				c3.7-1,7.7-0.5,11.5-1.3c3.8-0.8,7.7-3.7,7.6-7.7c-0.1-3.2-2.9-5.7-5.6-7.3c0,0.3-4.8-3.6-5.2-4.4c-4.2-8.3,1.9-15.6,4.2-22.8
				c3.3-10.4-1.6-16.5,8.7-22.3C1065.5,2281.1,1067.3,2278,1065.7,2276z"/>
			<path class="st2" d="M926.8,2539.3c1.8,3.8,3.3,7.3,3.7,10.4c1.7,13.2-9.3,29.4-13.9,41.5c-1.3,3.3-2.6,6.9-2,10.5
				c0.2,1.5,0.8,2.9,1.4,4.3c4.2,10.3,12.6,19.7,20,27.6c2.5-6.8,2.3-23.2,1.6-30.5c-0.2-2.4-0.6-4.9,0.2-7.2
				c2.7-7.2,11.7-17.1,17.8-21.4c6-4.2,13.9-7.6,15.5-14.9c0.6-2.8,0.1-5.8,1-8.6c0.5-1.6,1.5-3.1,2.3-4.6c3.9-7.5,6.1-22-1.7-27.3
				c-8.7-6-21.1,2.8-28.6-6.9c-1.1-1.5-2-3.2-3.3-4.5c-2.4-2.4-6-3.2-9.4-2.7C909.3,2508.8,920.2,2525.5,926.8,2539.3z"/>
			<path class="st2" d="M1065.3,2430.3c7,4.6,19-5.5,23.4-17.3c0.6-1.5,1.1-3,2.1-4.2c2.1-2.4,5.6-2.7,8.7-2.3
				c3.1,0.4,6.2,1.5,9.3,1.1c4.4-0.6,8.1-4.1,10.2-8.2c2.1-4.1,2.8-8.8,3.5-13.4c3.3-0.8,6.8-0.5,9.9,0.9c2.4,1.1,4.8,3.5,4.1,6.1
				c-0.3,1.2-1.2,2.1-2,3c-2.6,2.8-5,5.8-7.3,8.9c-1.4,1.9-2.7,4.4-1.7,6.6c2.8,5.8,8,2.8,6.5,11.2c-1.9,10.5-15.6,14.7-7.8,27.2
				c2.9,4.6,8.1,7.3,13.4,7.6c3.8,0.2,8.4-1.8,8.5-5.8c0-1.2-0.4-2.4,0-3.5c0.5-1.4,2-2.1,3.5-2.4c4.7-0.7,9.3,1.7,13.6,3.7
				c1.3,0.6,2.9,1.2,4.1,0.4c4.1-2.4,2.2-4.4,7.7-4.9c4.7-0.5,10.2,3.3,12.9,7c0.6,0.9,1.2,2,0.8,3.1c-0.4,0.9-1.3,1.4-1.8,2.2
				c-0.8,1.4,0,3.2,1.3,4.1c1.3,0.9,2.9,1.1,4.4,1.4c7.1,1.5,7.3,8.5,12.3,12c4.1,2.8,14.4,3.4,13.5-4.8c-0.3-3-3.2-5.4-2.8-8.4
				c0.4-2.6,3.2-4,5.8-4.3c2.5-0.3,5.2-0.1,7.5-1.3c1.5-0.8,2.6-2.2,4-3.2c8.5-6.4,28.5-1,35,6.2c6.1,6.7,6.7,18.2,14.6,22.5
				c-0.9-8.9-5.2-17.3-11.8-23.1c-1.2-1.1-2.5-2.1-3.2-3.6c-0.5-1.3-0.5-2.7-0.4-4.1c0.3-7,1.7-13.6,3.5-20.1
				c-0.2,0.8,5-13.5,1.2-10.8c6.7-4.8,21.2-12.8,29.6-12.2c4.3,0.3,8.6,2.9,10.5,7c1.8,4.1,0.7,9.5-2.9,12.1
				c-3.4,2.4-8.2,2-11.7,4.3c-3.4,2.3-4.8,7.2-3.2,11c2.2-3.1,5.5-5.4,9.1-6.2c4.9-1.2,10.4,0.1,14.6-2.7c3.1-2.1,4.7-6,4.8-9.8
				c0-3.8-1.3-7.5-3.2-10.9c-1.3-2.4-2.9-4.7-3.6-7.4c-1.1-4.3,0.2-8.9,2.6-12.6c8.9-13.7,25.4-19.6,40.6-14.6
				c1,0.3,2.1,0.8,2.6,1.7c0.8,1.4,0,3.2,0.4,4.7c0.5,2.5,4.1,3.4,5.7,1.5c1.1-1.3,1-3.3,1.4-4.9c1.1-4.4,5.4-7.1,9.6-8.3
				c5.1-1.5,18.9-8.6,20.4,0.7c0.1,0.8,0.1,1.7,0.4,2.4c1,2.1,4.2,1.8,5.7,0.1c3.2-3.5,3.7-9.3,6.8-13.2c2.7-3.5,6.7-5.6,9-9.4
				c5.6-9.6,1.3-22.2-8.4-26.8c-9.4-4.5-20.3-2.5-30.4-0.6c-7,1.3-31,6.3-32.7-5.4c-0.1-1-0.1-2-0.6-2.8c-0.6-1.1-1.7-1.6-2.4-2.6
				c-0.9-1.2-0.9-2.9-1.4-4.3c-1.8-5.3-8.4-6.2-13.8-6.3c0.5-3.3,0.8-7.2-1.7-9.3c-1.4-1.1-3.4-1.3-5.2-1.3
				c-4.7-0.2-16,1.5-19.9-1.3c-5.2-3.8-1.6-10.2-3.9-15.4c-2.4-5.5-11.3-6.3-12.3-12.2c-0.2-1.3,0-2.6-0.1-3.9
				c-0.4-3.2-2.9-5.6-5.2-7.6c-4.2-3.8-9-7.8-14.6-7.6c-1,0.9-0.1,2.7,1.1,3.3c1.2,0.6,2.7,1,3.3,2.2c1.1,2.4-2.1,4.3-4.7,4.8
				c-0.1,3.5,3.2,5.8,5.9,8c4.4,3.7,7.5,9,8.7,14.7c-8.9,1.6-18,2-26.9,1.1c-10.8-1.1-17.8,16.7-30.6,11.8c-1.9-0.7-3.6-2-5.6-2.4
				c-5-1-9,3.9-13.5,6.4c-6.8,3.8-15.2,1.8-22.5-0.8c-8.7-3.1-19.4-7.5-28.2-2.2c-3.3,2-5.9,5.1-9.4,6.7c-7.3,3.4-15.6-0.8-23.6-1.6
				c-19.7-2-31.5,18-37.9,34.5c-1,2.5-1.8,5.2-1.7,7.9c0.1,2.7,1.5,5.5,3.8,6.6c3.5,1.7,7.6-1,10-4.2c2.3-3.2,3.7-7.2,6.5-9.9
				c2.8-2.8,8-3.6,10.2-0.4c1.1,1.6,1.1,3.7,1.1,5.7c0,3.8,0,7.5,0,11.3c0,2.1,0,4.2-0.8,6.1c-1.4,3.1-4.6,4.9-7.6,6.4
				c-6.5,3.3-13,6.5-19.5,9.8c-2.2,1.1-4.4,2.2-6.3,3.8c-8.5,7.4-2.8,17.7-9.4,24.9c-2.6,2.9-7,3.8-9.2,7c-1.6,2.4-1.6,5.6-1.5,8.5
				C1060.3,2423.8,1062.4,2428.4,1065.3,2430.3z"/>
			<path class="st2" d="M1292.3,2492.7c-2.6,4.9-2.3,11.4-8.2,14.1c-4,1.8-9,1-12.3,4c-3.7,3.4-2.7,9.5-2,14.5
				c0.1,0.9,0.2,1.9-0.1,2.7c-0.9,2.2-4.3,2.2-5.5,4.3c-1,1.8,0.2,4.1,1.7,5.5c4.5,4.3,11.9,4.8,17,1.3c1.4-0.9,2.8-2.2,4.4-1.8
				c1.8,0.5,2.5,2.8,3,4.7c1.1,4,3.2,7.9,6.5,10.3c10.5,7.5,25.3-1.6,36.9,9c1.4,1.3,2.8,2.8,3.2,4.8c0.5,2.1-0.2,4.5,0.9,6.2
				c1.4,2.2,4.9,1.9,6.8,0.1c1.9-1.8,2.7-4.5,3.5-7c0.8-2.5,1.8-5.2,4-6.6c3.7-2.4,7.9-1.5,9.9-6.3c2.5-6.2-5-11.3-2.6-17
				c1.1-2.5,2.8-5.3,1.7-7.8c-0.5-1.3-1.7-2.1-2.7-3.1c-4.5-4.6-5.3-9-11.2-11.9c-3.8-1.8-11.7,0.5-13.3-6.1c-0.4-1.7,0.2-3.9-1.1-5
				c-0.7-0.7-1.8-0.7-2.8-0.7c-6.7,0-14.7,0.1-18.5-5.6c-4.2-6.3-4.7-10.8-13.3-7.7C1295.2,2488.7,1293.5,2490.6,1292.3,2492.7z"/>
			<path class="st2" d="M1092.6,2458.1c-1.4,2-2.2,4.4-3.7,6.4c-4.1,5.5-5.9,0.6-10.6,2.5c-1.6,0.6-3,1.8-4.7,2.2
				c-3.4,0.8-6.8-1.5-10.3-1.6c-13.5-0.1-6.4,22.3,0.1,26.6c1.2,0.8,2.7,0.8,4.2,0.8c4.4,0,8.9-0.1,13.3-0.1c1.3,0,2.6,0,3.7,0.7
				c3.2,2.3,0.2,7.9,2.1,11.4c1.3,2.4,4.4,2.9,7,3.3c5.6,1,6.8,7.3,10.2,11.2c4.4,5,8.6,7,11,14.2c1.5,4.3,2,8.9,3.9,13
				c4,8.4,14.3,12.9,22.9,10c8.6-2.9,14.4-12.8,12.9-22c-0.9-5.4-3.9-10.1-6-15.1c-4.2-10.2-1.4-22.5,10.3-24.5
				c2.9-0.5,6.7-0.7,7.8-3.5c1.6-4.1-4.5-9-2-12.5c0.9-1.3,2.7-1.8,3.5-3.1c1.1-1.8-0.1-4.2-1.6-5.7c-1.5-1.5-3.4-2.8-4-4.8
				c-3.5-11.6-14.9-4.3-22.6-2.8c-6.8,1.4-10.7,0.5-16.4-2.9C1114.8,2456.5,1101.5,2445.3,1092.6,2458.1z"/>
			<path class="st2" d="M1121.6,2277.4c1-1.9,3.5-2.4,5.6-2.5c7.3-0.5,14.7,0,21.9,1.5c-6,4.9-12.6,10-20.2,9.7
				c-3.4-0.1-7-1.3-10.2-0.1c-0.8-2.3-0.3-5.1,1.1-7L1121.6,2277.4z"/>
			<path class="st2" d="M1036.9,2366.6c7.5,6.1,33.9-2,21.6-10c-2-1.3-4.4-1.7-6.7-2c-3.1-0.5-6.3-1-9.4-0.3s-6.1,2.7-7,5.8
				C1034.5,2363.1,1035.2,2365.2,1036.9,2366.6z"/>
			<path class="st2" d="M1362.8,2312.7c4.6,4.2,11.1,5.2,17.2,6.1c3,0.4,7,0.3,8.1-2.7c1.1-3.1-2.5-6.1-5.7-6.4
				c-3.2-0.4-6.6,0.5-9.6-0.8c-2.6-1.2-4.7-4-7.6-3.9c-3.3,0-5.4,5.1-3,7.5L1362.8,2312.7z"/>
		</g>
		<path class="st2" d="M2349.6,2100.2h-831.7c-22.4,0-40.6-18.2-40.6-40.6v-427.4c0-23.4,19.2-42.2,42.5-41.8l821.8,14.8
			c24.7,0.4,44.5,20.6,44.5,45.3v413.1C2386.1,2083.9,2369.8,2100.2,2349.6,2100.2z"/>
		<path class="st9" d="M2914.8,1863.6h-445.2c-5.9,0-10.7-4.8-10.7-10.7v-246.2c0-5.9,4.8-10.7,10.7-10.7h445.2
			c5.9,0,10.7,4.8,10.7,10.7V1853C2925.5,1858.9,2920.7,1863.6,2914.8,1863.6z"/>
		<path class="st9" d="M2917.1,2100.2h-445.2c-5.9,0-10.7-4.8-10.7-10.7v-185.5c0-5.9,4.8-10.7,10.7-10.7h445.2
			c5.9,0,10.7,4.8,10.7,10.7v185.5C2927.7,2095.4,2922.9,2100.2,2917.1,2100.2z"/>
	</g>
	<path class="st9" d="M1613.1,2251.5h207.5c9.1,0,16.5,7.4,16.5,16.5c0,9.1-7.4,16.5-16.5,16.5h-207.5c-9.1,0-16.5-7.4-16.5-16.5
		C1596.6,2258.9,1604,2251.5,1613.1,2251.5z"/>
	<path class="st9" d="M1613.1,2199.8h207.5c9.1,0,16.5,7.4,16.5,16.5c0,9.1-7.4,16.5-16.5,16.5h-207.5c-9.1,0-16.5-7.4-16.5-16.5
		C1596.6,2207.2,1604,2199.8,1613.1,2199.8z"/>
	<path class="st9" d="M1619.7,2571.9h207.5c9.1,0,16.5,7.4,16.5,16.5c0,9.1-7.4,16.5-16.5,16.5h-207.5c-9.1,0-16.5-7.4-16.5-16.5
		C1603.2,2579.3,1610.6,2571.9,1619.7,2571.9z"/>
	<path class="st9" d="M1613.1,2520.2h207.5c9.1,0,16.5,7.4,16.5,16.5c0,9.1-7.4,16.5-16.5,16.5h-207.5c-9.1,0-16.5-7.4-16.5-16.5
		C1596.6,2527.6,1604,2520.2,1613.1,2520.2z"/>
	<linearGradient id="SVGID_7_" gradientUnits="userSpaceOnUse" x1="1576.1198" y1="3192.0779" x2="1863.8916" y2="1331.5953">
		<stop  offset="0" style="stop-color:#FF928E"/>
		<stop  offset="1" style="stop-color:#FE7062"/>
	</linearGradient>
	<path class="st11" d="M3132.4,1491.3l0.1-30.1c0.2-41.4-32.9-75.3-74.3-76.3l-2415.9-48.8c-46.3-1.1-84.2,36.1-84.2,82.4v72.9
		H3132.4z"/>
	<g class="st12">
		<path class="st2" d="M728.6,1445.3c11.9,0.1,21.6-9.4,21.8-21.3c0.1-11.9-9.4-21.6-21.3-21.8c-11.9-0.1-21.6,9.4-21.8,21.3
			C707.2,1435.4,716.7,1445.2,728.6,1445.3z"/>
		<path class="st2" d="M791.7,1446.1c11.9,0.1,21.7-9.4,21.8-21.3c0.1-11.9-9.4-21.6-21.3-21.8c-11.9-0.1-21.6,9.4-21.8,21.3
			C770.3,1436.2,779.8,1445.9,791.7,1446.1z"/>
		<path class="st2" d="M854.8,1446.8c11.9,0.1,21.6-9.4,21.8-21.3c0.1-11.9-9.4-21.6-21.3-21.8c-11.9-0.1-21.6,9.4-21.8,21.3
			C833.4,1436.9,842.9,1446.7,854.8,1446.8z"/>
	</g>
	<g>
		<g>
			
				<ellipse transform="matrix(0.7071 -0.7071 0.7071 0.7071 -723.8475 1823.1805)" class="st1" cx="1838.8" cy="1785.4" rx="917.8" ry="917.8"/>
			<g>
				<linearGradient id="SVGID_8_" gradientUnits="userSpaceOnUse" x1="1318.0615" y1="2494.1921" x2="-563.3607" y2="4992.085">
					<stop  offset="0" style="stop-color:#4F52FF"/>
					<stop  offset="1" style="stop-color:#4042E2"/>
				</linearGradient>
				<circle class="st13" cx="1851.3" cy="1786.3" r="835.6"/>
				<path class="st2" d="M1851.3,2640.3c-228.1,0-442.6-88.8-603.9-250.1c-161.3-161.3-250.1-375.8-250.1-603.9
					s88.8-442.6,250.1-603.9c161.3-161.3,375.8-250.1,603.9-250.1s442.6,88.8,603.9,250.1c161.3,161.3,250.1,375.8,250.1,603.9
					s-88.8,442.6-250.1,603.9C2293.8,2551.4,2079.4,2640.3,1851.3,2640.3z M1851.3,969.1c-450.6,0-817.2,366.6-817.2,817.2
					s366.6,817.2,817.2,817.2s817.2-366.6,817.2-817.2S2301.9,969.1,1851.3,969.1z"/>
			</g>
			<g>
				<linearGradient id="SVGID_9_" gradientUnits="userSpaceOnUse" x1="2750.6362" y1="124.0547" x2="1251.54" y2="2894.7021">
					<stop  offset="0" style="stop-color:#4F52FF"/>
					<stop  offset="1" style="stop-color:#4042E2"/>
				</linearGradient>
				<circle class="st14" cx="1851.3" cy="1786.3" r="509.4"/>
				<path class="st2" d="M1851.3,2314.1c-291,0-527.8-236.8-527.8-527.8c0-291,236.8-527.8,527.8-527.8s527.8,236.8,527.8,527.8
					C2379.1,2077.3,2142.3,2314.1,1851.3,2314.1z M1851.3,1295.3c-270.7,0-491,220.3-491,491c0,270.7,220.3,491,491,491
					s491-220.3,491-491C2342.3,1515.5,2122,1295.3,1851.3,1295.3z"/>
			</g>
			<g>
				<linearGradient id="SVGID_10_" gradientUnits="userSpaceOnUse" x1="4052.7559" y1="-1136.5576" x2="2171.3384" y2="1361.3285">
					<stop  offset="0" style="stop-color:#4F52FF"/>
					<stop  offset="1" style="stop-color:#4042E2"/>
				</linearGradient>
				<circle class="st15" cx="1851.3" cy="1786.3" r="197.4"/>
				<path class="st2" d="M1851.3,2002c-119,0-215.8-96.8-215.8-215.8s96.8-215.8,215.8-215.8c119,0,215.8,96.8,215.8,215.8
					S1970.2,2002,1851.3,2002z M1851.3,1607.3c-98.7,0-179,80.3-179,179c0,98.7,80.3,179,179,179c98.7,0,179-80.3,179-179
					C2030.2,1687.6,1950,1607.3,1851.3,1607.3z"/>
			</g>
		</g>
		<g>
			
				<linearGradient id="SVGID_11_" gradientUnits="userSpaceOnUse" x1="89.211" y1="4087.1838" x2="-190.6429" y2="5224.0859" gradientTransform="matrix(-0.7071 -0.7071 0.7071 -0.7071 -1192.2574 4633.1733)">
				<stop  offset="0" style="stop-color:#09005D"/>
				<stop  offset="1" style="stop-color:#1A0F91"/>
			</linearGradient>
			<polygon class="st16" points="3010.9,642.7 3035.6,667.4 2098.9,1604.1 2074.2,1579.4 			"/>
			
				<linearGradient id="SVGID_12_" gradientUnits="userSpaceOnUse" x1="23937.6777" y1="-19719.9141" x2="22532.2773" y2="-18314.5117" gradientTransform="matrix(-0.7071 -0.7071 0.7071 -0.7071 -1192.2574 4633.1733)">
				<stop  offset="0" style="stop-color:#FF928E"/>
				<stop  offset="1" style="stop-color:#FE7062"/>
			</linearGradient>
			<path class="st17" d="M2091.7,1519.7c14.2-14.2,81.1,52.7,66.9,66.9l-248.1,195.1c-9.2,7.2-21-4.7-13.8-13.8L2091.7,1519.7z"/>
			
				<linearGradient id="SVGID_13_" gradientUnits="userSpaceOnUse" x1="24539.3535" y1="-19118.2129" x2="23133.9512" y2="-17712.8105" gradientTransform="matrix(-0.7071 -0.7071 0.7071 -0.7071 -1192.2574 4633.1733)">
				<stop  offset="0" style="stop-color:#FF928E"/>
				<stop  offset="1" style="stop-color:#FE7062"/>
			</linearGradient>
			<path class="st18" d="M3035.1,668l126,12.5l-173,173c-56.7,56.7-135.8,84.9-215.6,77l0,0L3035.1,668z"/>
			
				<linearGradient id="SVGID_14_" gradientUnits="userSpaceOnUse" x1="19171.1699" y1="-12721.585" x2="17765.7676" y2="-11316.1826" gradientTransform="matrix(0.7071 0.7071 0.7071 -0.7071 -1682.106 4143.3247)">
				<stop  offset="0" style="stop-color:#FF928E"/>
				<stop  offset="1" style="stop-color:#FE7062"/>
			</linearGradient>
			<path class="st19" d="M3010.3,643.2l-12.5-126l-173,173c-56.7,56.7-84.9,135.8-77,215.6l0,0L3010.3,643.2z"/>
		</g>
	</g>
	<g>
		<linearGradient id="SVGID_15_" gradientUnits="userSpaceOnUse" x1="1321.0419" y1="2984.665" x2="1738.0319" y2="3409.752">
			<stop  offset="0" style="stop-color:#4F52FF"/>
			<stop  offset="1" style="stop-color:#4042E2"/>
		</linearGradient>
		<path class="st20" d="M1468.7,3199.6c0-0.6,0-1.3,0.2-1.9c9.7-38.5,49.5-58.3,49.5-58.3l19.1,1.5c11,34,18.1,50.6,16.3,59.8
			c0,0.3-0.1,0.5-0.2,0.8C1537.8,3202.9,1505.4,3203.8,1468.7,3199.6z"/>
		<path class="st1" d="M1553.6,3201.5c-0.9,3.1-3.1,5.5-6.1,6.1c-22.4,4.7-58.1,0.9-73.1-1c-3.3-0.4-5.7-3.5-5.8-6.9
			C1505.4,3203.8,1537.8,3202.9,1553.6,3201.5z"/>
		
			<linearGradient id="SVGID_16_" gradientUnits="userSpaceOnUse" x1="3337.8792" y1="3070.7981" x2="3320.8315" y2="3219.5784" gradientTransform="matrix(1 0 0 1 -1811.8352 0)">
			<stop  offset="0" style="stop-color:#FEBBBA"/>
			<stop  offset="1" style="stop-color:#FF928E"/>
		</linearGradient>
		<path class="st21" d="M1502.6,3109.6l8.4,40.3c0.6,3,2.9,5.2,5.6,5.4c3.4,0.3,8.2,0.5,13-0.2c4.3-0.6,7.3-5,6.6-9.7l-5.8-35.8
			H1502.6z"/>
		<path class="st1" d="M1716.1,3201.1c-20.4-0.6-31-3-36.4-5.2c0,2,0,4.1,0.1,6.2c0.1,2.3,1.8,4.1,3.8,4.1l112.1-0.7
			c3.6,0,5.7-4.2,4.1-7.5C1785.1,3199.3,1747.7,3202,1716.1,3201.1z"/>
		<linearGradient id="SVGID_17_" gradientUnits="userSpaceOnUse" x1="1916.3314" y1="2998.6282" x2="1477.0751" y2="3439.9084">
			<stop  offset="0" style="stop-color:#4F52FF"/>
			<stop  offset="1" style="stop-color:#4042E2"/>
		</linearGradient>
		<path class="st22" d="M1799.8,3198.1c-0.1-0.3-0.3-0.6-0.4-0.8c-9.9-13.8-35.1-41.4-85-53.3l-23.9-0.8c0,0-10.6,18.5-10.8,52.8
			c5.5,2.2,16,4.6,36.4,5.2C1747.7,3202,1785.1,3199.3,1799.8,3198.1z"/>
		
			<linearGradient id="SVGID_18_" gradientUnits="userSpaceOnUse" x1="3517.4634" y1="3089.833" x2="3501.5166" y2="3229.0061" gradientTransform="matrix(1 0 0 1 -1811.8352 0)">
			<stop  offset="0" style="stop-color:#FEBBBA"/>
			<stop  offset="1" style="stop-color:#FF928E"/>
		</linearGradient>
		<path class="st23" d="M1686.1,3106.9c0.3,1.8,3.5,28.9,4.8,39.4c0.3,2.5,2.1,4.4,4.4,4.7c4.1,0.5,10.7,0.9,16.4-0.3
			c3.1-0.6,5.4-3.6,5.4-7.1v-42.5L1686.1,3106.9z"/>
		<linearGradient id="SVGID_19_" gradientUnits="userSpaceOnUse" x1="1131.8806" y1="3192.6919" x2="1972.6541" y2="2607.2634">
			<stop  offset="0" style="stop-color:#4F52FF"/>
			<stop  offset="1" style="stop-color:#4042E2"/>
		</linearGradient>
		<path class="st24" d="M1518.6,2580.3c0,0-38.3,340.1-17,552.7c0,0,25.5,0,38.3-4.3c0,0,39.8-332.5,52.6-427.7
			c0.5-3.6,5.6-3.8,6.3-0.2c15.9,80.1,78.2,394,85.6,423.6c0,0,21.3,8.5,38.3,0c0,0-34-454.9-59.5-535.7L1518.6,2580.3z"/>
		<linearGradient id="SVGID_20_" gradientUnits="userSpaceOnUse" x1="1258.0166" y1="2761.3259" x2="1652.8679" y2="2259.3953">
			<stop  offset="0" style="stop-color:#FF928E"/>
			<stop  offset="1" style="stop-color:#FE7062"/>
		</linearGradient>
		<path class="st25" d="M1442.1,2184.9c0,0,161.6-25.5,289.1,8.5l-8.5,131.8c0,0-34,182.8-59.5,263.6c0,0-97.8,17-144.5-8.5
			c0,0-38.3-229.6-59.5-263.6C1459.1,2316.7,1437.8,2227.4,1442.1,2184.9z"/>
		<linearGradient id="SVGID_21_" gradientUnits="userSpaceOnUse" x1="1538.193" y1="2127.6343" x2="1614.6403" y2="2127.6343">
			<stop  offset="0" style="stop-color:#FEBBBA"/>
			<stop  offset="1" style="stop-color:#FF928E"/>
		</linearGradient>
		<path class="st26" d="M1554.3,2068.8l-16.1,108.8c0,0,45,20.7,76.4-0.9l-6.8-76.8L1554.3,2068.8z"/>
		<linearGradient id="SVGID_22_" gradientUnits="userSpaceOnUse" x1="1064.8666" y1="2609.3809" x2="1459.7178" y2="2107.4507">
			<stop  offset="0" style="stop-color:#FF928E"/>
			<stop  offset="1" style="stop-color:#FE7062"/>
		</linearGradient>
		<path class="st27" d="M1514.8,2331.7c0,0-365-99.4-183.8-354.9l12.3,17.4c0,0-54.6,173.1,126.3,189.5
			C1469.6,2183.7,1516.4,2304.5,1514.8,2331.7z"/>
		<linearGradient id="SVGID_23_" gradientUnits="userSpaceOnUse" x1="1375.9401" y1="1900.5472" x2="1332.77" y2="2042.392">
			<stop  offset="0" style="stop-color:#FEBBBA"/>
			<stop  offset="1" style="stop-color:#FF928E"/>
		</linearGradient>
		<path class="st28" d="M1329.8,1978.1c0,0-4.1-49.3,20.6-53.4c24.7-4.1,32.9,20.6,37,32.9c4.1,12.3-37,37-45.2,37
			C1333.9,1994.6,1329.8,1978.1,1329.8,1978.1z"/>
		<linearGradient id="SVGID_24_" gradientUnits="userSpaceOnUse" x1="1297.6466" y1="2792.5005" x2="1692.4963" y2="2290.5718">
			<stop  offset="0" style="stop-color:#FF928E"/>
			<stop  offset="1" style="stop-color:#FE7062"/>
		</linearGradient>
		<path class="st29" d="M1646.5,2344.1c0,0,365-99.4,183.8-354.9l-12.3,17.4c0,0,54.6,173.1-126.3,189.5
			C1691.7,2196,1644.8,2316.9,1646.5,2344.1z"/>
		
			<linearGradient id="SVGID_25_" gradientUnits="userSpaceOnUse" x1="111.7286" y1="1912.8817" x2="68.5588" y2="2054.7258" gradientTransform="matrix(-1 0 0 1 1897.0294 0)">
			<stop  offset="0" style="stop-color:#FEBBBA"/>
			<stop  offset="1" style="stop-color:#FF928E"/>
		</linearGradient>
		<path class="st30" d="M1831.5,1990.5c0,0,4.1-49.3-20.6-53.4c-24.7-4.1-32.9,20.6-37,32.9c-4.1,12.3,37,37,45.2,37
			C1827.4,2006.9,1831.5,1990.5,1831.5,1990.5z"/>
		<g>
			
				<linearGradient id="SVGID_26_" gradientUnits="userSpaceOnUse" x1="-4535.7759" y1="-169.9151" x2="-4573.0293" y2="-292.7844" gradientTransform="matrix(0.746 -0.6659 0.6659 0.746 5126.3354 -803.1727)">
				<stop  offset="0" style="stop-color:#FEBBBA"/>
				<stop  offset="1" style="stop-color:#FF928E"/>
			</linearGradient>
			<path class="st31" d="M1610.4,2012.3c0,0,36,67.8,31.4,95.1c-4.6,27.4-49.2,25.4-88.2,3.2l-27.2-73.2L1610.4,2012.3z"/>
			
				<linearGradient id="SVGID_27_" gradientUnits="userSpaceOnUse" x1="-4569.3853" y1="-383.9966" x2="-4538.2236" y2="-206.2585" gradientTransform="matrix(0.746 -0.6659 0.6659 0.746 5126.3354 -803.1727)">
				<stop  offset="0" style="stop-color:#09005D"/>
				<stop  offset="1" style="stop-color:#1A0F91"/>
			</linearGradient>
			<path class="st32" d="M1555.3,2074.7c1.6-0.7,2.2-2.6,1.2-4.1c-2.9-4.4-8.3-13.4-10-21.3c0,0-6.5-4.1,16.5-9.6
				c22.9-5.5,57.2-14,64.3-33.5c7-19-11.4-66.9-40.8-28.8c-1.1,1.5-3.3,1.5-4.4,0c-4.8-6.3-17.5-19.3-35.1-11.4
				c-16.5,7.4-18.3,19.4-18.1,25.5c0.1,1.8-1.5,3.2-3.3,2.8c-8.3-1.6-28.3-2.9-37.6,17.5c-7.7,16.9-2.7,26.4,1.9,31.1
				c1.5,1.5,0.8,4-1.2,4.6c-5.5,1.7-12.5,6.3-11.8,19.1c1,17.7,20.8,16.1,26.4,15.3c0.9-0.1,1.9,0.2,2.5,0.9
				c4.8,5.3,26.6,28.1,50.2,30.8c2,0.2,3.6-1.8,3-3.7l-10.2-29.7c-0.5-1.4,0.2-2.9,1.5-3.5L1555.3,2074.7z"/>
			
				<linearGradient id="SVGID_28_" gradientUnits="userSpaceOnUse" x1="-4573.8579" y1="-170.4875" x2="-4607.375" y2="-281.0349" gradientTransform="matrix(0.746 -0.6659 0.6659 0.746 5126.3354 -803.1727)">
				<stop  offset="0" style="stop-color:#FEBBBA"/>
				<stop  offset="1" style="stop-color:#FF928E"/>
			</linearGradient>
			<path class="st33" d="M1559.4,2078.9c0,0-25.6-17.6-27.5-2.8c-1.9,14.8,23.1,21.4,35.4,15.9L1559.4,2078.9z"/>
		</g>
	</g>
</g>
</svg>
