<?xml version="1.0" encoding="utf-8"?>
<!-- Generator: Adobe Illustrator 25.0.0, SVG Export Plug-In . SVG Version: 6.00 Build 0)  -->
<svg version="1.1" id="OBJECTS" xmlns="http://www.w3.org/2000/svg" xmlns:xlink="http://www.w3.org/1999/xlink" x="0px" y="0px"
	 viewBox="0 0 500 500" style="enable-background:new 0 0 500 500;" xml:space="preserve">
<style type="text/css">
	.st0{fill:#F39C12;}
	.st1{fill:#FAF0DB;}
	.st2{fill:#27AE60;}
	.st3{fill:none;stroke:#9CD3C5;stroke-width:1.1464;stroke-miterlimit:10;}
	.st4{fill:none;stroke:#9CD3C5;stroke-width:1.1464;stroke-linecap:round;stroke-miterlimit:10;stroke-dasharray:4.6296,4.6296;}
	.st5{fill:#56998A;stroke:#9CD3C5;stroke-width:1.1464;stroke-miterlimit:10;}
	.st6{fill:none;stroke:#9CD3C5;stroke-miterlimit:10;}
	.st7{fill:#9CD3C5;}
	.st8{clip-path:url(#SVGID_2_);}
	.st9{fill:#BF6A5C;}
	.st10{fill:#A54A42;}
	.st11{fill:#212121;}
	.st12{fill:none;stroke:#A54A42;stroke-width:0.3183;stroke-linecap:round;stroke-miterlimit:10;}
	.st13{fill:#34495E;}
	.st14{fill:#577893;}
	.st15{fill:#FFFFFF;}
	.st16{fill:#5C7FC1;}
	.st17{fill:#8E44AD;}
	.st18{fill:none;stroke:#365B96;stroke-width:0.8014;stroke-miterlimit:10;}
	.st19{fill:none;stroke:#FDFEFE;stroke-width:0.8014;stroke-miterlimit:10;}
	.st20{fill:#BF6A5C;stroke:#A54A42;stroke-linecap:round;stroke-miterlimit:10;}
	.st21{fill:#BD504D;}
	.st22{fill:#E59A23;}
	.st23{fill:#EBAE3D;}
</style>
<g>
	<path class="st0" d="M106.9,42.3C207.4-19.1,459.6-0.2,448.2,232.6S241.5,512,186.1,432.7S39.9,372.3,14.7,262.8
		C-10.6,153.3,57.3,72.5,106.9,42.3z"/>
	<g>
		<g>
			<g>
				<path class="st1" d="M177.5,38.3c0,3-2.4,5.4-5.4,5.4c-3,0-5.4-2.4-5.4-5.4c0-3,2.4-5.4,5.4-5.4C175,32.9,177.5,35.3,177.5,38.3
					z"/>
				<path class="st1" d="M204.6,38.3c0,3-2.4,5.4-5.4,5.4c-3,0-5.4-2.4-5.4-5.4c0-3,2.4-5.4,5.4-5.4
					C202.1,32.9,204.6,35.3,204.6,38.3z"/>
				<path class="st1" d="M231.7,38.3c0,3-2.4,5.4-5.4,5.4c-3,0-5.4-2.4-5.4-5.4c0-3,2.4-5.4,5.4-5.4
					C229.2,32.9,231.7,35.3,231.7,38.3z"/>
				<path class="st1" d="M258.8,38.3c0,3-2.4,5.4-5.4,5.4s-5.4-2.4-5.4-5.4c0-3,2.4-5.4,5.4-5.4S258.8,35.3,258.8,38.3z"/>
			</g>
			<g>
				<circle class="st1" cx="198.3" cy="57.6" r="5.4"/>
				<path class="st1" d="M230.9,57.6c0,3-2.4,5.4-5.4,5.4c-3,0-5.4-2.4-5.4-5.4c0-3,2.4-5.4,5.4-5.4
					C228.4,52.2,230.9,54.6,230.9,57.6z"/>
				<path class="st1" d="M258,57.6c0,3-2.4,5.4-5.4,5.4c-3,0-5.4-2.4-5.4-5.4c0-3,2.4-5.4,5.4-5.4C255.5,52.2,258,54.6,258,57.6z"/>
				<path class="st1" d="M285.1,57.6c0,3-2.4,5.4-5.4,5.4c-3,0-5.4-2.4-5.4-5.4c0-3,2.4-5.4,5.4-5.4
					C282.6,52.2,285.1,54.6,285.1,57.6z"/>
			</g>
		</g>
		<g>
			<g>
				<path class="st1" d="M32.1,216.4c0,3-2.4,5.4-5.4,5.4s-5.4-2.4-5.4-5.4c0-3,2.4-5.4,5.4-5.4S32.1,213.4,32.1,216.4z"/>
				<circle class="st1" cx="53.8" cy="216.4" r="5.4"/>
				<path class="st1" d="M86.3,216.4c0,3-2.4,5.4-5.4,5.4c-3,0-5.4-2.4-5.4-5.4c0-3,2.4-5.4,5.4-5.4
					C83.9,210.9,86.3,213.4,86.3,216.4z"/>
				<path class="st1" d="M113.4,216.4c0,3-2.4,5.4-5.4,5.4c-3,0-5.4-2.4-5.4-5.4c0-3,2.4-5.4,5.4-5.4
					C111,210.9,113.4,213.4,113.4,216.4z"/>
			</g>
			<g>
				<path class="st1" d="M58.4,235.7c0,3-2.4,5.4-5.4,5.4c-3,0-5.4-2.4-5.4-5.4c0-3,2.4-5.4,5.4-5.4C56,230.3,58.4,232.7,58.4,235.7
					z"/>
				<path class="st1" d="M85.5,235.7c0,3-2.4,5.4-5.4,5.4s-5.4-2.4-5.4-5.4c0-3,2.4-5.4,5.4-5.4S85.5,232.7,85.5,235.7z"/>
				<path class="st1" d="M112.6,235.7c0,3-2.4,5.4-5.4,5.4c-3,0-5.4-2.4-5.4-5.4c0-3,2.4-5.4,5.4-5.4
					C110.2,230.3,112.6,232.7,112.6,235.7z"/>
				<path class="st1" d="M139.7,235.7c0,3-2.4,5.4-5.4,5.4c-3,0-5.4-2.4-5.4-5.4c0-3,2.4-5.4,5.4-5.4
					C137.3,230.3,139.7,232.7,139.7,235.7z"/>
			</g>
		</g>
		<g>
			<g>
				<path class="st1" d="M335.7,186.6c0,3-2.4,5.4-5.4,5.4c-3,0-5.4-2.4-5.4-5.4c0-3,2.4-5.4,5.4-5.4
					C333.2,181.2,335.7,183.6,335.7,186.6z"/>
				<path class="st1" d="M362.8,186.6c0,3-2.4,5.4-5.4,5.4c-3,0-5.4-2.4-5.4-5.4c0-3,2.4-5.4,5.4-5.4
					C360.3,181.2,362.8,183.6,362.8,186.6z"/>
				<path class="st1" d="M389.9,186.6c0,3-2.4,5.4-5.4,5.4s-5.4-2.4-5.4-5.4c0-3,2.4-5.4,5.4-5.4S389.9,183.6,389.9,186.6z"/>
				<path class="st1" d="M417,186.6c0,3-2.4,5.4-5.4,5.4c-3,0-5.4-2.4-5.4-5.4c0-3,2.4-5.4,5.4-5.4C414.5,181.2,417,183.6,417,186.6
					z"/>
			</g>
			<g>
				<path class="st1" d="M362,205.9c0,3-2.4,5.4-5.4,5.4c-3,0-5.4-2.4-5.4-5.4s2.4-5.4,5.4-5.4C359.5,200.5,362,202.9,362,205.9z"/>
				<path class="st1" d="M389.1,205.9c0,3-2.4,5.4-5.4,5.4c-3,0-5.4-2.4-5.4-5.4s2.4-5.4,5.4-5.4
					C386.6,200.5,389.1,202.9,389.1,205.9z"/>
				<path class="st1" d="M416.2,205.9c0,3-2.4,5.4-5.4,5.4s-5.4-2.4-5.4-5.4s2.4-5.4,5.4-5.4S416.2,202.9,416.2,205.9z"/>
				<path class="st1" d="M443.3,205.9c0,3-2.4,5.4-5.4,5.4s-5.4-2.4-5.4-5.4s2.4-5.4,5.4-5.4S443.3,202.9,443.3,205.9z"/>
			</g>
		</g>
		<g>
			<g>
				<path class="st1" d="M222.6,398.6c0,3-2.4,5.4-5.4,5.4s-5.4-2.4-5.4-5.4c0-3,2.4-5.4,5.4-5.4S222.6,395.6,222.6,398.6z"/>
				<path class="st1" d="M249.7,398.6c0,3-2.4,5.4-5.4,5.4s-5.4-2.4-5.4-5.4c0-3,2.4-5.4,5.4-5.4S249.7,395.6,249.7,398.6z"/>
				<path class="st1" d="M276.8,398.6c0,3-2.4,5.4-5.4,5.4c-3,0-5.4-2.4-5.4-5.4c0-3,2.4-5.4,5.4-5.4
					C274.4,393.2,276.8,395.6,276.8,398.6z"/>
				<path class="st1" d="M303.9,398.6c0,3-2.4,5.4-5.4,5.4c-3,0-5.4-2.4-5.4-5.4c0-3,2.4-5.4,5.4-5.4
					C301.5,393.2,303.9,395.6,303.9,398.6z"/>
			</g>
			<g>
				<path class="st1" d="M248.9,417.9c0,3-2.4,5.4-5.4,5.4s-5.4-2.4-5.4-5.4c0-3,2.4-5.4,5.4-5.4S248.9,414.9,248.9,417.9z"/>
				<path class="st1" d="M276,417.9c0,3-2.4,5.4-5.4,5.4c-3,0-5.4-2.4-5.4-5.4c0-3,2.4-5.4,5.4-5.4C273.6,412.5,276,414.9,276,417.9
					z"/>
				<path class="st1" d="M303.1,417.9c0,3-2.4,5.4-5.4,5.4c-3,0-5.4-2.4-5.4-5.4c0-3,2.4-5.4,5.4-5.4
					C300.7,412.5,303.1,414.9,303.1,417.9z"/>
				<path class="st1" d="M330.2,417.9c0,3-2.4,5.4-5.4,5.4c-3,0-5.4-2.4-5.4-5.4c0-3,2.4-5.4,5.4-5.4
					C327.8,412.5,330.2,414.9,330.2,417.9z"/>
			</g>
		</g>
	</g>
	<path class="st0" d="M82.2,389.3c24.2-20.2,99.3,31.4,58.9,52.4S51.2,415.1,82.2,389.3z"/>
</g>
<g>
	<g>
		<path class="st1" d="M387,338.2H77.3c-7.3,0-13.2-5.9-13.2-13.2V94.7c0-7.3,5.9-13.2,13.2-13.2H387c7.3,0,13.2,5.9,13.2,13.2
			v230.4C400.2,332.3,394.3,338.2,387,338.2z"/>
		<path class="st2" d="M376.7,326.6H87.6c-6.7,0-12.1-5.4-12.1-12.1V105.2c0-6.7,5.4-12.1,12.1-12.1h289.1c6.7,0,12.1,5.4,12.1,12.1
			v209.3C388.8,321.2,383.4,326.6,376.7,326.6z"/>
	</g>
	<g>
		
			<ellipse transform="matrix(0.231 -0.973 0.973 0.231 -62.4686 270.2804)" class="st3" cx="139.7" cy="174.7" rx="46.3" ry="46.3"/>
		<g>
			<ellipse class="st4" cx="139.7" cy="174.7" rx="46.3" ry="14.2"/>
		</g>
		<ellipse class="st3" cx="139.7" cy="174.7" rx="26.2" ry="46.3"/>
		<ellipse class="st5" cx="139.7" cy="130.3" rx="11.4" ry="1.9"/>
		<ellipse class="st5" cx="139.7" cy="219" rx="11.4" ry="1.9"/>
	</g>
	<g>
		<g>
			<line class="st6" x1="223.1" y1="214.3" x2="233.9" y2="203.5"/>
			<g>
				<path class="st6" d="M226.8,205.3c0,1.5-0.9,2.7-1.9,2.7c-1,0-1.9-1.2-1.9-2.7c0-1.5,0.9-2.7,1.9-2.7
					C226,202.6,226.8,203.8,226.8,205.3z"/>
				<path class="st6" d="M234.1,212.5c0,1.5-0.9,2.7-1.9,2.7c-1,0-1.9-1.2-1.9-2.7c0-1.5,0.9-2.7,1.9-2.7
					C233.2,209.9,234.1,211.1,234.1,212.5z"/>
			</g>
		</g>
		<g>
			<line class="st6" x1="356.3" y1="146.2" x2="367.6" y2="146.2"/>
			<line class="st6" x1="362" y1="140.5" x2="362" y2="151.8"/>
		</g>
		<g>
			<line class="st6" x1="103.5" y1="110.2" x2="111.5" y2="102.2"/>
			<line class="st6" x1="103.5" y1="102.2" x2="111.5" y2="110.2"/>
		</g>
		<circle class="st3" cx="246.3" cy="130.3" r="7.9"/>
		<polygon class="st3" points="281.2,254.1 250.8,271.6 281.2,271.6 		"/>
		<g>
			<circle class="st7" cx="149.1" cy="267" r="4"/>
			<path class="st7" d="M149.1,301.6c0,3.2-2.6,5.9-5.9,5.9c-3.2,0-5.9-2.6-5.9-5.9c0-3.2,2.6-5.9,5.9-5.9
				C146.4,295.8,149.1,298.4,149.1,301.6z"/>
			<path class="st7" d="M121.5,279.4c0,3.2-2.6,5.9-5.9,5.9c-3.2,0-5.9-2.6-5.9-5.9c0-3.2,2.6-5.9,5.9-5.9
				C118.9,273.5,121.5,276.2,121.5,279.4z"/>
			<polygon class="st3" points="116.8,279.4 149.1,267 144.2,301.6 			"/>
		</g>
	</g>
</g>
<g>
	<defs>
		<rect id="SVGID_1_" width="500" height="500"/>
	</defs>
	<clipPath id="SVGID_2_">
		<use xlink:href="#SVGID_1_"  style="overflow:visible;"/>
	</clipPath>
	<g class="st8">
		<g>
			<g>
				<polygon class="st9" points="203.4,243.7 217.4,259.3 202.3,279 193.3,253.9 				"/>
				<g>
					<path class="st10" d="M194.7,252.8l9.5-8l-36.7-27.1l-3.3,26.2l12.9,1.5C177.1,245.2,185.5,253,194.7,252.8z"/>
					<path class="st9" d="M182.5,241.9c0,0-3.3,0.9-5.4,3.4c0,0,4.3,7.7,16.2,8.7l10.9-9.2L182.5,241.9z"/>
					<path class="st11" d="M134.9,166l55.6,92.1c0.9,1.4,0.4,3.3-1,4.1l0,0c-1.5,0.9-3.5,0.4-4.4-1.2l-52.3-93.9
						c-0.3-0.5-0.1-1.2,0.3-1.5l0,0C133.8,165.3,134.6,165.4,134.9,166z"/>
					<g>
						<path class="st9" d="M159.3,241.5c0,0-4.9,5.9-0.3,7.5c4.7,1.6,14.8,0.1,16-1.3c1.1-1.4-0.5-4.5-4.9-4.9
							C165.6,242.3,159.3,241.5,159.3,241.5z"/>
						<path class="st9" d="M163.5,244.4c-6.5-1.9-8.3-4.4-8.3-5.7c0-1.3,1.8-3.4,3-2.8c1.2,0.6,12.8,3.7,13.2,5
							c0.4,1.3,1,2.2-0.2,3.7C170.1,246.1,163.5,244.4,163.5,244.4z"/>
						<path class="st9" d="M162.9,231.3c-4.2-2.2-5.6-2.8-6.8-1.9s-1.9,2.4-1.2,4.2c0.7,1.8,12.5,6.6,14.7,6.6
							c2.2,0.1,4.5-3,1.8-4.9C168.6,233.4,162.9,231.3,162.9,231.3z"/>
						<path class="st9" d="M165.5,224.6c-3-1.8-5.4-3.5-6.5-2.9c-1.1,0.5-4.6,2.3-2.9,5.5c1.6,3.3,11.1,7.1,14.1,7.7
							c3,0.6,5.1-3.4,2.6-5.6C170.3,227,165.5,224.6,165.5,224.6z"/>
						<path class="st12" d="M160.3,221.8c-0.5-0.2-1-0.2-1.3,0c-1.1,0.5-4.6,2.3-2.9,5.5c1.6,3.3,11.1,7.1,14.1,7.7
							c3,0.6,5.1-3.4,2.6-5.6"/>
						<path class="st12" d="M154.9,233.6c0.7,1.8,12.5,6.6,14.7,6.6c1.2,0,2.4-0.8,2.8-1.9"/>
						<path class="st12" d="M171.7,241.5c0.3,1,0.5,1.8-0.4,3.1c-1.1,1.5-7.8-0.1-7.8-0.1c-6.5-1.9-8.3-4.4-8.3-5.7
							c0-0.5,0.3-1.2,0.8-1.8"/>
						<path class="st12" d="M157.5,244.4c-0.7,1.7-0.9,3.7,1.5,4.5c4.7,1.6,14.8,0.1,16-1.3c0.7-0.9,0.3-2.4-1.1-3.5"/>
					</g>
					<path class="st9" d="M204.3,244.7c0,0-18-24.6-22-25c-4-0.4-12.1-3.2-14.8-2.1c-2.7,1.1-8.1,10-8.1,10s0.9,2.9,5.9,2.2
						s5-2.8,5-2.8l6.6,2c0,0-1.7,8.1,5.6,12.9L204.3,244.7z"/>
					<path class="st12" d="M183.4,242c0,0-7.2-1.9-6.4-13l-6.6-2c0,0-5.2,6.7-10.9,0.6c0,0,5.8-9.3,8.1-10"/>
				</g>
			</g>
			<g>
				<path class="st13" d="M249,307.3l22.8,17.5l8.3,6.3c9.1-11.3,16.9-20.5,23.5-30.1c10.5-15.2,18.1-31.1,22.7-57.3
					c2-11.2-5-22.1-16.1-24.9c-4.6-1.2-9.3-0.8-13.4,0.9c-4.5,1.8-8.4,5-11,9.5l-26.6,56.4l-5.4,11.5L249,307.3z"/>
				<path class="st13" d="M259.3,285.5l12.8,9c0,0-8.8-9.4-7.3-20.6L259.3,285.5z"/>
				<path class="st13" d="M191.9,262c8.1,24.2,22,44.9,36.9,58.7c13.1,12.2,26.9,19,38.1,18.3c5.2-0.4,9.9-2.4,13.6-6.3l-4.3-15.7
					l-1.6-5.7l-5-17.9l-60.1-45.2L191.9,262z"/>
			</g>
			<path class="st14" d="M228.8,320.7c13.1,12.2,26.9,19,38.1,18.3c5.2-0.4,9.9-2.4,13.6-6.3c9.1-11.3,16.9-20.5,23.5-30.1l-3-45.2
				c0,0-12.4,33.5-26.4,53.8C264.6,325.7,253,331.1,228.8,320.7z"/>
			<g>
				<g>
					<path class="st15" d="M304.3,216l-4.5-2.5c-4.5-5.2-3.3-13.3,2.7-16.8l9.3-5.5l8.6,19.3L304.3,216z"/>
					<g>
						<g>
							<path class="st15" d="M310.9,618c0.7,13.1,9,18.2,9.4,28.6c0.5,11.5-14.7,11.3-33.6,11.7c-18.9,0.5-48.5,1.2-48.5,1.2
								s-2.4-10.5,11-11.2c0,0,9.9-8.1,31.6-17.6c0,0,4.8-2.6,5.2-18.6L310.9,618z"/>
							<path class="st16" d="M238.2,659.5l88.1,2.5c0,0,0.9-22-12.3-31.8l-26.1,0.6l-8-7L269.6,636
								C269.6,636,234.9,640.3,238.2,659.5z"/>
						</g>
						<g>
							<path class="st17" d="M342.1,432.6c-0.4,0.1-0.8,0.1-1.2,0.1l-55.6,1.3l4.7-52l1.1-16.1l67.9,0.6l17.8-2.1l4,15.2
								C387.7,405.6,368.8,431.2,342.1,432.6z"/>
						</g>
						<polygon class="st17" points="290,382 271,615.8 328,618.5 335.9,408.3 						"/>
						<g>
							<path class="st15" d="M394.7,615.3c0.7,13.1,7.6,27.4,8,37.7c0.5,11.5-14.7,11.3-33.6,11.7c-18.9,0.5-48.5,1.2-48.5,1.2
								s-2.4-10.5,11-11.2c0,0,9.9-8.1,31.6-17.6c0,0,4.8-2.6,5.2-18.6L394.7,615.3z"/>
							<path class="st16" d="M320.7,665.9l88.1,2.5c0,0,3.4-22.8-9.8-32.6l-28.6,1.4l-8-7l-10.4,12.2
								C352.1,642.4,317.4,646.7,320.7,665.9z"/>
						</g>
						<path class="st17" d="M381.2,381.3c0,0,24.7,212.4,24,240h-56.7L330.9,425L381.2,381.3z"/>
						<line class="st18" x1="377.9" y1="371.5" x2="291.3" y2="373.5"/>
						<polyline class="st18" points="365.8,384.5 346.7,382.4 344.3,373.2 						"/>
						<path class="st18" d="M310.3,373.2c0,0,0.5,11-1.3,11.3c-1.8,0.3-16.1,1.9-16.1,1.9"/>
						<path class="st16" d="M376.6,603.2c-14.5-0.4-25.7-0.2-31.5-0.1c-2.4,0-4.2,2.1-4.1,4.4l0.6,9.8c0.1,2.2,2,3.9,4.2,3.9h61.7
							c2.3,0,4.2-1.9,4.2-4.2v-9.7c0-2.3-1.9-4.2-4.2-4.2H376.6z"/>
						<path class="st16" d="M298.5,603.2c-13.3-0.3-23.9-0.2-30-0.1c-3.2,0.1-5.7,2.8-5.5,6l0.4,7c0.2,2.9,2.6,5.2,5.6,5.2h59
							c3.1,0,5.6-2.5,5.6-5.6v-6.8c0-3.1-2.5-5.6-5.6-5.6H298.5z"/>
						<polyline class="st19" points="320.7,384.5 323.1,418.9 332.9,434.2 333.9,462 						"/>
						<line class="st19" x1="329.8" y1="396.9" x2="332.9" y2="434.2"/>
					</g>
					<polygon class="st15" points="378.8,363.4 382.2,378 327.3,387.9 322.5,367.6 314.7,387.9 285.3,379.8 287.8,364.4 					"/>
					<polygon class="st9" points="292.4,180.9 295.9,186.8 306.6,205.2 313,216.1 340.5,211 320.9,132.8 					"/>
					<path class="st9" d="M323.9,188.5c0,0-23.4,6.6-31.4,8c-8.6,1.4-17.3-4.5-18.4-13.3c-1.6-12-2.4-24.1,2.3-37.2
						c2.8-7.8,8-14.1,14.7-18.3c3-1.9,6.2-3.4,9.7-4.3l0,0l2-0.5l0.2-0.1c1-0.2,2-0.4,3-0.5c2.4-0.3,4.8-0.4,7.2-0.2
						c2.3,0.2,4.6,0.7,6.6,1.6c8.5,3.7,13.8,13,11.8,22.7l-1.7,8.4L323.9,188.5z"/>
					<path class="st10" d="M278.2,141.8c0,0,9.4,2.5,14.5-4.6c0,0,7.5,3.6,12.5-0.5c0,0,1.1,9.2,10.4,10.7
						c9.4,1.5,0.8-19.9,0.8-19.9l-27.5-0.6l-8.8,10.3L278.2,141.8z"/>
					<path class="st11" d="M276.9,156.6c-0.1,3.1,1.1,5.7,2.5,5.7c1.4,0,2.6-2.5,2.7-5.6c0.1-3.1-1.1-5.7-2.5-5.7
						C278.2,150.9,277,153.5,276.9,156.6z"/>
					<path class="st10" d="M295.9,186.8l9.7,16.6c19.7-7.6,14.5-29.6,14.5-29.6L295.9,186.8z"/>
					<path class="st11" d="M315.6,147.3c0,0-11.2-3.6-7.7-15.4c0,0-6.9,8-15.4,2.2c0,0-11.7,14.3-19.6,0.3c-7.9-14,9.3-22.8,18.9-21
						c0,0,3.2-12.7,16.7-4.5c0,0,13.9-7.5,17.2,8.5c0,0,21.7-2.5,15.6,20.4c0,0,7.9,3.3,7.5,11.1c-0.4,9.4-9.9,15.8-9.9,15.8
						L315.6,147.3z"/>
					<path class="st9" d="M315.6,164.9c18.3-36.6,45.2,6.4,6.6,10.8L315.6,164.9z"/>
					<path class="st13" d="M291.4,339.9l66.7-3.3l1.9,0.2l0.9-0.1l16.1,1.6c0,0-0.5-22.4,0.8-55.3c0.6-14.7,3.4-30.5-0.5-46.7
						c-10.1-42.4-43.7-44.3-41.7-42.3l-36.1,25.1c-1.5,5.1-6.4,15.1-8.7,26.7c-0.2,0.9-0.4,1.8-0.5,2.7c-0.5,3-0.8,6.1-0.7,9.3
						c0,0.9,0,1.8,0.1,2.7c0.1,1.3,0.2,2.7,0.4,4.1c1.3,8,5,15.9,12.8,22.9L303,288l0,0.1L291.4,339.9z"/>
					<polygon class="st15" points="316.4,207.5 310.7,229.4 304.3,216 					"/>
					<path class="st13" d="M283.6,370.9l103.4-2.4c0.7-19.9-16.8-109.7-21.6-130.1l-47.9,37.3l-27.2-11L283.6,370.9z"/>
					<path class="st13" d="M285.3,341.5c0,0-0.5,3.4-5.2,7.2c-4.7,3.8-7.8,20.5,3.5,22.1c11.3,1.6,105.3-0.7,110.3-3.1
						c5-2.4,3.2-14.5-2.7-18.5c-5.9-4-6.5-12.7-6.5-12.7L285.3,341.5z"/>
					<path class="st13" d="M364.6,205.3c30.1,14.1,33,27.1,41.8,100.4l-38.1-3.6c0,0-33-51.3-35.7-76.5
						C332.2,220.6,333,190.5,364.6,205.3z"/>
					<polygon class="st11" points="315.9,145.4 313.2,167 317.2,166.7 323.7,153.3 					"/>
					<path class="st11" d="M315.2,164.8c0,0-7.9,9.2-16.1,10.8c-10.1,2-19.2-6.4-26.2-6c-2.5,7.1-2.7,26.2,15.7,29
						c12.9,2,28.1-10,32-17.8c3.9-7.8,1.4-12.2,3.2-27.4L315.2,164.8z"/>
					<path class="st20" d="M290,147.2c-3.1,6.2-6.8,10-10.2,13.2c-5.3,5.1-0.9,14,6.4,13.1l2-0.3"/>
					<path class="st15" d="M293.4,179.3l-6.2-1.2C288.2,191.3,293.4,179.3,293.4,179.3z"/>
					<path class="st11" d="M295.6,159.6c-0.1,3.1,1.1,5.7,2.5,5.7c1.4,0,2.6-2.5,2.7-5.6c0.1-3.1-1.1-5.7-2.5-5.7
						C296.8,154,295.6,156.5,295.6,159.6z"/>
					<path class="st11" d="M303,145.4c-6.1-2.6-7.9,0.5-3.5,3.2C304.2,151.6,310.6,148.7,303,145.4z"/>
					<path class="st11" d="M281,142.6c-6.6-1.1-7.5,2.3-2.6,4C283.6,148.3,289.2,144,281,142.6z"/>
					<path class="st15" d="M313.1,216.1l-1.5-8.2c-1.5-8.2,3.1-16.4,11-19.2l12.8-4.6l2.6,11.2L313.1,216.1z"/>
					<path class="st14" d="M393.9,367.8c-5,2.4-99,4.7-110.3,3.1c-10.7-1.5-8.5-16.7-4.2-21.4c5.5,7.2,18.6,13.5,47.9,12.2
						c39.8-1.7,55-9.6,60.9-15.4c0.8,1.1,1.8,2.2,3,3C397.1,353.2,398.9,365.4,393.9,367.8z"/>
					<path class="st10" d="M332.2,168.7c-0.2,0.1-0.4,0.1-0.6,0.1c-1.5,0.1-2.6-1.2-3-2.6c-0.1-0.2,0.1-0.5,0.3-0.6
						c0.2-0.1,0.5,0.1,0.6,0.3c0.3,1,1.1,2,2,1.9c0.5,0,1-0.4,1.3-0.7c1-1,1.3-2.5,1.6-3.9c0.2-1.2,0.5-2.4,0.4-3.7
						c-0.1-0.9-0.3-2.2-1.2-3.2c-0.5-0.5-1.3-1.1-2.1-0.8c-0.6,0.2-0.9,0.7-0.9,1.3c0,0.3-0.2,0.5-0.5,0.5c-0.3,0-0.5-0.2-0.5-0.5
						c0-1,0.6-1.9,1.6-2.2c1-0.3,2.2,0.1,3.1,1.1c1.1,1.2,1.4,2.7,1.4,3.8c0.1,1.4-0.2,2.7-0.4,3.9c-0.3,1.5-0.7,3.1-1.9,4.3
						C333.1,168.2,332.7,168.5,332.2,168.7z"/>
				</g>
			</g>
			<path class="st21" d="M299.3,293.7c0,0,41.1,1.1,48.9,8.3c7.8,7.2,18.9-12.8,18.9-12.8l23.7-27.2l-85.3,17.7L299.3,293.7z"/>
			<g>
				<g>
					<path class="st15" d="M331.5,220.9c-8.3-11.1-43.8-1.4-43.8-1.4l-3.8,4.6L331.5,220.9z"/>
					<path class="st15" d="M333.2,221.2c-2.7-11.1,27.7-26.5,27.7-26.5l8.7,2.3L333.2,221.2z"/>
					<g>
						<polygon class="st22" points="325.2,220.7 283.4,222.8 281.6,224.6 326.8,225.7 						"/>
						<polygon class="st22" points="325.2,220.7 336.6,218.4 337.8,220.9 325.3,223.2 						"/>
						<polygon class="st22" points="369.9,194.1 336.6,218.4 337.2,220.9 372.6,194.5 						"/>
					</g>
					<polygon class="st23" points="325.3,223.2 281.6,224.6 299.3,293.7 343.9,290.7 					"/>
					<polygon class="st22" points="355,290 343.9,290.7 332.5,249.3 331.2,244.4 330,240.1 328.5,234.8 325.3,223.2 337.2,220.9 
						340.1,232 341.6,238 342.5,241.2 344.1,247.5 					"/>
					<polygon class="st15" points="341.6,238 330,240.1 328.5,234.8 340.1,232 					"/>
					<polygon class="st15" points="344.1,247.5 332.5,249.3 331.2,244.4 342.5,241.2 					"/>
					<polygon class="st23" points="372.3,194.6 337.2,220.9 355,290 390.9,262 					"/>
					<path class="st22" d="M363.4,260.9c0.5-3.4-3.5-5.7-6.2-3.6c-3.1,2.4-6.3,5.6-11.9,2.1c-8.2-5.1-13.5-8.1-17.2-6.8
						c-19.8,7.1-8.9,39.8-8.9,39.8l40.4-2.4L363.4,260.9z"/>
					<polygon class="st15" points="301.2,284.5 336.9,281.4 337.6,284.6 301.9,287.7 					"/>
					<polygon class="st15" points="346.6,231.5 371.4,215.2 373.7,224.3 348.9,240.5 					"/>
				</g>
				<g>
					<path class="st9" d="M359.1,287l1.2-14.2l-1.1-10c-0.2-1.7-1.8-2.8-3.4-2.3l0,0c-1.1,0.3-1.8,1.3-1.9,2.5l-0.2,7.4l-1.7,6.2
						L359.1,287z"/>
					<path class="st9" d="M359.1,287l-4.3-11l-31.6,10.3c6,6.6,16.1,7.9,22.5,11.4l3,1.6L359.1,287z"/>
					<g>
						<path class="st9" d="M354.8,276l-7.1,6l-0.3-0.5l-4.8-7.9l0,0l-3.4-7.8l-8.9-7.7c-0.6-0.5-0.8-1.3-0.6-2.1l0,0
							c0.4-1.2,1.9-1.8,2.9-1.1l11.1,7.1l8.6,10.9L354.8,276z"/>
					</g>
					<g>
						<path class="st9" d="M348.9,279.7l-1.5,1.8l-4.5,5.3l-2-2.4l-4.2-5.2l-0.2-0.3l-0.8-1l-5.5-8.2l-6.1-9.1
							c-0.5-0.7-0.5-1.6,0-2.3l0.1-0.1c0.7-1.1,2.2-1.2,3.1-0.3l8.2,8.3l6.5,6.5l0.8,0.7l3.6,3.5L348.9,279.7z"/>
					</g>
					<path class="st9" d="M333,291.1l-9.8-4.8l-4.3-7.1c-0.6-1-0.4-2.2,0.5-3c0.6-0.5,1.4-0.6,2.1-0.4c0.4,0.1,0.8,0.4,1.2,0.8
						l3.8,5l4.6,2.6l-5.4-5.8l-5-9.4c-0.4-0.7-0.3-1.6,0.2-2.3c0.4-0.5,1.1-0.8,1.7-0.7c0.5,0,1,0.3,1.4,0.7l5.8,6.8l13,8.3
						L333,291.1z"/>
					<path class="st10" d="M324,266.8l5.8,6.8l-4.1,4.9l-5-9.4c-0.4-0.7-0.3-1.6,0.2-2.3l0,0C321.7,265.8,323.2,265.8,324,266.8z"/>
					<path class="st10" d="M324,258.3c0.7-1.1,2.2-1.2,3.1-0.3l8.2,8.3l-5.3,3.4l-6.1-9.1C323.5,260,323.5,259.1,324,258.3
						L324,258.3z"/>
					<path class="st10" d="M343.8,262.1l-4.6,3.7l-8.9-7.7c-0.6-0.5-0.8-1.3-0.6-2.1l0,0c0.4-1.2,1.9-1.8,2.9-1.1L343.8,262.1z"/>
					<path class="st10" d="M326.4,281.6l-3.2,4.6l-4.3-7.1c-0.6-1-0.4-2.2,0.5-3c0.6-0.5,1.4-0.6,2.1-0.4c0.4,0.1,0.8,0.4,1.2,0.8
						L326.4,281.6z"/>
				</g>
				<polygon class="st9" points="359.1,287 362.7,290.2 354.1,303.8 348.7,299.2 				"/>
			</g>
			<path class="st13" d="M406.4,305.8c3.4,40.2-44.3,45.5-58.1-3.8l13-15.3L406.4,305.8z"/>
			<line class="st14" x1="361.3" y1="286.7" x2="397.9" y2="302.2"/>
			<path class="st14" d="M348.3,302c13.8,49.3,61.5,44,58.1,3.8l-0.4-3.2c-6.5,25-39.6,28.7-54.3-4.7L348.3,302z"/>
		</g>
	</g>
</g>
</svg>
