<?xml version="1.0" encoding="utf-8"?>
<!-- Generator: Adobe Illustrator 25.0.0, SVG Export Plug-In . SVG Version: 6.00 Build 0)  -->
<svg version="1.1" id="OBJECTS" xmlns="http://www.w3.org/2000/svg" xmlns:xlink="http://www.w3.org/1999/xlink" x="0px" y="0px"
	 viewBox="0 0 500 500" style="enable-background:new 0 0 500 500;" xml:space="preserve">
<style type="text/css">
	.st0{fill:#FFE6F8;}
	.st1{fill:#F8B3FF;}
	.st2{fill:#B375DB;}
	.st3{fill:#FFFFFF;}
	.st4{fill:#213059;}
	.st5{fill:#2178BF;}
	.st6{fill:#255C99;}
	.st7{fill:#F5BC54;}
	.st8{fill:#EA8475;}
	.st9{fill:#FF4D4D;}
	.st10{fill:#FFDDBB;}
	.st11{fill:none;stroke:#213059;stroke-width:0.25;stroke-linecap:round;stroke-linejoin:round;stroke-miterlimit:10;}
</style>
<g>
	<g>
		<g>
			<path class="st0" d="M375.8,179.6c-23,6.1-51.3,15.9-94.7-10.2c-37.7-22.6-90-90.6-176.9-57.9c-87,32.7-99,169.4-62.6,223.8
				c63.3,94.6,190.2,94,304.8,64.4s133-67.6,135.8-120.7C484.9,226.5,442.5,161.9,375.8,179.6z"/>
		</g>
		<g>
			<path class="st0" d="M60.1,439.5h304.5c15.9,0,31.5-4.3,45.2-12.4l35.4-21c4.9-2.9,2.8-10.4-2.9-10.4H119.5
				c-0.9,0-1.9,0.2-2.7,0.7L57.4,429C52.4,431.8,54.3,439.5,60.1,439.5z"/>
		</g>
	</g>
	<g>
		<g>
			
				<ellipse transform="matrix(0.9427 -0.3337 0.3337 0.9427 -57.1655 167.9884)" class="st1" cx="460.4" cy="250.4" rx="25.3" ry="12.9"/>
			<path class="st2" d="M412.1,263.8c-0.2,0-0.4-0.1-0.5-0.4c-0.1-0.3,0.1-0.5,0.3-0.6l61.4-17c0.3-0.1,0.5,0.1,0.6,0.3
				c0.1,0.3-0.1,0.5-0.3,0.6l-61.4,17C412.2,263.8,412.2,263.8,412.1,263.8z"/>
		</g>
		<g>
			
				<ellipse transform="matrix(0.2389 -0.971 0.971 0.2389 157.4367 517.8542)" class="st1" cx="409.1" cy="158.5" rx="30.2" ry="15.5"/>
			<path class="st2" d="M400.1,216.3C400.1,216.3,400.1,216.3,400.1,216.3c-0.4-0.1-0.5-0.3-0.5-0.6l11.2-68.4
				c0-0.3,0.3-0.5,0.6-0.4c0.3,0,0.5,0.3,0.4,0.6l-11.2,68.4C400.6,216.2,400.3,216.3,400.1,216.3z"/>
		</g>
		<g>
			<path class="st1" d="M380.2,279c0,0,31.3-1,60.8-44.8c15.7-23.3,19.1-45.1,10.8-50.9c-10.1-7-36.8,4.1-55.4,29.9
				C372.6,246.5,380.2,279,380.2,279z"/>
			<path class="st2" d="M370.3,333.8C370.2,333.8,370.2,333.8,370.3,333.8c-0.4-0.1-0.5-0.3-0.5-0.6l10-54.4
				c0.2-0.5,13.7-39.5,62.2-86c0.2-0.2,0.5-0.2,0.7,0c0.2,0.2,0.2,0.5,0,0.7c-48.2,46.3-61.8,85.1-61.9,85.5l-10,54.3
				C370.7,333.7,370.5,333.8,370.3,333.8z"/>
		</g>
		<g>
			
				<ellipse transform="matrix(0.9609 -0.2768 0.2768 0.9609 -89.5283 26.1699)" class="st1" cx="47.9" cy="330.3" rx="14.9" ry="57.5"/>
			<path class="st2" d="M76.9,420.7c-0.2,0-0.4-0.1-0.5-0.4C63,377.6,35.9,297.5,35.6,296.7c-0.1-0.3,0.1-0.5,0.3-0.6
				c0.3-0.1,0.5,0.1,0.6,0.3c0.3,0.8,27.4,80.8,40.8,123.7c0.1,0.3-0.1,0.5-0.3,0.6C77,420.7,77,420.7,76.9,420.7z"/>
		</g>
		<g>
			
				<ellipse transform="matrix(0.7642 -0.6449 0.6449 0.7642 -240.3082 114.2299)" class="st1" cx="36.1" cy="385.8" rx="19.8" ry="37.2"/>
			<path class="st2" d="M69.9,421.8c-0.1,0-0.3-0.1-0.4-0.2l-38.9-43c-0.2-0.2-0.2-0.5,0-0.7c0.2-0.2,0.5-0.2,0.7,0l38.9,43
				c0.2,0.2,0.2,0.5,0,0.7C70.1,421.7,70,421.8,69.9,421.8z"/>
		</g>
		<g>
			
				<ellipse transform="matrix(0.501 -0.8654 0.8654 0.501 -52.5431 547.8459)" class="st1" cx="448.8" cy="319.5" rx="42" ry="12.3"/>
			<path class="st2" d="M410.9,383.6c-0.1,0-0.2,0-0.3-0.1c-0.2-0.1-0.3-0.5-0.2-0.7l49.1-81.3c0.1-0.2,0.5-0.3,0.7-0.2
				c0.2,0.1,0.3,0.5,0.2,0.7l-49.1,81.3C411.2,383.5,411.1,383.6,410.9,383.6z"/>
		</g>
		<g>
			
				<ellipse transform="matrix(0.8054 -0.5928 0.5928 0.8054 -122.883 336.4096)" class="st1" cx="450.9" cy="355.3" rx="26.6" ry="14"/>
			<path class="st2" d="M418.9,381.1c-0.1,0-0.3-0.1-0.4-0.2c-0.2-0.2-0.1-0.5,0.1-0.7l43.8-33.7c0.2-0.2,0.5-0.1,0.7,0.1
				c0.2,0.2,0.1,0.5-0.1,0.7L419.2,381C419.1,381,419,381.1,418.9,381.1z"/>
		</g>
	</g>
</g>
<g>
	<g>
		<g>
			<path class="st2" d="M426.9,351.5L426.9,351.5c0-1.9-1.5-3.4-3.4-3.4H230L74.7,381.8c-4.1,0.9-7,4.5-7,8.7v22.7
				c0,4.9,4,8.9,8.9,8.9h237.6c2.8,0,5.6-0.5,8.2-1.5l102.3-40.1c1.4-0.5,2.2-1.8,2.2-3.3l0,0c0-1.9-1.6-3.5-3.5-3.5h-0.7v-18.2
				l1.9-0.6C425.9,354.3,426.9,353,426.9,351.5z"/>
		</g>
		<g>
			<path class="st3" d="M322.1,389.6c-2.2,0.8-3.7,2.8-3.7,5.2v10.8c0,3.8,3.8,6.5,7.4,5.1l96.9-35.6v-19.7L322.1,389.6z"/>
		</g>
		<g>
			<path class="st1" d="M422.7,375.6c-0.3,0-0.5-0.2-0.5-0.5v-18.2c0-0.3,0.2-0.5,0.5-0.5c0.3,0,0.5,0.2,0.5,0.5v18.2
				C423.2,375.4,422.9,375.6,422.7,375.6z"/>
		</g>
		<g>
			<path class="st1" d="M331,404.1c-0.3,0-0.6-0.2-0.7-0.5c-0.1-0.4,0.1-0.8,0.5-1l81.1-29c0.4-0.1,0.8,0.1,1,0.5
				c0.1,0.4-0.1,0.8-0.5,1l-81.1,29C331.2,404.1,331.1,404.1,331,404.1z"/>
		</g>
		<g>
			<path class="st1" d="M348.1,391.1c-0.3,0-0.6-0.2-0.7-0.5c-0.1-0.4,0.1-0.8,0.5-1l73.7-25.2c0.4-0.1,0.8,0.1,1,0.5
				c0.1,0.4-0.1,0.8-0.5,1l-73.7,25.2C348.2,391.1,348.2,391.1,348.1,391.1z"/>
		</g>
		<g>
			<path class="st4" d="M74.7,381.8c-4.1,0.9-7,4.5-7,8.7v22.7c0,4.9,4,8.9,8.9,8.9h237.6c0.1,0,0.2,0,0.3,0c-4-0.2-7.2-3.5-7.2-7.5
				v-18.9c0-3.2,2-6,5-7l113.7-39.5c0,0,0,0,0,0c-0.3-0.3-0.7-0.6-1.1-0.8c0,0,0,0,0,0c-0.2-0.1-0.4-0.1-0.6-0.2c0,0-0.1,0-0.1,0
				c-0.2,0-0.5-0.1-0.7-0.1H230L74.7,381.8z"/>
		</g>
	</g>
	<g>
		<g>
			<path class="st5" d="M430.4,306.8L430.4,306.8c0-1.9-1.6-3.5-3.5-3.5H230L72.8,329.9c-6.2,1-10.7,6.4-10.7,12.6v30.3
				c0,7.1,5.7,12.8,12.8,12.8h232.3c5.4,0,10.8-0.9,15.9-2.6L428,347.7c1.4-0.5,2.4-1.8,2.4-3.3v-0.7c0-1.9-1.6-3.5-3.5-3.5h0v-29.8
				l0.9-0.2C429.3,309.8,430.4,308.4,430.4,306.8z"/>
		</g>
		<g>
			<path class="st3" d="M426.9,310.4L322.7,337c-4.3,1.1-7.3,4.9-7.3,9.4v17.6c0,6.5,6.4,11.2,12.6,9.2l98.8-31.8V310.4L426.9,310.4
				z"/>
		</g>
		<g>
			<path class="st1" d="M426.9,341.9c-0.3,0-0.5-0.2-0.5-0.5v-30.2c0-0.3,0.2-0.5,0.5-0.5s0.5,0.2,0.5,0.5v30.2
				C427.4,341.6,427.2,341.9,426.9,341.9z"/>
		</g>
		<g>
			<path class="st1" d="M332.4,363.4c-0.3,0-0.6-0.2-0.7-0.5c-0.1-0.4,0.1-0.8,0.5-0.9l94-28.2c0.4-0.1,0.8,0.1,0.9,0.5
				c0.1,0.4-0.1,0.8-0.5,0.9l-94,28.2C332.5,363.4,332.5,363.4,332.4,363.4z"/>
		</g>
		<g>
			<path class="st1" d="M354.2,348.5c-0.3,0-0.6-0.2-0.7-0.5c-0.1-0.4,0.1-0.8,0.5-0.9l72.2-20.1c0.4-0.1,0.8,0.1,0.9,0.5
				c0.1,0.4-0.1,0.8-0.5,0.9l-72.2,20.1C354.3,348.4,354.2,348.5,354.2,348.5z"/>
		</g>
		<g>
			<path class="st1" d="M332,344.1c-0.3,0-0.6-0.2-0.7-0.5c-0.1-0.4,0.1-0.8,0.5-0.9l84.8-23.5c0.4-0.1,0.8,0.1,0.9,0.5
				c0.1,0.4-0.1,0.8-0.5,0.9L332.2,344C332.2,344.1,332.1,344.1,332,344.1z"/>
		</g>
		<g>
			<path class="st6" d="M314.1,385.1c-3.7-1.2-6.4-4.7-6.4-8.9v-32.7c0-4.2,2.8-7.9,6.9-9l114.2-30.7c-0.6-0.4-1.3-0.6-2-0.6H230
				L72.8,329.9c-6.2,1-10.7,6.4-10.7,12.6v30.3c0,7.1,5.7,12.8,12.8,12.8h232.3C309.6,385.6,311.8,385.4,314.1,385.1z"/>
		</g>
	</g>
	<g>
		<g>
			<path class="st7" d="M427.5,280.8l1-0.2c1-0.2,1.8-1,1.9-2c0.1-1.3-0.9-2.4-2.2-2.4h-192L86.9,298.5c-8.2,1.2-14.2,8.2-14.2,16.5
				v0c0,9.2,7.5,16.7,16.7,16.7h224.4c1.1,0,2.1-0.1,3.2-0.4l111.3-28c1.2-0.3,2.1-1.4,2.1-2.7l0,0c0-1.5-1.2-2.7-2.7-2.7h-0.1
				V280.8z"/>
		</g>
		<g>
			<path class="st8" d="M85.9,298.7c-7.6,1.6-13.2,8.4-13.2,16.3v0c0,9.2,7.5,16.7,16.7,16.7h220v-24.6c0-4.7-3.8-8.4-8.4-8.4H85.9z
				"/>
		</g>
		<g>
			<path class="st3" d="M323.7,302.6c-4.8,1-8.3,5.3-8.3,10.2c0,6.7,6.3,11.7,12.9,10.1l99.2-24.3v-17.8L323.7,302.6z"/>
		</g>
		<g>
			<path class="st1" d="M427.5,299.1c-0.3,0-0.5-0.2-0.5-0.5v-17.2c0-0.3,0.2-0.5,0.5-0.5s0.5,0.2,0.5,0.5v17.2
				C428,298.8,427.8,299.1,427.5,299.1z"/>
		</g>
		<g>
			<path class="st1" d="M341.4,314c-0.3,0-0.6-0.2-0.7-0.6c-0.1-0.4,0.2-0.8,0.6-0.9l85.4-19.8c0.4-0.1,0.8,0.2,0.9,0.6
				c0.1,0.4-0.2,0.8-0.6,0.9L341.6,314C341.5,314,341.5,314,341.4,314z"/>
		</g>
		<g>
			<path class="st1" d="M358.7,303.1c-0.3,0-0.7-0.2-0.7-0.6c-0.1-0.4,0.2-0.8,0.6-0.9l67.8-15.1c0.4-0.1,0.8,0.2,0.9,0.6
				c0.1,0.4-0.2,0.8-0.6,0.9l-67.8,15.1C358.8,303.1,358.8,303.1,358.7,303.1z"/>
		</g>
		<g>
			<path class="st8" d="M370.1,281.7c0,1.5-4,2.8-8.9,2.8s-8.9-1.2-8.9-2.8c0-1.5,4-2.8,8.9-2.8S370.1,280.2,370.1,281.7z"/>
		</g>
	</g>
	<g>
		<g>
			<path class="st7" d="M151.6,118.8l-8.7-9c-0.4-0.4-1-0.2-1.2,0.3l-8.5,24.2c-15.4,2.2-15,16.9-15,16.9h29.2
				c1.2-15.1,15.5-16.9,15.5-16.9l5.5-23.8c0.1-0.6-0.5-1.1-1-0.8L151.6,118.8z"/>
		</g>
		<g>
			<path class="st8" d="M156.2,135.3h-23c-0.6,0-1-0.4-1-1c0-0.6,0.4-1,1-1h23c0.6,0,1,0.4,1,1C157.2,134.9,156.8,135.3,156.2,135.3
				z"/>
		</g>
		<g>
			<path class="st4" d="M118.2,151.2h29.2c0.2-2.7,0.8-4.9,1.7-6.8h-29.6C118.1,148,118.2,151.2,118.2,151.2z"/>
		</g>
		<g>
			<path class="st9" d="M314.5,162.1l-20.1,0c1-6.2,1.5-9.7,1.5-9.7c0.4-2.6-1.6-4.9-4.2-4.9H110.1c-11.8,0-21.9,8.7-23.6,20.3
				L51.1,406.4c-2.1,14.4,9,27.3,23.6,27.3h201.4c3.1,0,5.8-2.3,6.3-5.4l38.4-259C321.4,165.5,318.4,162.1,314.5,162.1z"/>
		</g>
		<g>
			<g>
				<path class="st3" d="M255,403.3H76.5c-6.3,0-11.4,5.1-11.4,11.4s5.1,11.4,11.4,11.4h196.2l37.7-253.4l-9.8-10.7h0l-5.3-5.8l0,0
					l-36.1,243.4C258.9,401.8,257.1,403.3,255,403.3z"/>
			</g>
			<g>
				<path class="st1" d="M300.6,162.1L300.6,162.1l-5.3-5.8l-36.1,243.4c-0.2,1.3-0.9,2.4-2,3l15.5,23.5l37.7-253.4L300.6,162.1z"/>
			</g>
			<g>
				<path class="st2" d="M262.8,411.8c0,0-0.1,0-0.1,0c-0.4-0.1-0.7-0.4-0.6-0.9l12.1-82.1c0.1-0.4,0.4-0.7,0.9-0.6
					c0.4,0.1,0.7,0.4,0.6,0.9l-12.1,82.1C263.5,411.6,263.2,411.8,262.8,411.8z"/>
			</g>
			<g>
				<path class="st1" d="M262.8,411.8H103.3c-0.4,0-0.8-0.3-0.8-0.8c0-0.4,0.3-0.8,0.8-0.8h159.6c0.4,0,0.8,0.3,0.8,0.8
					C263.6,411.5,263.3,411.8,262.8,411.8z"/>
			</g>
			<g>
				<path class="st1" d="M192.2,421h-107c-0.4,0-0.8-0.3-0.8-0.8s0.3-0.8,0.8-0.8h107c0.4,0,0.8,0.3,0.8,0.8S192.6,421,192.2,421z"
					/>
			</g>
			<g>
				<path class="st1" d="M250,421h-43.9c-0.4,0-0.8-0.3-0.8-0.8s0.3-0.8,0.8-0.8H250c0.4,0,0.8,0.3,0.8,0.8S250.4,421,250,421z"/>
			</g>
			<g>
				<path class="st2" d="M268.8,420.9c0,0-0.1,0-0.1,0c-0.4-0.1-0.7-0.4-0.6-0.9l19.8-133.1c0.1-0.4,0.4-0.7,0.9-0.6
					c0.4,0.1,0.7,0.4,0.6,0.9l-19.8,133.1C269.5,420.6,269.2,420.9,268.8,420.9z"/>
			</g>
			<g>
				<path class="st2" d="M272.1,426.3c-0.3,0-0.6-0.2-0.8-0.5l-14-21.6c-0.3-0.5-0.2-1.1,0.3-1.4c0.5-0.3,1.1-0.2,1.4,0.3l14,21.6
					c0.3,0.5,0.2,1.1-0.3,1.4C272.5,426.2,272.3,426.3,272.1,426.3z"/>
			</g>
			<g>
				<path class="st4" d="M255,404.3H76.5c-0.6,0-1-0.4-1-1c0-0.6,0.4-1,1-1H255c1.6,0,3-1.2,3.2-2.8l36.1-243.4
					c0.1-0.5,0.6-0.9,1.1-0.8c0.5,0.1,0.9,0.6,0.8,1.1l-36.1,243.4C259.8,402.4,257.6,404.3,255,404.3z"/>
			</g>
		</g>
	</g>
</g>
<g>
	<g>
		<path class="st6" d="M245.9,237.2c0,0,11-33.6,31.6-54.1l-9.3-2.1c0,0-22.1,26.8-32,56.9C236.2,238,241,241.8,245.9,237.2z"/>
	</g>
	<g>
		<g>
			<path class="st4" d="M360.6,396.5l1.3,14.9c0,0,10.8,10.4,17.5,6.6c6.7-3.8,10.9-11.5,10.9-11.5l-17.9-18.3L360.6,396.5z"/>
		</g>
		<g>
			<path class="st6" d="M397.8,379.8c0,0-5.2,18.5-21.7,18C376.1,397.8,380.6,373.9,397.8,379.8z"/>
		</g>
		<g>
			<path class="st4" d="M392.2,378l5.6,9.4l13.1,12.9l-12.6,14.2l-12.7-12.8l-9.5-9.3C376.1,392.3,379.4,375.7,392.2,378z"/>
		</g>
		<g>
			<path class="st7" d="M393.6,409.7c0,0,1.3-1.1,2.1-3.2l-1.6-1.5c0,0,3.7-9.6,14.2-8.9l5.1,4.9l8.9,4.7l11.7,0.8
				c3.4,0.2,6.5,2.3,8,5.3l0,0c0.7,1.4,0.8,3,0.3,4.4c-0.8,2.6-3,6.5-8.4,10.2c-7.4,5.1-19.4,3.3-19.4,3.3l-16.3-8.7L393.6,409.7z"
				/>
		</g>
		<g>
			<path class="st8" d="M395.7,406.5l4.9,7c0.2,0.4-0.2,0.8-0.5,0.5l-6.4-4.3L395.7,406.5z"/>
		</g>
		<g>
			<path class="st4" d="M332.2,225c0,0-10.2,20-38.1,27.3c-20.6,5.3-32.9-6.1-32.9-6.1S312,212.3,332.2,225z"/>
		</g>
		<g>
			<path class="st5" d="M363.5,321L347,261.4c-1.4-5-3.6-9.7-6.6-13.9l-17.5-24.3l-49.6,17.2c0,0-3.9,21.3,11,36.9l51.7,67.8
				l18.6,59c0,0,5.4,4.1,15.9-6.4c1.1-1.1,2.3-2.1,3.4-3l2.3,3c0,0,3.8-1.2,7.3-8.9c3.5-7.7,8.6-10.6,14.3-9.1L363.5,321z"/>
		</g>
		<g>
			<path class="st6" d="M326.7,228.6l-3.8-5.3l-49.6,17.2c0,0-1.3,6.9,0.4,15.7c2.8-0.3,16-2,27.9-13.2
				C312.7,232.7,319.7,229.1,326.7,228.6z"/>
		</g>
		<g>
			<path class="st6" d="M366.9,327.2c-0.2,0-0.3-0.1-0.4-0.2l-38.5-66c-0.1-0.2-0.1-0.5,0.1-0.6l3.4-2.8c0.2-0.2,0.5-0.1,0.7,0.1
				c0.2,0.2,0.1,0.5-0.1,0.7l-3.1,2.5l38.2,65.6c0.1,0.2,0.1,0.5-0.2,0.7C367,327.2,366.9,327.2,366.9,327.2z"/>
		</g>
		<g>
			<path class="st4" d="M381.1,393.6c-0.2,0-0.3-0.1-0.4-0.2c-0.8-1.1-78.8-107.5-90.2-122.8c-11.5-15.4-12.1-31.9-12.1-32.1
				c0-0.3,0.2-0.5,0.5-0.5c0,0,0,0,0,0c0.3,0,0.5,0.2,0.5,0.5c0,0.2,0.6,16.4,11.9,31.5c11.4,15.3,89.4,121.7,90.2,122.8
				c0.2,0.2,0.1,0.5-0.1,0.7C381.3,393.6,381.2,393.6,381.1,393.6z"/>
		</g>
		<g>
			<path class="st4" d="M283.6,258c-0.2,0-0.3-0.1-0.4-0.2c-0.2-0.2-0.1-0.5,0.1-0.7c0.4-0.3,10.8-7.2,4.6-21.6
				c-0.1-0.3,0-0.5,0.3-0.7c0.3-0.1,0.5,0,0.7,0.3c6.5,15.2-4.9,22.8-5,22.9C283.8,258,283.7,258,283.6,258z"/>
		</g>
		<g>
			<path class="st6" d="M335.3,344.3L335.3,344.3l0.7,0.9l18.6,59c0,0,5.4,4.1,15.9-6.4c1.1-1.1,2.3-2.1,3.4-3L335.3,344.3z"/>
		</g>
		<g>
			<path class="st4" d="M376.1,398.3c-0.2,0-0.3-0.1-0.4-0.2l-40.8-53.5c-0.2-0.2-0.1-0.5,0.1-0.7c0.2-0.2,0.5-0.1,0.7,0.1
				l40.8,53.5c0.2,0.2,0.1,0.5-0.1,0.7C376.3,398.2,376.2,398.3,376.1,398.3z"/>
		</g>
		<g>
			<path class="st7" d="M411.9,421.4l-13.6-7l-12-12.2c-7.7,0.1-13.2,5.3-13.2,5.3l0.8,2.3l0,0l-2.4,1.4h0l-1.3-1.4
				c-6.5,0-8.7-3.4-8.7-3.4s-1.6,0.2-1.5,1.6c0.1,1.4-0.7,9.5-1.1,13.7c-0.1,1.5,0.7,2.9,2.1,3.4c6.2,2.4,23.3,8.9,34.5,9.8
				c11.3,0.9,19.2-5.2,19.2-5.2v-3.8C414.6,424,413.5,422.3,411.9,421.4z"/>
		</g>
		<g>
			<path class="st8" d="M371.5,411.2l2.4-1.4l2.6,5.9c0.2,0.5-0.4,0.9-0.8,0.5L371.5,411.2z"/>
		</g>
		<g>
			<path class="st8" d="M388.9,420.8c-0.1,0-0.2,0-0.3-0.1c-0.2-0.2-0.3-0.5-0.1-0.7c3.5-5.1,9.5-6.1,9.7-6.1c0.3,0,0.5,0.1,0.6,0.4
				c0,0.3-0.1,0.5-0.4,0.6c-0.1,0-5.8,1-9.1,5.7C389.2,420.8,389.1,420.8,388.9,420.8z"/>
		</g>
		<g>
			<path class="st8" d="M414.6,430.2c-0.3,0-0.5-0.2-0.5-0.5v-3.8c0-1.7-0.9-3.3-2.5-4.1l-13.6-7c0,0-0.1-0.1-0.1-0.1l-4.7-4.8
				c-0.2-0.2-0.2-0.5,0-0.7c0.2-0.2,0.5-0.2,0.7,0l4.6,4.7l13.5,6.9c1.9,1,3,2.8,3,4.9v3.8C415.1,430,414.9,430.2,414.6,430.2z"/>
		</g>
		<g>
			<path class="st8" d="M414.3,413.5c-0.1,0-0.2,0-0.2-0.1c-0.2-0.1-0.3-0.4-0.2-0.7c3.1-6.1,8.1-7.6,8.3-7.6
				c0.3-0.1,0.5,0.1,0.6,0.3c0.1,0.3-0.1,0.5-0.3,0.6c0,0-4.8,1.5-7.7,7.1C414.6,413.4,414.5,413.5,414.3,413.5z"/>
		</g>
		<g>
			<path class="st6" d="M386.1,402.6c-0.1,0-0.3,0-0.3-0.1l-6.5-6.3c-0.2-0.2-0.2-0.5,0-0.7c0.2-0.2,0.5-0.2,0.7,0l6.5,6.3
				c0.2,0.2,0.2,0.5,0,0.7C386.3,402.5,386.2,402.6,386.1,402.6z"/>
		</g>
	</g>
	<g>
		<g>
			<g>
				<polygon class="st8" points="339.5,198.6 320.4,213.2 310.4,195.3 331.4,189.2 				"/>
			</g>
			<g>
				<path class="st10" d="M331.4,189.2l21.1-9.5l17.7,6.1l-8,9.6l-10.6-2.3c0,0-2.4,5-10.6,5.5C333.3,199.1,331.4,189.2,331.4,189.2
					z"/>
			</g>
			<g>
				<path class="st0" d="M366.2,196.1l9.1-14.7v-3.1c0-0.3-0.3-0.5-0.6-0.4l-34.6,10.5v2.7l26,7.6V196.1z"/>
			</g>
			<g>
				<polygon class="st1" points="366,192.6 359.6,192.6 366.2,196.1 				"/>
			</g>
			<g>
				<path class="st1" d="M348.2,186c0,0,6,3.5,10.1,0.7c4.1-2.8-0.3,0.1-0.3,0.1l-3.9-2.6L348.2,186z"/>
			</g>
			<g>
				<polygon class="st9" points="375.3,181.4 375.3,178.3 366,192.6 366.2,196.1 				"/>
			</g>
			<g>
				<g>
					<path class="st10" d="M352.5,179.8l7.8,5.7c-3.8,4-10.9-2.1-10.9-2.1L352.5,179.8z"/>
				</g>
				<g>
					<path class="st8" d="M357.1,187.2c-3.7,0-7.7-3.4-7.9-3.6c-0.2-0.1-0.2-0.4,0-0.5c0.1-0.2,0.4-0.2,0.5,0
						c0.1,0.1,6.5,5.5,10.1,2.5l-6.2-4.5c-0.2-0.1-0.2-0.4-0.1-0.5c0.1-0.2,0.4-0.2,0.5-0.1l6.5,4.8c0.1,0.1,0.1,0.2,0.2,0.3
						c0,0.1,0,0.2-0.1,0.3C359.6,186.8,358.3,187.2,357.1,187.2z"/>
				</g>
				<g>
					<path class="st8" d="M351.3,185.1h-3.1c-0.2,0-0.4-0.2-0.4-0.4c0-0.2,0.2-0.4,0.4-0.4h3.1c0.2,0,0.4,0.2,0.4,0.4
						C351.6,184.9,351.5,185.1,351.3,185.1z"/>
				</g>
			</g>
			<g>
				<path class="st2" d="M365.1,190c-0.1,0-0.2,0-0.2-0.1c-0.2-0.1-0.2-0.4-0.1-0.5l6.6-9.2c0.1-0.2,0.4-0.2,0.5-0.1
					c0.2,0.1,0.2,0.4,0.1,0.5l-6.6,9.2C365.3,190,365.2,190,365.1,190z"/>
			</g>
			<g>
				<path class="st2" d="M361.2,190c-0.1,0-0.2,0-0.2-0.1c-0.2-0.1-0.2-0.4-0.1-0.5l5.8-7.6c0.1-0.2,0.4-0.2,0.5-0.1
					c0.2,0.1,0.2,0.4,0.1,0.5l-5.8,7.6C361.4,190,361.3,190,361.2,190z"/>
			</g>
		</g>
	</g>
	<g>
		<g>
			<path class="st7" d="M313.6,147.5l8.5,4.5c7.8,4.2,11.3,13.5,8.2,21.8l-9.3,24.4l-22.4-6.1L313.6,147.5z"/>
		</g>
		<g>
			<path class="st7" d="M281.6,129.4l31,17.5c7.9,4.5,12.5,13.1,11.8,22.2l-3.2,40.2l10.9,15.7c0,0-9.9-2.5-27,9
				c-18.9,12.7-31.5,14.3-44,12.1l-2.2-36.8c0,0,3.5-48,8.4-66.3C272,125.9,281.6,129.4,281.6,129.4z"/>
		</g>
		<g>
			<path class="st8" d="M321.3,209.3l1-12.5l-36.6-5.6C293.1,210.5,321.3,209.3,321.3,209.3z"/>
		</g>
		<g>
			<path class="st8" d="M323.1,187.2C323,187.2,323,187.2,323.1,187.2c-0.3,0-0.5-0.3-0.5-0.5L324,169c0.3-3.5-0.3-7.1-1.6-10.4
				c-0.1-0.3,0-0.5,0.3-0.7c0.3-0.1,0.5,0,0.7,0.3c1.4,3.4,2,7.2,1.7,10.9l-1.4,17.7C323.5,187,323.3,187.2,323.1,187.2z"/>
		</g>
	</g>
	<g>
		<path class="st11" d="M344.2,104.8"/>
	</g>
	<g>
		<g>
			<path class="st4" d="M279.1,255.7v19.9c0,2.5-1.2,4.9-3.3,6.4l-7.3,5.2c-2.6,1.9-6.1,2-8.8,0.3l-25.9-16c-2.4-1.5-3.9-4.2-3.9-7
				v-18.2c0-2.6,1.4-5.1,3.7-6.3c2.1-1.1,5.4-2.3,9.6-2.5c1.6-0.1,3.2,0.3,4.7,1c5.8,2.8,23.2,11,29.1,13.9
				C278.3,253,279.1,254.3,279.1,255.7z"/>
		</g>
		<g>
			<path class="st6" d="M262.3,289.1c-0.3,0-0.5-0.2-0.5-0.5v-15.5c0-0.3,0.2-0.5,0.5-0.5c0.3,0,0.5,0.2,0.5,0.5v15.5
				C262.8,288.9,262.6,289.1,262.3,289.1z"/>
		</g>
		<g>
			<path class="st6" d="M245.9,279.5c-0.1,0-0.2,0-0.3-0.1l-5.9-3.7c-0.1-0.1-0.2-0.3-0.2-0.4v-12.2c0-0.3,0.2-0.5,0.5-0.5
				c0.3,0,0.5,0.2,0.5,0.5v11.9l4.9,3v-12.9c0-0.3,0.2-0.5,0.5-0.5c0.3,0,0.5,0.2,0.5,0.5V279c0,0.2-0.1,0.3-0.3,0.4
				C246,279.5,245.9,279.5,245.9,279.5z"/>
		</g>
		<g>
			<path class="st6" d="M271.9,285.2c-0.2,0-0.4-0.2-0.4-0.4V254c0-0.2,0.2-0.4,0.4-0.4c0.2,0,0.4,0.2,0.4,0.4v30.8
				C272.3,285.1,272.1,285.2,271.9,285.2z"/>
		</g>
		<g>
			<path class="st7" d="M228.7,247.6c0,2,0,5.3,0,7.6c0,1.6,0.9,3.1,2.3,3.9l28.5,15.6c2,1.1,4.4-0.3,4.4-2.6l0.1-9.7
				c0-3.6,3.4-7.3,9.1-8.3c1.8-0.3,3.8-0.2,5.7,0.4c0,0,0.7-1.3-1.4-2.6l-28.7-13.8c-1.8-0.9-3.8-1.3-5.7-1.3
				c-3.8,0-9.7,0.9-12.7,5.4C229.2,243.8,228.7,245.7,228.7,247.6z"/>
		</g>
		<g>
			<path class="st8" d="M262.3,257.1c-0.1,0-0.1,0-0.2,0l-29.3-13.9c-0.2-0.1-0.4-0.4-0.2-0.7c0.1-0.2,0.4-0.4,0.7-0.2l29.3,13.9
				c0.2,0.1,0.4,0.4,0.2,0.7C262.7,256.9,262.5,257.1,262.3,257.1z"/>
		</g>
		<g>
			<path class="st6" d="M245.4,261.4c-0.3,1.5-1.6,2.3-2.8,1.8c-1.2-0.5-1.9-2.1-1.5-3.6c0.3-1.5,1.6-2.3,2.8-1.8
				C245.1,258.3,245.8,259.9,245.4,261.4z"/>
		</g>
		<g>
			<path class="st6" d="M277.5,255.1c38.4-74.9,41.4-104.8,41.4-104.8l-0.7-0.4l0,0c0.9-0.4,1.9-0.3,2.7,0.1l2.9,1.7
				c0.9,0.5,1.4,1.6,1.2,2.6c-1.6,8.8-10.3,50.5-46,111.5c-0.4,0.8-1.6,0.4-1.6-0.4V255.1z"/>
		</g>
	</g>
	<g>
		<g>
			<polygon class="st9" points="366.2,196.1 366.2,200.8 316,205 307.8,192.1 307.8,187.2 349.2,187.2 			"/>
		</g>
		<g>
			<polygon class="st3" points="307.8,187.2 307.8,192.1 349.4,192.1 366.2,200.8 366.2,196.1 349.2,187.2 			"/>
		</g>
		<g>
			<path class="st1" d="M339.2,189.3h-31.4c-0.2,0-0.4-0.2-0.4-0.4c0-0.2,0.2-0.4,0.4-0.4h31.4c0.2,0,0.4,0.2,0.4,0.4
				C339.6,189.2,339.4,189.3,339.2,189.3z"/>
		</g>
		<g>
			<path class="st1" d="M324.7,191.4h-16.9c-0.2,0-0.4-0.2-0.4-0.4c0-0.2,0.2-0.4,0.4-0.4h16.9c0.2,0,0.4,0.2,0.4,0.4
				C325.1,191.2,324.9,191.4,324.7,191.4z"/>
		</g>
		<g>
			<path class="st1" d="M366.2,197.8c0,0-0.1,0-0.1,0l-8.2-4.3c-0.1-0.1-0.2-0.2-0.1-0.3c0.1-0.1,0.2-0.2,0.3-0.1l8.2,4.3
				c0.1,0.1,0.2,0.2,0.1,0.3C366.4,197.7,366.3,197.8,366.2,197.8z"/>
		</g>
		<g>
			<path class="st1" d="M366.2,199.6c0,0-0.1,0-0.1,0l-13.6-7.2c-0.1-0.1-0.2-0.2-0.1-0.3c0.1-0.1,0.2-0.2,0.3-0.1l13.6,7.2
				c0.1,0.1,0.2,0.2,0.1,0.3C366.4,199.5,366.3,199.6,366.2,199.6z"/>
		</g>
		<g>
			<path class="st1" d="M349.2,191.9c-0.1,0-0.2-0.1-0.2-0.2v-4.5c0-0.1,0.1-0.2,0.2-0.2c0.1,0,0.2,0.1,0.2,0.2v4.5
				C349.4,191.8,349.3,191.9,349.2,191.9z"/>
		</g>
		<g>
			<path class="st2" d="M366.2,196.3c0,0-0.1,0-0.1,0l-17-8.9c-0.1-0.1-0.2-0.2-0.1-0.3c0.1-0.1,0.2-0.2,0.3-0.1l17,8.9
				c0.1,0.1,0.2,0.2,0.1,0.3C366.4,196.3,366.3,196.3,366.2,196.3z"/>
		</g>
	</g>
	<g>
		<g>
			<g>
				<path class="st4" d="M288.7,177.7c0,0-3.5,5.4-11.1,8.5c-8.9,3.6-23.8,5.4-32.2-3.8c0,0,3.8-5.6,11.7-10.2
					C269,165.4,286,168.1,288.7,177.7z"/>
			</g>
			<g>
				<path class="st10" d="M284.5,148.9l-6.3,48.7l35.8-0.7l41.6,4.9c0,0,0.4,1.4-0.7,2.4c-0.8,0.7-2.8,1.3-5.2,1.2
					c0,0,0.2,1.7-1.9,2.4l-5.2,1.5l-23.9,0.4l-3.7,0.7l-45.6,8.8c-8.9,1.7-17-5.6-16.2-14.6l5.2-55.8L284.5,148.9z"/>
			</g>
			<g>
				<path class="st8" d="M254.9,185.6c5.1-3.2,13.4-6.6,25.6-5.9l6-30.8l-28.2-0.3L254.9,185.6z"/>
			</g>
			<g>
				<path class="st8" d="M342.9,205.7l-6-0.9c-0.2,0-0.3-0.2-0.3-0.4c0-0.2,0.2-0.3,0.4-0.3l5.9,0.9l6.6-0.2c0.2,0,0.4,0.2,0.4,0.4
					c0,0.2-0.2,0.4-0.4,0.4L342.9,205.7z"/>
			</g>
			<g>
				<g>
					<path class="st10" d="M322.6,200.5l15.9-3.9c0.8-0.2,1.1-1.2,0.4-1.8l0,0c-1-0.9-2.3-1.4-3.7-1.5l-8.9-0.2
						c-2.5,0-4.9,0.4-7.2,1.4l-6.2,2.7L322.6,200.5z"/>
				</g>
				<g>
					<path class="st8" d="M320,200.8c-0.2,0-0.4-0.2-0.4-0.4s0.2-0.4,0.4-0.4h2.6l7.2-1.8c0.2-0.1,0.4,0.1,0.5,0.3
						c0,0.2-0.1,0.4-0.3,0.5l-7.3,1.8L320,200.8z"/>
				</g>
			</g>
			<g>
				<path class="st8" d="M263.6,201.9c-0.1,0-0.2,0-0.3-0.1c-0.2-0.2-0.2-0.5,0-0.7c5.6-5.8,14.7-4,15-4c0.3,0.1,0.4,0.3,0.4,0.6
					c-0.1,0.3-0.3,0.4-0.6,0.4c-0.1,0-8.9-1.7-14.1,3.7C263.9,201.8,263.7,201.9,263.6,201.9z"/>
			</g>
		</g>
		<g>
			<g>
				<path class="st7" d="M253,147.2c0,0,5.3-20.5,20.8-20c13.9,0.4,15.5,14.3,15.3,23.8c-0.2,10.8-0.4,26.7-0.4,26.7
					c-2.1-1.7-11.7-6.1-23.3-2c-10.5,3.7-20,6.7-20,6.7L253,147.2z"/>
			</g>
			<g>
				<path class="st8" d="M288.7,178.2C288.7,178.2,288.7,178.2,288.7,178.2c-0.3,0-0.5-0.2-0.5-0.5c0-0.2,0.2-16.1,0.4-26.7
					c0.2-10.4-2.1-17.4-6.8-20.8c-0.2-0.2-0.3-0.5-0.1-0.7c0.2-0.2,0.5-0.3,0.7-0.1c5.1,3.7,7.4,10.7,7.2,21.7
					c-0.2,10.6-0.4,26.6-0.4,26.7C289.2,178,289,178.2,288.7,178.2z"/>
			</g>
		</g>
	</g>
	<g>
		<g>
			<g>
				<g>
					<polygon class="st4" points="316.9,144.5 297.9,130 291.5,137.7 306.8,151.2 317.1,145.8 					"/>
				</g>
				<g>
					<path class="st10" d="M303.4,121.7l-9.5,17.4c0,0,6.3,15.7,14.1,16c5,0.2,5.3-3.9,5.3-7.4v-13.1L303.4,121.7z"/>
				</g>
				<g>
					<path class="st8" d="M303.6,123.4l0.3,7.9c0.2,6.4,3.8,12.2,9.4,15.3h0v-4.6v-7.9L303.6,123.4z"/>
				</g>
			</g>
			<g>
				<path class="st10" d="M354.9,105.7c-1.4-12-11.3-21.4-23.4-22.1c-12.1-0.7-22.3,7.2-25.5,17.9l0,0l-0.1,0.4c0,0,0,0.1,0,0.1
					l-1.4,5c-1.5,5.3-1.9,10.9-0.9,16.4c1.4,8.3,5.6,19,17.1,22.2c20.9,5.8,23.5-14.7,23.5-14.7l5.3-6.5l0,0
					C353.6,119.4,355.7,112.8,354.9,105.7z"/>
			</g>
			<g>
				<path class="st4" d="M358.4,95.9c-3.8-16.3-31.2-22.1-40.6-12.4c0,0-14.3-3.7-15.8,14.1l6.1,10.6l0,0c-0.1,1.2,0.7,2.4,2,2.6
					l0,0c0.5,0.1,0.9-0.3,0.9-0.7l0.8-6.6l7.2-8.9l-0.7-6.4l2.7,6.2c0,0,33.5-4.2,33.6,19.2C354.6,113.6,361.1,107.4,358.4,95.9z"/>
			</g>
			<g>
				
					<ellipse transform="matrix(0.9641 -0.2656 0.2656 0.9641 -17.9542 83.4263)" class="st10" cx="299.5" cy="108.1" rx="9.1" ry="11.4"/>
			</g>
			<g>
				<g>
					<g>
						<path class="st8" d="M320.3,122.4c0,2.4-2,4.4-4.4,4.4c-2.4,0-4.4-2-4.4-4.4c0-2.4,2-4.4,4.4-4.4
							C318.3,118,320.3,120,320.3,122.4z"/>
					</g>
					<g>
						<path class="st4" d="M329.8,124c-0.7,1-2,1.3-3,0.6c-1-0.7-1.3-2-0.6-3c0.7-1,2-1.3,3-0.6C330.2,121.7,330.5,123,329.8,124z"
							/>
					</g>
					<g>
						<path class="st4" d="M343.4,131.3c-0.6,1-1.8,1.4-2.6,0.9c-0.8-0.5-0.9-1.7-0.3-2.7c0.6-1,1.8-1.4,2.6-0.9
							C343.8,129.1,344,130.3,343.4,131.3z"/>
					</g>
					<g>
						<path class="st8" d="M334.3,136.9c-0.3,0-0.6,0-0.9-0.1c-1.8-0.5-3.7-2.5-4.4-4.7c-0.1-0.4,0.1-0.8,0.5-0.9
							c0.4-0.1,0.8,0.1,0.9,0.5c0.7,2,2.2,3.4,3.4,3.7c0.4,0.1,0.9,0.2,1.2-0.1c0.9-0.8,1.4-5.5,1.3-9.5c0-0.4,0.3-0.8,0.7-0.8
							c0,0,0,0,0,0c0.4,0,0.7,0.3,0.8,0.7c0,1.5,0.1,9-1.8,10.6C335.5,136.7,334.9,136.9,334.3,136.9z"/>
					</g>
					<g>
						<path class="st8" d="M326.6,138.9c-1,0-3.1-0.2-4.8-1.7c-1.7-1.5-2.5-3.8-2.5-7c0-0.3,0.2-0.5,0.5-0.5c0.3,0,0.5,0.2,0.5,0.5
							c0,2.8,0.7,4.9,2.2,6.2c1.9,1.7,4.6,1.5,4.6,1.5c0.3,0,0.5,0.2,0.6,0.4c0,0.3-0.2,0.5-0.4,0.6
							C327.1,138.8,326.9,138.9,326.6,138.9z"/>
					</g>
					<g>
						<path class="st4" d="M327.5,109.9c2.1,0,7.4,0.6,8.4,6.6c0,0-3.2-2.2-9-2.9c-1.4-0.2-1.8-2.2-0.8-3.2l0,0
							C326.5,110.1,327,109.9,327.5,109.9z"/>
					</g>
					<g>
						<path class="st4" d="M342.3,120.5c0,0,2.3,1.9,3.7,5.1c0.3,0.6,1.1,0.7,1.7,0.5l0,0c0.9-0.3,1.4-1.5,1-2.4
							C347.8,122.1,345.9,121,342.3,120.5z"/>
					</g>
					<g>
						<path class="st8" d="M304.2,114.3C304.2,114.3,304.2,114.3,304.2,114.3c-0.3,0-0.5-0.2-0.5-0.5c0.1-3.3-1.7-6.6-4.1-7.4
							c-1.5-0.5-2.9,0-4.1,1.5c-0.2,0.2-0.5,0.3-0.7,0.1c-0.2-0.2-0.3-0.5-0.1-0.7c1.5-1.8,3.3-2.5,5.2-1.8c2.8,1,4.8,4.6,4.7,8.4
							C304.7,114.1,304.4,114.3,304.2,114.3z"/>
					</g>
					<g>
						<path class="st8" d="M300,113.5c-0.2,0-0.5-0.2-0.5-0.4c-0.2-1.4,0.1-2.5,0.8-3.2c1.1-1.1,2.9-0.9,3-0.9
							c0.3,0,0.5,0.3,0.4,0.6c0,0.3-0.3,0.5-0.6,0.4c0,0-1.4-0.2-2.2,0.6c-0.5,0.5-0.7,1.3-0.5,2.3
							C300.6,113.3,300.4,113.5,300,113.5C300.1,113.5,300.1,113.5,300,113.5z"/>
					</g>
					<g>
						<path class="st8" d="M340.7,137.1c0,0.7,0.2,1.4,0.5,2.1c1.5-2.5,2.3-5,2.7-6.6C342,133.3,340.7,135,340.7,137.1z"/>
					</g>
					<g>
						<g>
							<path class="st4" d="M340,128.5c-0.2,0-0.4-0.1-0.5-0.3l-0.1-0.2c-0.6-1.4-2-2.4-3.6-2.3c-0.3,0-0.5-0.2-0.5-0.5
								c0-0.3,0.2-0.5,0.5-0.5c2-0.1,3.8,1.1,4.6,2.9l0.1,0.2c0.1,0.3,0,0.5-0.3,0.7C340.1,128.4,340,128.5,340,128.5z"/>
						</g>
						<g>
							<path class="st4" d="M317.7,111.9c-0.1,0-0.2,0-0.2-0.1l-10.3-8.6c-0.2-0.1-0.2-0.4,0-0.5c0.1-0.2,0.4-0.2,0.5,0l10.3,8.6
								c0.2,0.1,0.2,0.4,0,0.5C318,111.9,317.8,111.9,317.7,111.9z"/>
						</g>
						<g>
							<path class="st4" d="M350.7,135.4c-0.1,0-0.1,0-0.2-0.1l-6.2-4c-0.2-0.1-0.2-0.3-0.1-0.5c0.1-0.2,0.3-0.2,0.5-0.1l6.2,4
								c0.2,0.1,0.2,0.3,0.1,0.5C350.9,135.3,350.8,135.4,350.7,135.4z"/>
						</g>
						<g>
							<path class="st7" d="M325.8,131.3c-2.9,0-5.8-1.1-8.1-3.2c-4.7-4.5-4.9-12.1-0.3-16.9c4.6-4.8,12.1-5.1,16.9-0.6
								c2.3,2.2,3.6,5.1,3.7,8.3c0.1,3.2-1.1,6.2-3.3,8.6C332.2,130,329,131.3,325.8,131.3z M326.2,108.4c-2.9,0-5.9,1.2-8.1,3.5
								c-4.2,4.4-4,11.4,0.3,15.5c4.3,4.1,11.3,3.8,15.5-0.6c2-2.1,3.1-4.9,3.1-7.9c-0.1-2.9-1.2-5.6-3.4-7.6
								C331.5,109.4,328.9,108.4,326.2,108.4z"/>
						</g>
						<g>
							<path class="st7" d="M342.3,140.1c-1.4,0-2.7-0.4-3.7-1.3c-2.8-2.5-2-8,1.7-12.1l0,0c3.7-4.1,9.1-5.4,11.9-2.9
								c1.4,1.3,2,3.2,1.6,5.6c-0.3,2.2-1.5,4.6-3.3,6.5c-1.8,2-4,3.4-6.2,3.9C343.6,140.1,343,140.1,342.3,140.1z M341.1,127.4
								c-3.4,3.7-4.2,8.5-1.8,10.7c1.1,1,2.8,1.3,4.8,0.8c2-0.5,4-1.8,5.7-3.6c1.7-1.8,2.7-4,3.1-6c0.3-2-0.2-3.6-1.3-4.7
								C349.2,122.4,344.5,123.7,341.1,127.4L341.1,127.4z"/>
						</g>
					</g>
				</g>
			</g>
		</g>
		<g>
			<g>
				<path class="st8" d="M299.5,155.7c0,0,4,9.1,12,3.1l-2.4-8.4l-2.3,0.8l-2.4-3L299.5,155.7z"/>
			</g>
			<g>
				<path class="st3" d="M318.4,150l-1-4.8c-0.1-0.7-1-1-1.6-0.6l-8.7,5.5v0c-5.4-4.9-8.6-11.8-9-19l0-0.8c-0.3-0.6-1-0.9-1.6-0.7
					l-6.4,4.5c0,0-2,17,8.5,29.9c0.7,0.8,2,0.7,2.4-0.3l6.2-12.5l5.6,11.9c0.3,0.7,1.4,0.8,1.8,0.1C316,160.5,318.8,155,318.4,150z"
					/>
			</g>
			<g>
				<path class="st1" d="M318.4,150.4c-0.2,0-0.3-0.1-0.4-0.3l-1-4.8c0-0.2,0.1-0.4,0.3-0.4c0.2,0,0.4,0.1,0.4,0.3l1,4.8
					C318.8,150.2,318.7,150.4,318.4,150.4C318.5,150.4,318.5,150.4,318.4,150.4z"/>
			</g>
			<g>
				<path class="st1" d="M290,134.5c-0.1,0-0.2-0.1-0.3-0.2c-0.1-0.2-0.1-0.4,0.1-0.5l6.4-4.5c0.5-0.2,0.9-0.2,1.3-0.1
					c0.4,0.2,0.7,0.5,0.9,0.9c0.1,0.2,0,0.4-0.2,0.5c-0.2,0.1-0.4,0-0.5-0.2c-0.1-0.2-0.3-0.4-0.5-0.5c-0.2-0.1-0.5-0.1-0.7,0
					l-6.3,4.5C290.2,134.5,290.1,134.5,290,134.5z"/>
			</g>
		</g>
	</g>
	<g>
		<g>
			<path class="st9" d="M363.7,260.6l-9.3-0.4l1.8,19.5c0.1,1,0.7,1.9,1.6,2.4c3.7,1.9,8.1,1.9,11.7,0c0.9-0.5,1.5-1.4,1.6-2.4
				l1.8-19.5L363.7,260.6z"/>
		</g>
		<g>
			<path class="st4" d="M354.6,258.9v-2.1c0-0.6,0.4-1,1-1.1c5.4-0.4,10.8-0.5,16.2,0c0.6,0,1,0.5,1,1.1v3.7h-18.2V258.9z"/>
		</g>
		<g>
			<path class="st4" d="M352.3,259.2v1.3c0,0.3,0.2,0.5,0.5,0.5c7.2,0.9,14.5,0.9,21.8,0c0.3,0,0.5-0.3,0.5-0.5v-1.3
				c0-0.3-0.3-0.6-0.6-0.5c-7.1,0.9-14.4,0.9-21.5,0C352.6,258.6,352.3,258.9,352.3,259.2z"/>
		</g>
		<g>
			<path class="st8" d="M355,266.5l0.8,8.1c5.3,0.4,10.6,0.4,15.8,0l0.8-8.1C366.6,266.9,360.8,266.9,355,266.5z"/>
		</g>
	</g>
</g>
<g>
	<g>
		<path class="st0" d="M276.8,89.9c1.8-3.3,2.9-7,2.9-11.1c0-12.6-10.2-22.8-22.8-22.8C244.2,56,234,66.2,234,78.8
			c0,12.6,10.2,22.8,22.8,22.8c5.9,0,11.3-2.3,15.4-5.9l4.9,2.7c0.8,0.4,1.8-0.3,1.5-1.2L276.8,89.9z"/>
	</g>
	<g>
		<path class="st1" d="M256.8,102c-12.8,0-23.2-10.4-23.2-23.2c0-0.2,0.2-0.4,0.4-0.4c0.2,0,0.4,0.2,0.4,0.4
			c0,12.4,10.1,22.5,22.5,22.5c5.6,0,11-2.1,15.1-5.8l0.2-0.2l5.1,2.8c0.2,0.1,0.5,0.1,0.7-0.1c0.2-0.2,0.3-0.4,0.2-0.7l-1.9-7.4
			l0.1-0.1c1.8-3.3,2.8-7.1,2.8-10.9c0-0.2,0.2-0.4,0.4-0.4c0.2,0,0.4,0.2,0.4,0.4c0,3.9-1,7.7-2.8,11.1l1.8,7.2
			c0.1,0.6-0.1,1.1-0.5,1.5c-0.5,0.4-1.1,0.4-1.6,0.1l-4.7-2.5C268,99.9,262.5,102,256.8,102z"/>
	</g>
	<g>
		<path class="st9" d="M268.5,73.8c-0.6-2.3-2.6-4.2-4.9-4.7c-2.8-0.6-5.3,0.6-6.8,2.6c-1.4-2-4-3.2-6.8-2.6
			c-2.4,0.5-4.3,2.4-4.9,4.7c-0.5,2.1-0.1,4,1,5.5h0l8.9,8.6c1,1,2.6,1,3.6,0l8.9-8.6h0C268.6,77.8,269,75.9,268.5,73.8z"/>
	</g>
</g>
</svg>
